<svg width="32" height="32" viewBox="0 0 32 32" fill="none" xmlns="http://www.w3.org/2000/svg">
<path opacity="0.2" d="M24 27V5C24 3.89543 23.1046 3 22 3L10 3C8.89543 3 8 3.89543 8 5L8 27C8 28.1046 8.89543 29 10 29H22C23.1046 29 24 28.1046 24 27Z" fill="#6CCF00"/>
<path d="M24 27V5C24 3.89543 23.1046 3 22 3L10 3C8.89543 3 8 3.89543 8 5L8 27C8 28.1046 8.89543 29 10 29H22C23.1046 29 24 28.1046 24 27Z" stroke="url(#paint0_linear_2122_48037)" stroke-width="2" stroke-linecap="round" stroke-linejoin="round"/>
<path d="M16 9C16.8284 9 17.5 8.32843 17.5 7.5C17.5 6.67157 16.8284 6 16 6C15.1716 6 14.5 6.67157 14.5 7.5C14.5 8.32843 15.1716 9 16 9Z" fill="#092B19"/>
<defs>
<linearGradient id="paint0_linear_2122_48037" x1="8" y1="-1.09091" x2="26.9091" y2="50.5455" gradientUnits="userSpaceOnUse">
<stop stop-color="#24EE82"/>
<stop offset="1" stop-color="#156C3E"/>
</linearGradient>
</defs>
</svg>
