<svg xmlns="http://www.w3.org/2000/svg" width="19" height="12" viewBox="0 0 19 12" fill="none">
  <path d="M1 5.25C0.585786 5.25 0.25 5.58579 0.25 6C0.25 6.41421 0.585786 6.75 1 6.75V5.25ZM18.3303 6.53033C18.6232 6.23744 18.6232 5.76256 18.3303 5.46967L13.5574 0.696699C13.2645 0.403806 12.7896 0.403806 12.4967 0.696699C12.2038 0.989593 12.2038 1.46447 12.4967 1.75736L16.7393 6L12.4967 10.2426C12.2038 10.5355 12.2038 11.0104 12.4967 11.3033C12.7896 11.5962 13.2645 11.5962 13.5574 11.3033L18.3303 6.53033ZM1 6.75H17.8V5.25H1V6.75Z" fill="white"/>
</svg>