<svg width="40" height="40" viewBox="0 0 40 40" fill="none" xmlns="http://www.w3.org/2000/svg">
<rect width="40" height="40" rx="20" fill="#F6F6F6"/>
<path d="M30 27V30H10V27C10 26.45 10.45 26 11 26H29C29.55 26 30 26.45 30 27Z" fill="#6CCF00" stroke="#6CCF00" stroke-width="1.5" stroke-miterlimit="10" stroke-linecap="round" stroke-linejoin="round"/>
<path opacity="0.6" d="M16 19H12V26H16V19Z" fill="#6CCF00"/>
<path opacity="0.4" d="M20 19H16V26H20V19Z" fill="#6CCF00"/>
<path opacity="0.6" d="M24 19H20V26H24V19Z" fill="#6CCF00"/>
<path opacity="0.4" d="M28 19H24V26H28V19Z" fill="#6CCF00"/>
<path d="M31 30.75H9C8.59 30.75 8.25 30.41 8.25 30C8.25 29.59 8.59 29.25 9 29.25H31C31.41 29.25 31.75 29.59 31.75 30C31.75 30.41 31.41 30.75 31 30.75Z" fill="#6CCF00"/>
<path d="M29.37 13.7501L20.37 10.1501C20.17 10.0701 19.83 10.0701 19.63 10.1501L10.63 13.7501C10.28 13.8901 10 14.3001 10 14.6801V18.0001C10 18.5501 10.45 19.0001 11 19.0001H29C29.55 19.0001 30 18.5501 30 18.0001V14.6801C30 14.3001 29.72 13.8901 29.37 13.7501ZM20 16.5001C19.17 16.5001 18.5 15.8301 18.5 15.0001C18.5 14.1701 19.17 13.5001 20 13.5001C20.83 13.5001 21.5 14.1701 21.5 15.0001C21.5 15.8301 20.83 16.5001 20 16.5001Z" fill="#6CCF00"/>
</svg>
