<svg width="80" height="80" viewBox="0 0 80 80" fill="none" xmlns="http://www.w3.org/2000/svg">
<rect width="80" height="80" rx="40" fill="#CCEEE4"/>
<path d="M55 50.0001C55 50.2654 54.8946 50.5197 54.7071 50.7073C54.5196 50.8948 54.2652 51.0001 54 51.0001H26C25.7348 51.0001 25.4804 50.8948 25.2929 50.7073C25.1054 50.5197 25 50.2654 25 50.0001C25 49.7349 25.1054 49.4806 25.2929 49.293C25.4804 49.1055 25.7348 49.0001 26 49.0001H54C54.2652 49.0001 54.5196 49.1055 54.7071 49.293C54.8946 49.4806 55 49.7349 55 50.0001ZM26.0375 36.2751C25.9779 36.0656 25.9884 35.8423 26.0674 35.6392C26.1463 35.4361 26.2895 35.2644 26.475 35.1501L39.475 27.1501C39.6323 27.0514 39.8143 26.999 40 26.999C40.1857 26.999 40.3677 27.0514 40.525 27.1501L53.525 35.1501C53.7097 35.2646 53.8521 35.4361 53.9306 35.6388C54.0092 35.8414 54.0196 36.0641 53.9602 36.2731C53.9009 36.4822 53.7751 36.6662 53.6018 36.7974C53.4286 36.9286 53.2173 36.9998 53 37.0001H50V45.0001H52C52.2652 45.0001 52.5196 45.1055 52.7071 45.293C52.8946 45.4806 53 45.7349 53 46.0001C53 46.2654 52.8946 46.5197 52.7071 46.7073C52.5196 46.8948 52.2652 47.0001 52 47.0001H28C27.7348 47.0001 27.4804 46.8948 27.2929 46.7073C27.1054 46.5197 27 46.2654 27 46.0001C27 45.7349 27.1054 45.4806 27.2929 45.293C27.4804 45.1055 27.7348 45.0001 28 45.0001H30V37.0001H27C26.7826 37.0004 26.571 36.9297 26.3973 36.7989C26.2236 36.6681 26.0973 36.4842 26.0375 36.2751ZM42 44.0001C42 44.2654 42.1054 44.5197 42.2929 44.7073C42.4804 44.8948 42.7348 45.0001 43 45.0001C43.2652 45.0001 43.5196 44.8948 43.7071 44.7073C43.8946 44.5197 44 44.2654 44 44.0001V38.0001C44 37.7349 43.8946 37.4806 43.7071 37.293C43.5196 37.1055 43.2652 37.0001 43 37.0001C42.7348 37.0001 42.4804 37.1055 42.2929 37.293C42.1054 37.4806 42 37.7349 42 38.0001V44.0001ZM36 44.0001C36 44.2654 36.1054 44.5197 36.2929 44.7073C36.4804 44.8948 36.7348 45.0001 37 45.0001C37.2652 45.0001 37.5196 44.8948 37.7071 44.7073C37.8946 44.5197 38 44.2654 38 44.0001V38.0001C38 37.7349 37.8946 37.4806 37.7071 37.293C37.5196 37.1055 37.2652 37.0001 37 37.0001C36.7348 37.0001 36.4804 37.1055 36.2929 37.293C36.1054 37.4806 36 37.7349 36 38.0001V44.0001Z" fill="#018C66"/>
</svg>
