<svg width="25" height="24" viewBox="0 0 25 24" fill="none" xmlns="http://www.w3.org/2000/svg">
<path d="M20.917 3.75H4.41701C4.01918 3.75 3.63765 3.90804 3.35635 4.18934C3.07504 4.47064 2.91701 4.85218 2.91701 5.25V19.5C2.91624 19.628 2.94866 19.754 3.01109 19.8657C3.07353 19.9774 3.16385 20.0711 3.27326 20.1375C3.38178 20.2057 3.50598 20.245 3.63399 20.2516C3.76201 20.2581 3.88957 20.2318 4.00451 20.175L6.66701 18.8344L9.32951 20.175C9.4348 20.2257 9.55015 20.252 9.66701 20.252C9.78386 20.252 9.89921 20.2257 10.0045 20.175L12.667 18.8344L15.3295 20.175C15.4352 20.2244 15.5504 20.25 15.667 20.25C15.7836 20.25 15.8989 20.2244 16.0045 20.175L18.667 18.8344L21.3295 20.175C21.4444 20.2318 21.572 20.2581 21.7 20.2516C21.828 20.245 21.9522 20.2057 22.0608 20.1375C22.1702 20.0711 22.2605 19.9774 22.3229 19.8657C22.3854 19.754 22.4178 19.628 22.417 19.5V5.25C22.417 4.85218 22.259 4.47064 21.9777 4.18934C21.6964 3.90804 21.3148 3.75 20.917 3.75ZM17.542 13.5H7.79201C7.59309 13.5 7.40233 13.421 7.26168 13.2803C7.12102 13.1397 7.04201 12.9489 7.04201 12.75C7.04201 12.5511 7.12102 12.3603 7.26168 12.2197C7.40233 12.079 7.59309 12 7.79201 12H17.542C17.7409 12 17.9317 12.079 18.0723 12.2197C18.213 12.3603 18.292 12.5511 18.292 12.75C18.292 12.9489 18.213 13.1397 18.0723 13.2803C17.9317 13.421 17.7409 13.5 17.542 13.5ZM17.542 10.5H7.79201C7.59309 10.5 7.40233 10.421 7.26168 10.2803C7.12102 10.1397 7.04201 9.94891 7.04201 9.75C7.04201 9.55109 7.12102 9.36032 7.26168 9.21967C7.40233 9.07902 7.59309 9 7.79201 9H17.542C17.7409 9 17.9317 9.07902 18.0723 9.21967C18.213 9.36032 18.292 9.55109 18.292 9.75C18.292 9.94891 18.213 10.1397 18.0723 10.2803C17.9317 10.421 17.7409 10.5 17.542 10.5Z" fill="#6CCF00"/>
</svg>
