<svg width="323" height="238" viewBox="0 0 323 238" fill="none" xmlns="http://www.w3.org/2000/svg">
<g clip-path="url(#clip0_106_30)">
<path d="M49.8674 237.248H156.469L156.469 109.462L49.8674 109.462L49.8674 237.248Z" fill="#B75230"/>
<path d="M49.9653 109.32H24.8163V237.106H49.9653V109.32Z" fill="#8F3A1E"/>
<path d="M57.4725 237.106L78.6802 184.643H104.585L120.908 199.632L125.975 237.106H57.4725Z" fill="#8F3A1E"/>
<path d="M101.014 109.32L100.263 134.428L97.8235 129.556L96.322 134.428L95.3836 130.868L92.9438 134.428L90.6917 132.554L89.5656 136.864L88.2518 109.32H101.014Z" fill="#DC8061"/>
<path d="M89.3778 237.106L87.501 204.316L84.8735 208.064L84.3105 207.127L82.0584 210.125L79.9939 206.003L79.4309 206.939L77.3664 203.379V237.106H89.3778Z" fill="#DC8061"/>
<path d="M38.3292 233.733C38.5169 233.733 38.7045 233.546 38.7045 233.358L36.077 113.255C36.077 113.068 35.8894 112.88 35.7017 112.88C35.514 112.88 35.3263 113.068 35.3263 113.255L37.9538 233.358C37.9538 233.546 38.1415 233.733 38.3292 233.733Z" fill="#B75230"/>
<path d="M125.436 237.135H185.494V174.179H125.436V237.135Z" fill="#FA402F"/>
<path d="M125.412 174.15H95.3835V237.106H125.412V174.15Z" fill="#FF6661"/>
<path d="M169.141 174.15L168.015 186.516L167.264 183.144L166.514 185.205L165.575 184.08L162.76 187.453L161.446 174.15H169.141Z" fill="#FAEBDA"/>
<path d="M169.141 237.106C169.329 237.106 169.141 218.369 169.141 218.369L166.326 223.24L165.388 221.742L163.699 224.365L161.447 220.617L160.883 237.106H169.141Z" fill="#FAEBDA"/>
<path d="M111.336 235.607C111.524 235.607 111.712 235.419 111.712 235.232L110.961 176.024C110.961 175.836 110.773 175.649 110.586 175.649C110.398 175.649 110.21 175.836 110.21 176.024L110.961 235.232C110.961 235.419 111.149 235.607 111.336 235.607Z" fill="#F22C09"/>
<path d="M155.441 237.106L149.247 211.624L142.679 237.106H155.441Z" fill="#F22C09"/>
</g>
<path d="M251.076 157.669H160.925V237.106H251.076V157.669Z" fill="#B75230"/>
<path d="M213.851 157.895L213.1 183.002L210.66 178.131L209.159 183.002L208.22 179.442L205.78 183.002L203.528 181.128L202.402 185.438L201.088 157.895H213.851Z" fill="#DC8061"/>
<path d="M197.481 237.363L195.604 204.573L192.977 208.32L192.414 207.384L190.161 210.382L188.097 206.259L187.534 207.196L185.469 203.636V237.363H197.481Z" fill="#DC8061"/>
<path d="M251.155 237.209H280.379V157.772H251.155V237.209Z" fill="#8F3A1E"/>
<path d="M242.739 157.698H263.416V130.032H242.739V157.698Z" fill="#FA402F"/>
<path d="M242.805 130.004H213.858V157.669H242.805V130.004Z" fill="#FF6661"/>
<path d="M219.006 152.663H236.65V149.924H219.006V152.663Z" fill="#F22C09"/>
<path d="M256.59 134.934C256.59 136.03 257.693 137.126 258.795 137.126C259.898 137.126 261.001 136.03 261.001 134.934C261.001 133.839 260.174 132.743 258.795 132.743C257.417 132.743 256.59 133.839 256.59 134.934Z" fill="#F22C09"/>
<path d="M0 237H304" stroke="black" stroke-width="1.5"/>
<path d="M71 94.431C81.5629 63.586 142.149 56.3968 206.323 78.3733C270.497 100.35 313.958 143.17 303.395 174.015" stroke="white" stroke-width="2" stroke-linecap="round"/>
<circle cx="136.287" cy="10.4986" r="8" transform="rotate(156.88 136.287 10.4986)" fill="white"/>
<circle cx="278.081" cy="118.496" r="8" transform="rotate(156.88 278.081 118.496)" fill="white"/>
<defs>
<clipPath id="clip0_106_30">
<rect width="160.653" height="195.238" fill="white" transform="translate(24.8163 41.8677)"/>
</clipPath>
</defs>
</svg>
