<svg width="22" height="19" viewBox="0 0 22 19" fill="none" xmlns="http://www.w3.org/2000/svg">
<path d="M20.0146 14.4184H14.6176C13.8137 14.4183 13.0217 14.2248 12.3086 13.8544C11.5956 13.4839 10.9826 12.9473 10.5216 12.2902L10.0076 11.5579C9.54668 10.9007 8.93369 10.3642 8.22066 9.99369C7.50763 9.62322 6.71557 9.42975 5.91165 9.42969H2.01465" stroke="#6CCF00" stroke-width="2.5" stroke-linecap="round" stroke-linejoin="round"/>
<path d="M17.0146 17.4122L20.0146 14.419L17.0146 11.4258" stroke="#6CCF00" stroke-width="2.5" stroke-linecap="round" stroke-linejoin="round"/>
<path d="M17.0146 7.43366L20.0146 4.44046L17.0146 1.44727" stroke="#6CCF00" stroke-width="2.5" stroke-linecap="round" stroke-linejoin="round"/>
<path d="M20.0146 4.44141H14.6196C13.8152 4.44137 13.0226 4.63499 12.3092 5.00583C11.5958 5.37667 10.9826 5.91378 10.5216 6.57157L10.0116 7.29991C9.5508 7.95756 8.93775 8.49458 8.22452 8.86542C7.51128 9.23625 6.71892 9.42995 5.91465 9.43007H2.01465" stroke="#6CCF00" stroke-width="2.5" stroke-linecap="round" stroke-linejoin="round"/>
</svg>
