<svg width="40" height="40" viewBox="0 0 40 40" fill="none" xmlns="http://www.w3.org/2000/svg">
<rect width="40" height="40" rx="20" fill="#D5F7E5"/>
<path d="M23.3335 13.333H16.6668C14.8259 13.333 13.3335 14.8254 13.3335 16.6663V28.6663C13.3335 30.5073 14.8259 31.9997 16.6668 31.9997H23.3335C25.1744 31.9997 26.6668 30.5073 26.6668 28.6663V16.6663C26.6668 14.8254 25.1744 13.333 23.3335 13.333Z" fill="#D9D9D9"/>
<path d="M23.3335 13.333H16.6668C14.8259 13.333 13.3335 14.8254 13.3335 16.6663V28.6663C13.3335 30.5073 14.8259 31.9997 16.6668 31.9997H23.3335C25.1744 31.9997 26.6668 30.5073 26.6668 28.6663V16.6663C26.6668 14.8254 25.1744 13.333 23.3335 13.333Z" fill="#6CCF00" stroke="#6CCF00" stroke-width="1.33333" stroke-linecap="round"/>
<path d="M31.9998 13.3333C31.9998 12.633 31.8619 11.9394 31.5939 11.2924C31.3258 10.6453 30.933 10.0573 30.4377 9.5621C29.9425 9.06685 29.3546 8.674 28.7075 8.40598C28.0604 8.13795 27.3669 8 26.6665 8" stroke="#6CCF00" stroke-width="1.33333" stroke-linecap="round"/>
<path d="M29.3332 13.3337C29.3332 12.9835 29.2642 12.6367 29.1302 12.3132C28.9962 11.9896 28.7997 11.6957 28.5521 11.448C28.3045 11.2004 28.0105 11.004 27.687 10.87C27.3635 10.736 27.0167 10.667 26.6665 10.667" stroke="#6CCF00" stroke-width="1.33333" stroke-linecap="round"/>
<rect x="17.3335" y="14.667" width="5.33333" height="1.33333" rx="0.666667" fill="white"/>
</svg>
