<svg width="20" height="22" viewBox="0 0 20 22" fill="none" xmlns="http://www.w3.org/2000/svg">
<path d="M3.75 20.1673C3.41667 20.1673 3.125 20.0298 2.875 19.7548C2.625 19.4798 2.5 19.159 2.5 18.7923V4.58398C2.5 4.21732 2.625 3.89648 2.875 3.62148C3.125 3.34648 3.41667 3.20898 3.75 3.20898H5.10417V1.83398H6.45833V3.20898H13.5417V1.83398H14.8958V3.20898H16.25C16.5833 3.20898 16.875 3.34648 17.125 3.62148C17.375 3.89648 17.5 4.21732 17.5 4.58398V18.7923C17.5 19.159 17.375 19.4798 17.125 19.7548C16.875 20.0298 16.5833 20.1673 16.25 20.1673H3.75ZM3.75 18.7923H16.25V8.93815H3.75V18.7923ZM3.75 7.56315H16.25V4.58398H3.75V7.56315ZM10 12.834C9.76389 12.834 9.56597 12.7461 9.40625 12.5704C9.24653 12.3947 9.16667 12.177 9.16667 11.9173C9.16667 11.6576 9.24653 11.4399 9.40625 11.2642C9.56597 11.0885 9.76389 11.0007 10 11.0007C10.2361 11.0007 10.434 11.0885 10.5937 11.2642C10.7535 11.4399 10.8333 11.6576 10.8333 11.9173C10.8333 12.177 10.7535 12.3947 10.5937 12.5704C10.434 12.7461 10.2361 12.834 10 12.834ZM6.66667 12.834C6.43056 12.834 6.23264 12.7461 6.07292 12.5704C5.91319 12.3947 5.83333 12.177 5.83333 11.9173C5.83333 11.6576 5.91319 11.4399 6.07292 11.2642C6.23264 11.0885 6.43056 11.0007 6.66667 11.0007C6.90278 11.0007 7.10069 11.0885 7.26042 11.2642C7.42014 11.4399 7.5 11.6576 7.5 11.9173C7.5 12.177 7.42014 12.3947 7.26042 12.5704C7.10069 12.7461 6.90278 12.834 6.66667 12.834ZM13.3333 12.834C13.0972 12.834 12.8993 12.7461 12.7396 12.5704C12.5799 12.3947 12.5 12.177 12.5 11.9173C12.5 11.6576 12.5799 11.4399 12.7396 11.2642C12.8993 11.0885 13.0972 11.0007 13.3333 11.0007C13.5694 11.0007 13.7674 11.0885 13.9271 11.2642C14.0868 11.4399 14.1667 11.6576 14.1667 11.9173C14.1667 12.177 14.0868 12.3947 13.9271 12.5704C13.7674 12.7461 13.5694 12.834 13.3333 12.834ZM10 16.5007C9.76389 16.5007 9.56597 16.4128 9.40625 16.2371C9.24653 16.0614 9.16667 15.8437 9.16667 15.584C9.16667 15.3243 9.24653 15.1066 9.40625 14.9309C9.56597 14.7552 9.76389 14.6673 10 14.6673C10.2361 14.6673 10.434 14.7552 10.5937 14.9309C10.7535 15.1066 10.8333 15.3243 10.8333 15.584C10.8333 15.8437 10.7535 16.0614 10.5937 16.2371C10.434 16.4128 10.2361 16.5007 10 16.5007ZM6.66667 16.5007C6.43056 16.5007 6.23264 16.4128 6.07292 16.2371C5.91319 16.0614 5.83333 15.8437 5.83333 15.584C5.83333 15.3243 5.91319 15.1066 6.07292 14.9309C6.23264 14.7552 6.43056 14.6673 6.66667 14.6673C6.90278 14.6673 7.10069 14.7552 7.26042 14.9309C7.42014 15.1066 7.5 15.3243 7.5 15.584C7.5 15.8437 7.42014 16.0614 7.26042 16.2371C7.10069 16.4128 6.90278 16.5007 6.66667 16.5007ZM13.3333 16.5007C13.0972 16.5007 12.8993 16.4128 12.7396 16.2371C12.5799 16.0614 12.5 15.8437 12.5 15.584C12.5 15.3243 12.5799 15.1066 12.7396 14.9309C12.8993 14.7552 13.0972 14.6673 13.3333 14.6673C13.5694 14.6673 13.7674 14.7552 13.9271 14.9309C14.0868 15.1066 14.1667 15.3243 14.1667 15.584C14.1667 15.8437 14.0868 16.0614 13.9271 16.2371C13.7674 16.4128 13.5694 16.5007 13.3333 16.5007Z" fill="#082932"/>
</svg>
