<svg width="25" height="24" viewBox="0 0 25 24" fill="none" xmlns="http://www.w3.org/2000/svg">
<path d="M21.333 4.5H3.33301C2.93518 4.5 2.55365 4.65804 2.27235 4.93934C1.99104 5.22064 1.83301 5.60218 1.83301 6V9.08437V17.9906C1.83301 18.3884 1.99104 18.77 2.27235 19.0513C2.55365 19.3326 2.93518 19.4906 3.33301 19.4906H21.333C21.7308 19.4906 22.1124 19.3326 22.3937 19.0513C22.675 18.77 22.833 18.3884 22.833 17.9906V6C22.833 5.60218 22.675 5.22064 22.3937 4.93934C22.1124 4.65804 21.7308 4.5 21.333 4.5ZM13.083 16.5H11.583C11.3841 16.5 11.1933 16.421 11.0527 16.2803C10.912 16.1397 10.833 15.9489 10.833 15.75C10.833 15.5511 10.912 15.3603 11.0527 15.2197C11.1933 15.079 11.3841 15 11.583 15H13.083C13.2819 15 13.4727 15.079 13.6133 15.2197C13.754 15.3603 13.833 15.5511 13.833 15.75C13.833 15.9489 13.754 16.1397 13.6133 16.2803C13.4727 16.421 13.2819 16.5 13.083 16.5ZM19.083 16.5H16.083C15.8841 16.5 15.6933 16.421 15.5527 16.2803C15.412 16.1397 15.333 15.9489 15.333 15.75C15.333 15.5511 15.412 15.3603 15.5527 15.2197C15.6933 15.079 15.8841 15 16.083 15H19.083C19.2819 15 19.4727 15.079 19.6133 15.2197C19.754 15.3603 19.833 15.5511 19.833 15.75C19.833 15.9489 19.754 16.1397 19.6133 16.2803C19.4727 16.421 19.2819 16.5 19.083 16.5ZM3.33301 8.33437V6H21.333V8.33437H3.33301Z" fill="#24B467"/>
</svg>
