<svg width="40" height="40" viewBox="0 0 40 40" fill="none" xmlns="http://www.w3.org/2000/svg">
<rect width="40" height="40" rx="20" fill="#D5F7E5"/>
<path d="M20 7C17.7423 6.99983 15.5234 7.58766 13.5619 8.70562C11.6003 9.82357 9.9638 11.4331 8.81335 13.3758C7.6629 15.3184 7.03822 17.5272 7.00081 19.7846C6.9634 22.042 7.51456 24.2703 8.60001 26.25L7.53751 29.9875C7.43758 30.3314 7.43124 30.6958 7.51913 31.0429C7.60703 31.3901 7.78598 31.7076 8.03751 31.9625C8.28903 32.2152 8.60427 32.3952 8.9498 32.4832C9.29532 32.5712 9.65822 32.5641 10 32.4625L13.75 31.4C15.4879 32.3525 17.4205 32.8951 19.4002 32.9862C21.3798 33.0774 23.3541 32.7148 25.1722 31.926C26.9902 31.1373 28.6039 29.9433 29.8898 28.4354C31.1757 26.9275 32.0999 25.1456 32.5916 23.2258C33.0834 21.306 33.1297 19.2992 32.7271 17.3588C32.3244 15.4183 31.4835 13.5956 30.2685 12.03C29.0535 10.4643 27.4967 9.19721 25.717 8.32542C23.9373 7.45363 21.9818 7.00027 20 7ZM14 21.5C13.7033 21.5 13.4133 21.412 13.1667 21.2472C12.92 21.0824 12.7277 20.8481 12.6142 20.574C12.5007 20.2999 12.471 19.9983 12.5288 19.7074C12.5867 19.4164 12.7296 19.1491 12.9394 18.9393C13.1491 18.7296 13.4164 18.5867 13.7074 18.5288C13.9983 18.4709 14.2999 18.5006 14.574 18.6142C14.8481 18.7277 15.0824 18.92 15.2472 19.1666C15.412 19.4133 15.5 19.7033 15.5 20C15.5 20.3978 15.342 20.7794 15.0607 21.0607C14.7794 21.342 14.3978 21.5 14 21.5ZM20 21.5C19.7033 21.5 19.4133 21.412 19.1667 21.2472C18.92 21.0824 18.7277 20.8481 18.6142 20.574C18.5007 20.2999 18.471 19.9983 18.5288 19.7074C18.5867 19.4164 18.7296 19.1491 18.9394 18.9393C19.1491 18.7296 19.4164 18.5867 19.7074 18.5288C19.9983 18.4709 20.2999 18.5006 20.574 18.6142C20.8481 18.7277 21.0824 18.92 21.2472 19.1666C21.412 19.4133 21.5 19.7033 21.5 20C21.5 20.3978 21.342 20.7794 21.0607 21.0607C20.7794 21.342 20.3978 21.5 20 21.5ZM26 21.5C25.7033 21.5 25.4133 21.412 25.1667 21.2472C24.92 21.0824 24.7277 20.8481 24.6142 20.574C24.5007 20.2999 24.471 19.9983 24.5288 19.7074C24.5867 19.4164 24.7296 19.1491 24.9394 18.9393C25.1491 18.7296 25.4164 18.5867 25.7074 18.5288C25.9983 18.4709 26.2999 18.5006 26.574 18.6142C26.8481 18.7277 27.0824 18.92 27.2472 19.1666C27.412 19.4133 27.5 19.7033 27.5 20C27.5 20.3978 27.342 20.7794 27.0607 21.0607C26.7794 21.342 26.3978 21.5 26 21.5Z" fill="#6CCF00"/>
</svg>
