<svg width="20" height="21" viewBox="0 0 20 21" fill="none" xmlns="http://www.w3.org/2000/svg">
<path d="M4.25781 16.2422C3.53906 15.5234 4.01563 14.0156 3.64844 13.1328C3.28125 12.25 1.875 11.4766 1.875 10.5C1.875 9.52344 3.26563 8.78125 3.64844 7.86719C4.03125 6.95313 3.53906 5.47656 4.25781 4.75781C4.97656 4.03906 6.48438 4.51563 7.36719 4.14844C8.25 3.78125 9.02344 2.375 10 2.375C10.9766 2.375 11.7187 3.76563 12.6328 4.14844C13.5469 4.53125 15.0234 4.03906 15.7422 4.75781C16.4609 5.47656 15.9844 6.98438 16.3516 7.86719C16.7188 8.75 18.125 9.52344 18.125 10.5C18.125 11.4766 16.7344 12.2187 16.3516 13.1328C15.9688 14.0469 16.4609 15.5234 15.7422 16.2422C15.0234 16.9609 13.5156 16.4844 12.6328 16.8516C11.75 17.2188 10.9766 18.625 10 18.625C9.02344 18.625 8.28125 17.2344 7.36719 16.8516C6.45313 16.4688 4.97656 16.9609 4.25781 16.2422Z" stroke="#018C66" stroke-width="2" stroke-linecap="round" stroke-linejoin="round"/>
<path d="M13.4375 8.625L8.85156 13L6.5625 10.8125" stroke="#018C66" stroke-width="2" stroke-linecap="round" stroke-linejoin="round"/>
</svg>
