<svg width="17" height="16" viewBox="0 0 17 16" fill="none" xmlns="http://www.w3.org/2000/svg">
<path d="M8.49992 15.1667C4.54659 15.1667 1.33325 11.9534 1.33325 8.00004C1.33325 4.04671 4.54659 0.833374 8.49992 0.833374C12.4533 0.833374 15.6666 4.04671 15.6666 8.00004C15.6666 11.9534 12.4533 15.1667 8.49992 15.1667ZM8.49992 1.83337C5.09992 1.83337 2.33325 4.60004 2.33325 8.00004C2.33325 11.4 5.09992 14.1667 8.49992 14.1667C11.8999 14.1667 14.6666 11.4 14.6666 8.00004C14.6666 4.60004 11.8999 1.83337 8.49992 1.83337Z" fill="#4C4D50"/>
<path d="M6.61332 10.3867C6.48666 10.3867 6.35999 10.34 6.25999 10.24C6.06666 10.0467 6.06666 9.72666 6.25999 9.53332L10.0333 5.75999C10.2267 5.56666 10.5467 5.56666 10.74 5.75999C10.9333 5.95332 10.9333 6.27332 10.74 6.46666L6.96666 10.24C6.87332 10.34 6.73999 10.3867 6.61332 10.3867Z" fill="#4C4D50"/>
<path d="M10.3867 10.3867C10.26 10.3867 10.1333 10.34 10.0333 10.24L6.25999 6.46666C6.06666 6.27332 6.06666 5.95332 6.25999 5.75999C6.45332 5.56666 6.77332 5.56666 6.96666 5.75999L10.74 9.53332C10.9333 9.72666 10.9333 10.0467 10.74 10.24C10.64 10.34 10.5133 10.3867 10.3867 10.3867Z" fill="#4C4D50"/>
</svg>
