<svg width="28" height="28" viewBox="0 0 28 28" fill="none" xmlns="http://www.w3.org/2000/svg">
<path d="M14.1829 0.460938C11.5459 0.460937 8.968 1.24292 6.77535 2.70801C4.58269 4.17309 2.87372 6.25548 1.86455 8.69182C0.855386 11.1282 0.591342 13.8091 1.10581 16.3955C1.62028 18.9819 2.89016 21.3577 4.75486 23.2224C6.61956 25.0871 8.99533 26.3569 11.5817 26.8714C14.1682 27.3859 16.849 27.1218 19.2854 26.1127C21.7217 25.1035 23.8041 23.3945 25.2692 21.2019C26.7343 19.0092 27.5163 16.4314 27.5163 13.7943C27.5163 12.0433 27.1714 10.3095 26.5013 8.69182C25.8313 7.07415 24.8492 5.60429 23.611 4.36618C22.3729 3.12807 20.9031 2.14594 19.2854 1.47588C17.6677 0.805814 15.9339 0.460938 14.1829 0.460938ZM17.7963 15.5143C17.9213 15.6382 18.0204 15.7857 18.0881 15.9482C18.1558 16.1106 18.1907 16.2849 18.1907 16.4609C18.1907 16.637 18.1558 16.8112 18.0881 16.9737C18.0204 17.1362 17.9213 17.2837 17.7963 17.4076C17.6723 17.5326 17.5249 17.6318 17.3624 17.6995C17.1999 17.7672 17.0256 17.802 16.8496 17.802C16.6736 17.802 16.4993 17.7672 16.3368 17.6995C16.1744 17.6318 16.0269 17.5326 15.9029 17.4076L14.1829 15.6743L12.4629 17.4076C12.339 17.5326 12.1915 17.6318 12.0291 17.6995C11.8666 17.7672 11.6923 17.802 11.5163 17.802C11.3403 17.802 11.166 17.7672 11.0035 17.6995C10.841 17.6318 10.6936 17.5326 10.5696 17.4076C10.4446 17.2837 10.3455 17.1362 10.2778 16.9737C10.2101 16.8112 10.1752 16.637 10.1752 16.4609C10.1752 16.2849 10.2101 16.1106 10.2778 15.9482C10.3455 15.7857 10.4446 15.6382 10.5696 15.5143L12.3029 13.7943L10.5696 12.0743C10.3185 11.8232 10.1775 11.4827 10.1775 11.1276C10.1775 10.7725 10.3185 10.432 10.5696 10.1809C10.8207 9.92987 11.1612 9.78882 11.5163 9.78882C11.8714 9.78882 12.2119 9.92987 12.4629 10.1809L14.1829 11.9143L15.9029 10.1809C16.154 9.92987 16.4945 9.78882 16.8496 9.78882C17.2047 9.78882 17.5452 9.92987 17.7963 10.1809C18.0474 10.432 18.1884 10.7725 18.1884 11.1276C18.1884 11.4827 18.0474 11.8232 17.7963 12.0743L16.0629 13.7943L17.7963 15.5143Z" fill="#CCCCCC"/>
</svg>
