<svg width="57" height="56" viewBox="0 0 57 56" fill="none" xmlns="http://www.w3.org/2000/svg">
<path d="M21.5 45.5H16.25C13.0011 45.5 9.88526 44.2094 7.58794 41.9121C5.29062 39.6147 4 36.4989 4 33.25C4 30.0011 5.29062 26.8853 7.58794 24.5879C9.88526 22.2906 13.0011 21 16.25 21C17.2749 20.9996 18.296 21.1245 19.2906 21.3719" stroke="#6CCF00" stroke-width="2" stroke-linecap="round" stroke-linejoin="round"/>
<path d="M18 28C18 25.2271 18.6589 22.4939 19.9225 20.0256C21.1861 17.5573 23.0181 15.4246 25.2676 13.8033C27.5171 12.1819 30.1197 11.1183 32.8609 10.7002C35.602 10.282 38.4034 10.5212 41.034 11.398C43.6646 12.2749 46.0492 13.7644 47.9912 15.7436C49.9333 17.7229 51.3772 20.1353 52.204 22.7821C53.0308 25.4288 53.2168 28.2342 52.7467 30.967C52.2765 33.6997 51.1637 36.2817 49.5 38.5" stroke="#6CCF00" stroke-width="2" stroke-linecap="round" stroke-linejoin="round"/>
<path d="M26.3345 35.4156L33.7501 28L41.1657 35.4156" stroke="#6CCF00" stroke-width="2" stroke-linecap="round" stroke-linejoin="round"/>
<path d="M33.75 45.5V28" stroke="#6CCF00" stroke-width="2" stroke-linecap="round" stroke-linejoin="round"/>
</svg>
