<svg width="217" height="247" viewBox="0 0 217 247" fill="none" xmlns="http://www.w3.org/2000/svg">
<path fill-rule="evenodd" clip-rule="evenodd" d="M194.573 246.964C200.711 246.889 204.365 246.553 207.312 245.052C210.651 243.351 213.365 240.637 215.066 237.298C217 233.503 217 228.534 217 218.597V216.771H214.043V218.597C214.043 223.615 214.041 227.2 213.811 230.01C213.584 232.786 213.15 234.544 212.431 235.956C211.014 238.738 208.752 241 205.97 242.417C204.558 243.136 202.8 243.57 200.024 243.797C198.478 243.923 196.697 243.981 194.573 244.007V246.964ZM194.573 2.96363C196.697 2.98982 198.478 3.04734 200.024 3.17366C202.8 3.40045 204.558 3.83418 205.97 4.5533C208.752 5.97085 211.014 8.23277 212.431 11.0149C213.15 12.4262 213.584 14.1847 213.811 16.9605C214.041 19.7708 214.043 23.3559 214.043 28.3731V30.1982H217V28.3731C217 18.4362 217 13.4678 215.066 9.67236C213.365 6.33384 210.651 3.61953 207.312 1.91847C204.365 0.416888 200.711 0.0812432 194.573 0.00621727V2.96363ZM22.9999 1.62899e-05V2.95739C20.6199 2.98017 18.6589 3.03615 16.9759 3.17366C14.2001 3.40045 12.4416 3.83418 11.0303 4.5533C8.24815 5.97085 5.98623 8.23277 4.56868 11.0149C3.84956 12.4262 3.41584 14.1847 3.18905 16.9605C2.95943 19.7708 2.95713 23.3559 2.95713 28.3731V30.1982H0V28.3731C0 18.4362 0 13.4678 1.93385 9.67236C3.63491 6.33384 6.34922 3.61953 9.68774 1.91847C12.7253 0.370775 16.5141 0.0617275 22.9999 1.62899e-05ZM22.9999 244.013V246.97C16.5141 246.909 12.7253 246.6 9.68774 245.052C6.34922 243.351 3.63491 240.637 1.93385 237.298C0 233.503 0 228.534 0 218.597V216.771H2.95713V218.597C2.95713 223.615 2.95943 227.2 3.18905 230.01C3.41584 232.786 3.84956 234.544 4.56868 235.956C5.98623 238.738 8.24815 241 11.0303 242.417C12.4416 243.136 14.2001 243.57 16.9759 243.797C18.6589 243.934 20.6199 243.99 22.9999 244.013Z" fill="#4BD06D"/>
</svg>
