<svg width="33" height="32" viewBox="0 0 33 32" fill="none" xmlns="http://www.w3.org/2000/svg">
<path opacity="0.2" d="M3.02498 9.48745C10.9625 3.49995 22.0375 3.49995 29.975 9.48745C30.0836 9.57023 30.1742 9.67438 30.241 9.79349C30.3079 9.9126 30.3496 10.0441 30.3637 10.18C30.3777 10.3159 30.3638 10.4532 30.3227 10.5834C30.2817 10.7137 30.2144 10.8342 30.125 10.9375L17.25 26.1124C17.1564 26.2221 17.0399 26.3099 16.9088 26.3697C16.7776 26.4295 16.635 26.4599 16.4908 26.4587C16.3467 26.4575 16.2045 26.4248 16.0744 26.3628C15.9443 26.3008 15.8293 26.2111 15.7375 26.1L2.87498 10.95C2.78527 10.8456 2.71776 10.7241 2.67657 10.5929C2.63538 10.4616 2.62137 10.3233 2.63541 10.1864C2.64945 10.0496 2.69123 9.917 2.75821 9.79683C2.82519 9.67665 2.91596 9.57138 3.02498 9.48745Z" fill="#6CCF00"/>
<path d="M3.02498 9.48745C10.9625 3.49995 22.0375 3.49995 29.975 9.48745C30.0836 9.57023 30.1742 9.67438 30.241 9.79349C30.3079 9.9126 30.3496 10.0441 30.3637 10.18C30.3777 10.3159 30.3638 10.4532 30.3227 10.5834C30.2817 10.7137 30.2144 10.8342 30.125 10.9375L17.25 26.1124C17.1564 26.2221 17.0399 26.3099 16.9088 26.3697C16.7776 26.4295 16.635 26.4599 16.4908 26.4587C16.3467 26.4575 16.2045 26.4248 16.0744 26.3628C15.9443 26.3008 15.8293 26.2111 15.7375 26.1L2.87498 10.95C2.78527 10.8456 2.71776 10.7241 2.67657 10.5929C2.63538 10.4616 2.62137 10.3233 2.63541 10.1864C2.64945 10.0496 2.69123 9.917 2.75821 9.79683C2.82519 9.67665 2.91596 9.57138 3.02498 9.48745V9.48745Z" stroke="#6CCF00" stroke-width="2" stroke-linecap="round" stroke-linejoin="round"/>
</svg>
