<svg width="25" height="24" viewBox="0 0 25 24" fill="none" xmlns="http://www.w3.org/2000/svg">
<g clip-path="url(#clip0_11344_34903)">
<path d="M8.91406 5H6.91406C6.38363 5 5.87492 5.21071 5.49985 5.58579C5.12478 5.96086 4.91406 6.46957 4.91406 7V19C4.91406 19.5304 5.12478 20.0391 5.49985 20.4142C5.87492 20.7893 6.38363 21 6.91406 21H12.6111" stroke="#6CCF00" stroke-width="1.75" stroke-linecap="round" stroke-linejoin="round"/>
<path d="M18.9141 14V18H22.9141" stroke="#6CCF00" stroke-width="1.75" stroke-linecap="round" stroke-linejoin="round"/>
<path d="M18.9141 11V7C18.9141 6.46957 18.7033 5.96086 18.3283 5.58579C17.9532 5.21071 17.4445 5 16.9141 5H14.9141" stroke="#6CCF00" stroke-width="1.75" stroke-linecap="round" stroke-linejoin="round"/>
<path d="M12.9141 3H10.9141C9.80949 3 8.91406 3.89543 8.91406 5C8.91406 6.10457 9.80949 7 10.9141 7H12.9141C14.0186 7 14.9141 6.10457 14.9141 5C14.9141 3.89543 14.0186 3 12.9141 3Z" stroke="#6CCF00" stroke-width="1.75" stroke-linecap="round" stroke-linejoin="round"/>
<path d="M18.9141 22C21.1232 22 22.9141 20.2091 22.9141 18C22.9141 15.7909 21.1232 14 18.9141 14C16.7049 14 14.9141 15.7909 14.9141 18C14.9141 20.2091 16.7049 22 18.9141 22Z" stroke="#6CCF00" stroke-width="1.75" stroke-linecap="round" stroke-linejoin="round"/>
<path d="M8.91406 11H12.9141" stroke="#6CCF00" stroke-width="1.75" stroke-linecap="round" stroke-linejoin="round"/>
<path d="M8.91406 15H11.9141" stroke="#6CCF00" stroke-width="1.75" stroke-linecap="round" stroke-linejoin="round"/>
</g>
<defs>
<clipPath id="clip0_11344_34903">
<rect width="24" height="24" fill="white" transform="translate(0.914062)"/>
</clipPath>
</defs>
</svg>
