<svg width="60" height="60" viewBox="0 0 60 60" fill="none" xmlns="http://www.w3.org/2000/svg">
<rect width="60" height="60" rx="30" fill="#F4F4F4"/>
<rect x="7" y="7" width="45" height="45" rx="22.5" fill="#BABABA"/>
<path d="M39.3333 20.6667C39.7754 20.6667 40.1993 20.8423 40.5118 21.1548C40.8244 21.4674 41 21.8913 41 22.3333V35.6667C41 36.1087 40.8244 36.5326 40.5118 36.8452C40.1993 37.1577 39.7754 37.3333 39.3333 37.3333H19.3333C18.8913 37.3333 18.4674 37.1577 18.1548 36.8452C17.8423 36.5326 17.6667 36.1087 17.6667 35.6667V22.3333C17.6667 21.8913 17.8423 21.4674 18.1548 21.1548C18.4674 20.8423 18.8913 20.6667 19.3333 20.6667H39.3333ZM19.3333 19C18.4493 19 17.6014 19.3512 16.9763 19.9763C16.3512 20.6014 16 21.4493 16 22.3333V35.6667C16 36.5507 16.3512 37.3986 16.9763 38.0237C17.6014 38.6488 18.4493 39 19.3333 39H39.3333C40.2174 39 41.0652 38.6488 41.6904 38.0237C42.3155 37.3986 42.6667 36.5507 42.6667 35.6667V22.3333C42.6667 21.4493 42.3155 20.6014 41.6904 19.9763C41.0652 19.3512 40.2174 19 39.3333 19H19.3333Z" fill="white"/>
<path d="M19.334 24.8411C19.334 24.6201 19.4218 24.4082 19.5781 24.2519C19.7343 24.0956 19.9463 24.0078 20.1673 24.0078H23.5007C23.7217 24.0078 23.9336 24.0956 24.0899 24.2519C24.2462 24.4082 24.334 24.6201 24.334 24.8411V26.5078C24.334 26.7288 24.2462 26.9408 24.0899 27.0971C23.9336 27.2533 23.7217 27.3411 23.5007 27.3411H20.1673C19.9463 27.3411 19.7343 27.2533 19.5781 27.0971C19.4218 26.9408 19.334 26.7288 19.334 26.5078V24.8411ZM19.334 29.8411C19.334 29.6201 19.4218 29.4082 19.5781 29.2519C19.7343 29.0956 19.9463 29.0078 20.1673 29.0078H28.5007C28.7217 29.0078 28.9336 29.0956 29.0899 29.2519C29.2462 29.4082 29.334 29.6201 29.334 29.8411C29.334 30.0622 29.2462 30.2741 29.0899 30.4304C28.9336 30.5867 28.7217 30.6745 28.5007 30.6745H20.1673C19.9463 30.6745 19.7343 30.5867 19.5781 30.4304C19.4218 30.2741 19.334 30.0622 19.334 29.8411ZM19.334 33.1745C19.334 32.9535 19.4218 32.7415 19.5781 32.5852C19.7343 32.4289 19.9463 32.3411 20.1673 32.3411H21.834C22.055 32.3411 22.267 32.4289 22.4232 32.5852C22.5795 32.7415 22.6673 32.9535 22.6673 33.1745C22.6673 33.3955 22.5795 33.6075 22.4232 33.7637C22.267 33.92 22.055 34.0078 21.834 34.0078H20.1673C19.9463 34.0078 19.7343 33.92 19.5781 33.7637C19.4218 33.6075 19.334 33.3955 19.334 33.1745ZM24.334 33.1745C24.334 32.9535 24.4218 32.7415 24.5781 32.5852C24.7343 32.4289 24.9463 32.3411 25.1673 32.3411H26.834C27.055 32.3411 27.267 32.4289 27.4232 32.5852C27.5795 32.7415 27.6673 32.9535 27.6673 33.1745C27.6673 33.3955 27.5795 33.6075 27.4232 33.7637C27.267 33.92 27.055 34.0078 26.834 34.0078H25.1673C24.9463 34.0078 24.7343 33.92 24.5781 33.7637C24.4218 33.6075 24.334 33.3955 24.334 33.1745ZM29.334 33.1745C29.334 32.9535 29.4218 32.7415 29.5781 32.5852C29.7343 32.4289 29.9463 32.3411 30.1673 32.3411H31.834C32.055 32.3411 32.267 32.4289 32.4232 32.5852C32.5795 32.7415 32.6673 32.9535 32.6673 33.1745C32.6673 33.3955 32.5795 33.6075 32.4232 33.7637C32.267 33.92 32.055 34.0078 31.834 34.0078H30.1673C29.9463 34.0078 29.7343 33.92 29.5781 33.7637C29.4218 33.6075 29.334 33.3955 29.334 33.1745ZM34.334 33.1745C34.334 32.9535 34.4218 32.7415 34.5781 32.5852C34.7343 32.4289 34.9463 32.3411 35.1673 32.3411H36.834C37.055 32.3411 37.267 32.4289 37.4232 32.5852C37.5795 32.7415 37.6673 32.9535 37.6673 33.1745C37.6673 33.3955 37.5795 33.6075 37.4232 33.7637C37.267 33.92 37.055 34.0078 36.834 34.0078H35.1673C34.9463 34.0078 34.7343 33.92 34.5781 33.7637C34.4218 33.6075 34.334 33.3955 34.334 33.1745Z" fill="white"/>
</svg>
