<svg width="60" height="60" viewBox="0 0 60 60" fill="none" xmlns="http://www.w3.org/2000/svg">
<rect width="60" height="60" rx="30" fill="#F4F4F4"/>
<rect x="7" y="7" width="45" height="45" rx="22.5" fill="#BABABA"/>
<path d="M29.0002 24.295C29.3292 24.295 29.6447 24.1643 29.8773 23.9317C30.1099 23.6991 30.2406 23.3836 30.2406 23.0546C30.2406 22.7256 30.1099 22.4102 29.8773 22.1775C29.6447 21.9449 29.3292 21.8143 29.0002 21.8143C28.6713 21.8143 28.3558 21.9449 28.1232 22.1775C27.8906 22.4102 27.7599 22.7256 27.7599 23.0546C27.7599 23.3836 27.8906 23.6991 28.1232 23.9317C28.3558 24.1643 28.6713 24.295 29.0002 24.295ZM30.2174 18.4322C29.8734 18.1526 29.4436 18 29.0002 18C28.5569 18 28.1271 18.1526 27.783 18.4322L19.5107 25.1549C18.5052 25.9752 19.084 27.6026 20.3806 27.6026H20.7312V34.5485C19.7488 35.0496 19.0774 36.07 19.0774 37.2492V38.3523C19.0774 38.5716 19.1645 38.7819 19.3196 38.937C19.4747 39.0921 19.685 39.1792 19.9043 39.1792H38.0961C38.3155 39.1792 38.5258 39.0921 38.6809 38.937C38.8359 38.7819 38.923 38.5716 38.923 38.3523V37.2492C38.923 36.0717 38.2516 35.0496 37.2692 34.5485V27.6026H37.6198C38.9164 27.6026 39.4953 25.9736 38.4881 25.1549L30.2191 18.4306L30.2174 18.4322ZM28.8282 19.7156C28.8774 19.6758 28.9387 19.6542 29.0019 19.6542C29.0651 19.6542 29.1264 19.6758 29.1755 19.7156L36.8409 25.9488H21.1579L28.8282 19.7139V19.7156ZM35.6154 34.2178H33.9616V27.6026H35.6154V34.2178ZM32.3078 34.2178H29.8271V27.6026H32.3078V34.2178ZM28.1733 34.2178H25.6926V27.6026H28.1733V34.2178ZM35.8916 35.8716C36.6524 35.8716 37.2692 36.4885 37.2692 37.2492V37.5254H20.7312V37.2492C20.7312 36.4885 21.3481 35.8716 22.1088 35.8716H35.8916ZM24.0388 34.2178H22.385V27.6026H24.0388V34.2178Z" fill="white"/>
</svg>
