<svg width="32" height="32" viewBox="0 0 32 32" fill="none" xmlns="http://www.w3.org/2000/svg">
<path opacity="0.2" d="M16.3825 8.61965L8.62205 16.3801C7.45048 17.5517 7.45048 19.4512 8.62205 20.6228L11.3798 23.3805C12.5513 24.5521 14.4508 24.5521 15.6224 23.3805L23.3829 15.62C24.5545 14.4484 24.5545 12.5489 23.3829 11.3774L20.6252 8.61965C19.4536 7.44808 17.5541 7.44808 16.3825 8.61965Z" fill="#0500E8"/>
<path opacity="0.2" d="M16.3825 8.61965L8.62205 16.3801C7.45048 17.5517 7.45048 19.4512 8.62205 20.6228L11.3798 23.3805C12.5513 24.5521 14.4508 24.5521 15.6224 23.3805L23.3829 15.62C24.5545 14.4484 24.5545 12.5489 23.3829 11.3774L20.6252 8.61965C19.4536 7.44808 17.5541 7.44808 16.3825 8.61965Z" fill="#0500E8"/>
<path d="M10 22L3 29" stroke="#0500E8" stroke-width="2" stroke-linecap="round" stroke-linejoin="round"/>
<path d="M29 3L22 10" stroke="#0500E8" stroke-width="2" stroke-linecap="round" stroke-linejoin="round"/>
<path d="M16.3825 8.61965L8.62205 16.3801C7.45048 17.5517 7.45048 19.4512 8.62205 20.6228L11.3798 23.3805C12.5513 24.5521 14.4508 24.5521 15.6224 23.3805L23.3829 15.62C24.5545 14.4484 24.5545 12.5489 23.3829 11.3774L20.6252 8.61965C19.4536 7.44808 17.5541 7.44808 16.3825 8.61965Z" stroke="#0500E8" stroke-width="2" stroke-linecap="round" stroke-linejoin="round"/>
<path d="M11.5 11.5L20.5 20.5" stroke="#0500E8" stroke-width="2" stroke-linecap="round" stroke-linejoin="round"/>
<path d="M28 20L25 19" stroke="#0500E8" stroke-width="2" stroke-linecap="round" stroke-linejoin="round"/>
<path d="M7 13L4 12" stroke="#0500E8" stroke-width="2" stroke-linecap="round" stroke-linejoin="round"/>
<path d="M12 4L13 7" stroke="#0500E8" stroke-width="2" stroke-linecap="round" stroke-linejoin="round"/>
<path d="M19 25L20 28" stroke="#0500E8" stroke-width="2" stroke-linecap="round" stroke-linejoin="round"/>
</svg>
