<svg width="17" height="16" viewBox="0 0 17 16" fill="none" xmlns="http://www.w3.org/2000/svg">
<path d="M3.5 2.5L13.5 13.5" stroke="#193265" stroke-width="1.5" stroke-linecap="round" stroke-linejoin="round"/>
<path d="M10.1812 9.85002C9.72244 10.2703 9.12218 10.5024 8.49998 10.5C7.99539 10.5 7.50263 10.3472 7.08648 10.0619C6.67033 9.77654 6.35026 9.37194 6.16835 8.90129C5.98645 8.43063 5.95122 7.91595 6.0673 7.4249C6.18338 6.93384 6.44533 6.48941 6.81873 6.15002" stroke="#193265" stroke-width="1.5" stroke-linecap="round" stroke-linejoin="round"/>
<path d="M5.125 4.28748C2.575 5.57498 1.5 7.99998 1.5 7.99998C1.5 7.99998 3.5 12.5 8.5 12.5C9.67161 12.5095 10.8286 12.2396 11.875 11.7125" stroke="#193265" stroke-width="1.5" stroke-linecap="round" stroke-linejoin="round"/>
<path d="M13.5375 10.5688C14.9 9.35002 15.5 8.00002 15.5 8.00002C15.5 8.00002 13.5 3.50002 8.50005 3.50002C8.06658 3.49916 7.63382 3.5347 7.2063 3.60627" stroke="#193265" stroke-width="1.5" stroke-linecap="round" stroke-linejoin="round"/>
<path d="M8.96875 5.54376C9.5004 5.6445 9.98487 5.91543 10.349 6.31567C10.7132 6.71591 10.9373 7.22373 10.9875 7.76251" stroke="#193265" stroke-width="1.5" stroke-linecap="round" stroke-linejoin="round"/>
</svg>
