<svg xmlns="http://www.w3.org/2000/svg" width="252" height="220" viewBox="0 0 252 220" fill="none">
  <path d="M215.351 131.575C213.495 125.031 205 125.674 205 125.674L205.214 130.219C210.14 129.362 213.186 135.121 213.186 135.121L215.351 131.575Z" fill="#102572"/>
  <path d="M17.0487 145.324C15.2164 138.78 6.69727 139.398 6.69727 139.398L6.93521 143.967C11.8611 143.111 14.907 148.869 14.907 148.869L17.0487 145.324Z" fill="#E0E0E0"/>
  <path d="M116.446 54.7796C126.322 57.7779 132.461 46.4033 132.461 46.4033L126.465 42.9766C123.514 49.9489 113.662 49.1398 113.662 49.1398L116.446 54.7796Z" fill="#E0E0E0"/>
  <path d="M61.6908 67.0391C57.0981 67.5388 56.5508 73.2975 56.5508 73.2975L59.6205 73.6545C59.6205 70.2754 63.8325 68.8952 63.8325 68.8952L61.6908 67.0391Z" fill="#6CCF00"/>
  <path d="M250.97 109.208C251.636 104.639 246.21 102.664 246.21 102.664L245.092 105.543C248.376 106.376 248.685 110.802 248.685 110.802L250.97 109.208Z" fill="#E0E0E0"/>
  <path d="M88.4871 6.9034C89.1534 2.33448 83.7278 0.359375 83.7278 0.359375L82.6094 3.26254C85.8933 4.09542 86.2026 8.49775 86.2026 8.49775L88.4871 6.9034Z" fill="#102572"/>
  <path d="M0.0490357 80.5999C-0.760043 87.7388 8.71094 89.4998 8.71094 89.4998L10.4243 84.7405C4.73694 84.217 3.92783 77.6016 3.92783 77.6016L0.0490357 80.5999Z" fill="#102572"/>
  <path d="M186.242 54.6402C190.859 54.9019 192.334 49.3098 192.334 49.3098L189.359 48.4531C188.812 51.7846 184.434 52.4747 184.434 52.4747L186.242 54.6402Z" fill="#6CCF00"/>
  <path d="M223.443 73.4354C222.206 73.7824 220.916 73.9033 219.636 73.7924C218.355 73.906 217.065 73.785 215.828 73.4354C218.341 72.9278 220.93 72.9278 223.443 73.4354Z" fill="#E0E0E0"/>
  <path d="M227.486 63.0859C227.962 65.6339 227.962 68.248 227.486 70.796C226.979 68.2511 226.979 65.6309 227.486 63.0859Z" fill="#E0E0E0"/>
  <path d="M231.77 73.1796C233.007 72.8326 234.297 72.7116 235.577 72.8226C236.857 72.709 238.148 72.83 239.384 73.1796C236.872 73.6872 234.282 73.6872 231.77 73.1796Z" fill="#E0E0E0"/>
  <path d="M227.75 83.5542C227.242 81.0012 227.242 78.3733 227.75 75.8203C228.226 78.3763 228.226 80.9982 227.75 83.5542Z" fill="#E0E0E0"/>
  <path d="M233.889 79.2202C233.747 79.3392 233.009 78.7205 232.247 77.84C231.486 76.9595 231.034 76.1028 231.177 75.9839C231.319 75.8649 232.081 76.4598 232.819 77.3641C233.556 78.2683 234.056 78.9584 233.889 79.2202Z" fill="#E0E0E0"/>
  <path d="M233.531 67.3203C233.674 67.4869 233.175 68.2246 232.389 69.0099C231.604 69.7952 230.866 70.3187 230.724 70.1759C230.581 70.0331 231.081 69.2716 231.866 68.4864C232.651 67.7011 233.389 67.3203 233.531 67.3203Z" fill="#E0E0E0"/>
  <path d="M224.822 70.3461C224.68 70.5126 223.966 70.1319 223.228 69.5132C222.49 68.8945 222.014 68.2757 222.133 68.133C222.252 67.9902 222.966 68.3471 223.704 68.942C224.442 69.5369 224.941 70.2033 224.822 70.3461Z" fill="#E0E0E0"/>
  <path d="M224.464 75.5313C224.631 75.6503 224.179 76.388 223.465 77.1733C222.751 77.9586 222.061 78.4583 221.918 78.3155C221.775 78.1727 222.204 77.435 222.917 76.6735C223.631 75.912 224.321 75.3885 224.464 75.5313Z" fill="#E0E0E0"/>
  <path d="M16.1285 52.2108C13.6156 52.7184 11.0266 52.7184 8.51367 52.2108C9.75102 51.8638 11.0408 51.7429 12.3211 51.8538C13.6014 51.7403 14.8917 51.8612 16.1285 52.2108Z" fill="#102572"/>
  <path d="M213.325 186.55C212.07 186.804 210.777 186.804 209.521 186.55C210.14 186.377 210.784 186.317 211.423 186.372C212.063 186.315 212.707 186.376 213.325 186.55Z" fill="#6CCF00"/>
  <path d="M20.1718 41.8594C20.6796 44.4123 20.6796 47.0403 20.1718 49.5932C19.6641 47.0403 19.6641 44.4123 20.1718 41.8594Z" fill="#102572"/>
  <path d="M215.345 181.375C215.598 182.65 215.598 183.963 215.345 185.238C215.091 183.963 215.091 182.65 215.345 181.375Z" fill="#6CCF00"/>
  <path d="M24.4805 51.9745C26.9934 51.4668 29.5824 51.4668 32.0953 51.9745C29.5824 52.4822 26.9934 52.4822 24.4805 51.9745Z" fill="#102572"/>
  <path d="M217.498 186.432C218.753 186.179 220.046 186.179 221.301 186.432C220.046 186.686 218.753 186.686 217.498 186.432Z" fill="#6CCF00"/>
  <path d="M20.4355 62.3272C19.9278 59.7823 19.9278 57.1621 20.4355 54.6172C20.9432 57.1621 20.9432 59.7823 20.4355 62.3272Z" fill="#102572"/>
  <path d="M215.475 191.601C215.222 190.33 215.222 189.021 215.475 187.75C215.729 189.021 215.729 190.33 215.475 191.601Z" fill="#6CCF00"/>
  <path d="M26.5984 57.8031C26.4319 57.9459 25.6942 57.3272 24.9565 56.4229C24.2188 55.5186 23.7191 54.7096 23.8856 54.5668C24.0522 54.424 24.7661 55.0665 25.5276 55.947C26.2891 56.8274 26.7412 57.8031 26.5984 57.8031Z" fill="#102572"/>
  <path d="M218.555 189.337C218.471 189.409 218.103 189.1 217.734 188.648C217.366 188.196 217.116 187.792 217.2 187.721C217.283 187.65 217.639 187.97 218.02 188.41C218.4 188.85 218.626 189.337 218.555 189.337Z" fill="#6CCF00"/>
  <path d="M26.2425 46.1454C26.3852 46.2881 25.8617 47.0496 25.1002 47.8349C24.3388 48.6202 23.5772 49.1199 23.4345 48.9771C23.2917 48.8343 23.7914 48.0966 24.5767 47.3114C25.362 46.5261 26.0997 45.9074 26.2425 46.1454Z" fill="#102572"/>
  <path d="M218.378 183.518C218.449 183.589 218.187 183.97 217.807 184.362C217.427 184.754 217.046 185.004 216.975 184.932C216.904 184.861 217.153 184.493 217.546 184.1C217.938 183.708 218.306 183.399 218.378 183.518Z" fill="#6CCF00"/>
  <path d="M17.508 49.1432C17.389 49.286 16.6751 48.9291 15.9374 48.3104C15.1997 47.6917 14.7 47.073 14.8427 46.9064C14.9855 46.7398 15.6756 47.1206 16.4133 47.7393C17.151 48.358 17.6507 48.9767 17.508 49.1432Z" fill="#102572"/>
  <path d="M214.013 185.012C213.954 185.083 213.597 184.905 213.229 184.596C212.86 184.287 212.611 183.978 212.682 183.895C212.753 183.811 213.098 184.002 213.467 184.311C213.835 184.62 214.085 184.929 214.013 185.012Z" fill="#6CCF00"/>
  <path d="M17.1757 54.304C17.3185 54.4467 16.8663 55.1844 16.1762 55.9697C15.4861 56.755 14.7722 57.2547 14.6057 57.112C14.4391 56.9692 14.915 56.2315 15.6051 55.47C16.2952 54.7085 17.0091 54.1612 17.1757 54.304Z" fill="#102572"/>
  <path d="M213.847 187.597C213.919 187.669 213.693 188.037 213.348 188.429C213.003 188.822 212.647 189.071 212.564 189C212.48 188.928 212.718 188.56 213.063 188.18C213.407 187.799 213.764 187.526 213.847 187.597Z" fill="#6CCF00"/>
  <path d="M125.299 219.004C159.706 219.004 187.598 191.112 187.598 156.705C187.598 122.298 159.706 94.4062 125.299 94.4062C90.8922 94.4062 63 122.298 63 156.705C63 191.112 90.8922 219.004 125.299 219.004Z" fill="#6CCF00"/>
  <path d="M155.974 130.411C156.759 131.054 145.123 146.712 129.988 165.368L120.803 176.505L119.542 178.028L118.209 176.648C106.311 164.44 98.2915 155.397 98.8626 154.826C99.4338 154.255 108.5 162.322 120.684 174.149L118.114 174.411L127.109 163.155C142.244 144.38 155.165 129.769 155.974 130.411Z" fill="white"/>
</svg>