<svg width="40" height="40" viewBox="0 0 40 40" fill="none" xmlns="http://www.w3.org/2000/svg">
<rect width="40" height="40" rx="20" fill="#D5F7E5"/>
<path d="M20.0003 7C16.5546 7.00661 13.2518 8.37837 10.8153 10.8149C8.37871 13.2515 7.00695 16.5542 7.00034 20C7.00119 21.2474 6.78984 22.4859 6.37534 23.6625C6.28702 23.9145 6.30183 24.1912 6.41655 24.4323C6.53127 24.6735 6.7366 24.8595 6.98784 24.95C7.09278 24.984 7.20252 25.0009 7.31284 25C7.51994 25 7.72205 24.9365 7.89192 24.818C8.06179 24.6995 8.19125 24.5318 8.26284 24.3375C8.75215 22.9438 9.00152 21.4771 9.00034 20C9.00034 17.0826 10.1593 14.2847 12.2222 12.2218C14.2851 10.1589 17.083 9 20.0003 9C22.9177 9 25.7156 10.1589 27.7785 12.2218C29.8414 14.2847 31.0003 17.0826 31.0003 20C30.9998 22.2869 30.7779 24.5684 30.3378 26.8125C30.2898 27.0724 30.3452 27.3408 30.4924 27.5603C30.6395 27.7799 30.8667 27.9332 31.1253 27.9875H31.3253C31.5556 27.9888 31.7791 27.9095 31.9572 27.7634C32.1352 27.6173 32.2566 27.4136 32.3003 27.1875C32.7644 24.8198 32.9989 22.4128 33.0003 20C32.997 16.5532 31.6263 13.2485 29.1891 10.8113C26.7518 8.37401 23.4471 7.00331 20.0003 7Z" fill="#6CCF00"/>
<path d="M15.6246 14.5376C15.8318 14.3718 15.9647 14.1306 15.994 13.8668C16.0233 13.6031 15.9467 13.3386 15.7809 13.1314C15.6151 12.9242 15.3739 12.7913 15.1101 12.762C14.8464 12.7327 14.5818 12.8093 14.3746 12.9751C13.3188 13.8158 12.4668 14.8844 11.8823 16.1009C11.2979 17.3175 10.9961 18.6505 10.9996 20.0001C11.007 22.3166 10.4719 24.6026 9.43714 26.6751C9.32337 26.9128 9.30673 27.1854 9.39075 27.4352C9.47477 27.6849 9.65285 27.892 9.88714 28.0126C10.027 28.0814 10.1813 28.1157 10.3371 28.1126C10.5232 28.1125 10.7056 28.0611 10.8644 27.964C11.0232 27.867 11.1521 27.7281 11.2371 27.5626C12.3998 25.2113 13.003 22.6231 12.9996 20.0001C12.999 18.9509 13.2347 17.9151 13.6891 16.9694C14.1435 16.0238 14.8051 15.1926 15.6246 14.5376Z" fill="#6CCF00"/>
<path d="M19.9998 19C19.7346 19 19.4802 19.1054 19.2927 19.2929C19.1051 19.4804 18.9998 19.7348 18.9998 20C19.0041 23.8966 18.0146 27.7299 16.1248 31.1375C15.9994 31.3717 15.9711 31.6458 16.0459 31.9006C16.1207 32.1555 16.2927 32.3708 16.5248 32.5C16.6692 32.5831 16.8331 32.6263 16.9998 32.625C17.1781 32.6253 17.3532 32.578 17.5071 32.4879C17.6609 32.3978 17.7879 32.2682 17.8748 32.1125C19.9271 28.4055 21.0025 24.2372 20.9998 20C20.9998 19.7348 20.8944 19.4804 20.7069 19.2929C20.5193 19.1054 20.265 19 19.9998 19Z" fill="#6CCF00"/>
<path d="M20 15C18.6749 15.0033 17.4051 15.5311 16.4681 16.4681C15.5311 17.4051 15.0033 18.6749 15 20C15 20.2652 15.1054 20.5196 15.2929 20.7071C15.4804 20.8946 15.7348 21 16 21C16.2652 21 16.5196 20.8946 16.7071 20.7071C16.8946 20.5196 17 20.2652 17 20C17 19.2044 17.3161 18.4413 17.8787 17.8787C18.4413 17.3161 19.2044 17 20 17C20.7956 17 21.5587 17.3161 22.1213 17.8787C22.6839 18.4413 23 19.2044 23 20C23.0099 23.976 22.1345 27.9043 20.4375 31.5C20.3804 31.6189 20.3474 31.748 20.3403 31.8797C20.3333 32.0115 20.3524 32.1433 20.3966 32.2676C20.4407 32.392 20.509 32.5063 20.5976 32.6041C20.6861 32.7019 20.7932 32.7812 20.9125 32.8375C21.0464 32.8963 21.1912 32.9261 21.3375 32.925C21.5283 32.9249 21.7152 32.8708 21.8767 32.7691C22.0381 32.6674 22.1675 32.5221 22.25 32.35C24.0724 28.4886 25.0118 24.2698 25 20C24.9967 18.6749 24.4689 17.4051 23.5319 16.4681C22.5949 15.5311 21.3251 15.0033 20 15Z" fill="#6CCF00"/>
<path d="M15.8001 23.0249C15.672 22.9976 15.5397 22.996 15.411 23.0203C15.2823 23.0446 15.1597 23.0942 15.0503 23.1663C14.941 23.2385 14.8471 23.3316 14.7741 23.4404C14.7011 23.5492 14.6504 23.6714 14.6251 23.7999C14.2127 25.7972 13.487 27.7167 12.4751 29.4874C12.3433 29.7164 12.3075 29.9881 12.3754 30.2434C12.4433 30.4987 12.6095 30.7167 12.8376 30.8499C12.99 30.9373 13.162 30.9846 13.3376 30.9874C13.5121 30.9844 13.6828 30.9368 13.8338 30.8493C13.9847 30.7618 14.1108 30.6373 14.2001 30.4874C15.334 28.5373 16.1365 26.4127 16.5751 24.1999C16.6025 24.0718 16.6041 23.9395 16.5798 23.8108C16.5555 23.6821 16.5058 23.5595 16.4337 23.4501C16.3616 23.3408 16.2684 23.2468 16.1597 23.1738C16.0509 23.1009 15.9287 23.0502 15.8001 23.0249Z" fill="#6CCF00"/>
<path d="M19.9996 11C19.6233 11.0001 19.2475 11.0251 18.8746 11.075C18.7352 11.0791 18.5982 11.1124 18.4725 11.1726C18.3467 11.2328 18.235 11.3186 18.1444 11.4246C18.0537 11.5305 17.9863 11.6542 17.9463 11.7878C17.9063 11.9214 17.8947 12.0618 17.9122 12.2001C17.9297 12.3385 17.976 12.4716 18.048 12.591C18.12 12.7104 18.2161 12.8134 18.3303 12.8934C18.4444 12.9734 18.5741 13.0287 18.7109 13.0557C18.8476 13.0826 18.9886 13.0807 19.1246 13.05C19.4121 13.025 19.7121 13 19.9996 13C21.8561 13 23.6365 13.7375 24.9493 15.0503C26.2621 16.363 26.9996 18.1435 26.9996 20C27.0022 21.2954 26.9229 22.5896 26.7621 23.875C26.7446 24.0048 26.7531 24.1369 26.7871 24.2634C26.8211 24.3899 26.88 24.5084 26.9603 24.6119C27.0406 24.7154 27.1406 24.802 27.2547 24.8665C27.3687 24.9309 27.4944 24.9721 27.6246 24.9875H27.7496C27.9937 24.9867 28.2294 24.8978 28.4132 24.737C28.5969 24.5762 28.7164 24.3544 28.7496 24.1125C28.9141 22.7436 28.9976 21.3662 28.9996 19.9875C28.9929 17.6037 28.0422 15.3197 26.3555 13.6353C24.6687 11.9509 22.3833 11.0033 19.9996 11Z" fill="#6CCF00"/>
<path d="M27.2379 27.0374C27.1115 27.0036 26.9796 26.9953 26.85 27.0129C26.7203 27.0305 26.5955 27.0737 26.4826 27.14C26.3698 27.2063 26.2713 27.2944 26.1928 27.3991C26.1143 27.5038 26.0574 27.623 26.0254 27.7499C25.8379 28.4624 25.6254 29.1749 25.4004 29.8749C25.3574 29.9988 25.3394 30.13 25.3476 30.2609C25.3558 30.3917 25.39 30.5197 25.4482 30.6372C25.5064 30.7547 25.5874 30.8595 25.6865 30.9454C25.7856 31.0312 25.9008 31.0965 26.0254 31.1374C26.1302 31.1723 26.2401 31.1892 26.3504 31.1874C26.5578 31.1876 26.7599 31.1224 26.9282 31.0013C27.0965 30.8801 27.2223 30.7091 27.2879 30.5124C27.5379 29.7624 27.7629 29.0124 27.9629 28.2499C28.0273 27.993 27.9871 27.721 27.8512 27.4937C27.7153 27.2664 27.4947 27.1023 27.2379 27.0374Z" fill="#6CCF00"/>
</svg>
