<svg width="17" height="16" viewBox="0 0 17 16" fill="none" xmlns="http://www.w3.org/2000/svg">
<path d="M14 5H3C2.72386 5 2.5 5.22386 2.5 5.5V7.5C2.5 7.77614 2.72386 8 3 8H14C14.2761 8 14.5 7.77614 14.5 7.5V5.5C14.5 5.22386 14.2761 5 14 5Z" stroke="#3C76F1" stroke-width="1.5" stroke-linecap="round" stroke-linejoin="round"/>
<path d="M13.5 8V12.5C13.5 12.6326 13.4473 12.7598 13.3536 12.8536C13.2598 12.9473 13.1326 13 13 13H4C3.86739 13 3.74021 12.9473 3.64645 12.8536C3.55268 12.7598 3.5 12.6326 3.5 12.5V8" stroke="#3C76F1" stroke-width="1.5" stroke-linecap="round" stroke-linejoin="round"/>
<path d="M8.5 5V13" stroke="#3C76F1" stroke-width="1.5" stroke-linecap="round" stroke-linejoin="round"/>
<path d="M11.3313 4.29374C10.6188 4.99999 8.5 4.99999 8.5 4.99999C8.5 4.99999 8.5 2.88124 9.20625 2.16874C9.48804 1.88695 9.87024 1.72864 10.2688 1.72864C10.6673 1.72864 11.0495 1.88695 11.3313 2.16874C11.613 2.45053 11.7714 2.83272 11.7714 3.23124C11.7714 3.62975 11.613 4.01195 11.3313 4.29374V4.29374Z" stroke="#3C76F1" stroke-width="1.5" stroke-linecap="round" stroke-linejoin="round"/>
<path d="M5.66886 4.29374C6.38136 4.99999 8.50011 4.99999 8.50011 4.99999C8.50011 4.99999 8.50011 2.88124 7.79386 2.16874C7.51207 1.88695 7.12988 1.72864 6.73136 1.72864C6.33285 1.72864 5.95065 1.88695 5.66886 2.16874C5.38707 2.45053 5.22876 2.83272 5.22876 3.23124C5.22876 3.62975 5.38707 4.01195 5.66886 4.29374V4.29374Z" stroke="#3C76F1" stroke-width="1.5" stroke-linecap="round" stroke-linejoin="round"/>
<path opacity="0.2" d="M13.5 8V12.5C13.5 12.6326 13.4473 12.7598 13.3536 12.8536C13.2598 12.9473 13.1326 13 13 13H4C3.86739 13 3.74021 12.9473 3.64645 12.8536C3.55268 12.7598 3.5 12.6326 3.5 12.5V8H13.5Z" fill="#3C76F1"/>
</svg>
