<svg width="25" height="24" viewBox="0 0 25 24" fill="none" xmlns="http://www.w3.org/2000/svg">
<path d="M21.3125 14.85L16.9156 12.975C16.6888 12.8733 16.4397 12.8311 16.192 12.8525C15.9443 12.8738 15.7061 12.9579 15.5 13.0969L13.1469 14.6625C11.7127 13.966 10.5516 12.8114 9.84687 11.3812L11.4031 9C11.5412 8.79363 11.6255 8.55606 11.6484 8.30884C11.6713 8.06163 11.6321 7.8126 11.5344 7.58437L9.65 3.1875C9.51851 2.89061 9.29586 2.64332 9.01435 2.48149C8.73284 2.31966 8.40711 2.25172 8.08437 2.2875C6.81837 2.45335 5.65566 3.07329 4.81243 4.03205C3.96919 4.99082 3.50281 6.22318 3.5 7.5C3.5 14.9438 9.55625 21 17 21C18.2768 20.9972 19.5092 20.5308 20.4679 19.6876C21.4267 18.8443 22.0467 17.6816 22.2125 16.4156C22.2483 16.0929 22.1803 15.7672 22.0185 15.4856C21.8567 15.2041 21.6094 14.9815 21.3125 14.85Z" fill="white"/>
</svg>
