<svg width="20" height="20" viewBox="0 0 20 20" fill="none" xmlns="http://www.w3.org/2000/svg">
<path d="M13.75 15.2087H12.4917C12.15 15.2087 11.8667 14.9253 11.8667 14.5837C11.8667 14.242 12.15 13.9587 12.4917 13.9587H13.75C15.9334 13.9587 17.7084 12.1837 17.7084 10.0003C17.7084 7.81699 15.9334 6.04199 13.75 6.04199H12.5C12.1584 6.04199 11.875 5.75866 11.875 5.41699C11.875 5.07533 12.15 4.79199 12.5 4.79199H13.75C16.625 4.79199 18.9584 7.12533 18.9584 10.0003C18.9584 12.8753 16.625 15.2087 13.75 15.2087Z" fill="#3C76F1"/>
<path d="M7.49984 15.2087H6.24984C3.37484 15.2087 1.0415 12.8753 1.0415 10.0003C1.0415 7.12533 3.37484 4.79199 6.24984 4.79199H7.49984C7.8415 4.79199 8.12484 5.07533 8.12484 5.41699C8.12484 5.75866 7.8415 6.04199 7.49984 6.04199H6.24984C4.0665 6.04199 2.2915 7.81699 2.2915 10.0003C2.2915 12.1837 4.0665 13.9587 6.24984 13.9587H7.49984C7.8415 13.9587 8.12484 14.242 8.12484 14.5837C8.12484 14.9253 7.8415 15.2087 7.49984 15.2087Z" fill="#3C76F1"/>
<path d="M13.3332 10.625H6.6665C6.32484 10.625 6.0415 10.3417 6.0415 10C6.0415 9.65833 6.32484 9.375 6.6665 9.375H13.3332C13.6748 9.375 13.9582 9.65833 13.9582 10C13.9582 10.3417 13.6748 10.625 13.3332 10.625Z" fill="#3C76F1"/>
</svg>
