<svg width="40" height="40" viewBox="0 0 40 40" fill="none" xmlns="http://www.w3.org/2000/svg">
<rect width="40" height="40" rx="20" fill="#D5F7E5"/>
<path d="M31 9H9C8.46957 9 7.96086 9.21071 7.58579 9.58579C7.21071 9.96086 7 10.4696 7 11V29C7 29.5304 7.21071 30.0391 7.58579 30.4142C7.96086 30.7893 8.46957 31 9 31H31C31.5304 31 32.0391 30.7893 32.4142 30.4142C32.7893 30.0391 33 29.5304 33 29V11C33 10.4696 32.7893 9.96086 32.4142 9.58579C32.0391 9.21071 31.5304 9 31 9ZM19.6375 25.9625C19.5103 25.9964 19.3776 26.0049 19.2471 25.9874C19.1166 25.97 18.9908 25.9269 18.877 25.8607C18.7632 25.7945 18.6636 25.7065 18.5838 25.6017C18.5041 25.4969 18.4459 25.3774 18.4125 25.25C18.243 24.6102 17.8667 24.0444 17.3422 23.6407C16.8177 23.237 16.1744 23.0181 15.5125 23.0181C14.8506 23.0181 14.2073 23.237 13.6828 23.6407C13.1583 24.0444 12.782 24.6102 12.6125 25.25C12.5549 25.4647 12.4282 25.6545 12.252 25.79C12.0757 25.9256 11.8598 25.9994 11.6375 26L11.3875 25.9625C11.2606 25.9305 11.1414 25.8736 11.0367 25.7951C10.932 25.7166 10.8439 25.6181 10.7776 25.5053C10.7113 25.3925 10.6681 25.2676 10.6505 25.1379C10.6329 25.0083 10.6412 24.8764 10.675 24.75C10.9794 23.568 11.7037 22.5371 12.7125 21.85C12.1451 21.2938 11.7562 20.5813 11.5953 19.8032C11.4345 19.0251 11.509 18.2168 11.8094 17.4812C12.1098 16.7456 12.6224 16.1162 13.2819 15.6731C13.9414 15.23 14.718 14.9934 15.5125 14.9934C16.307 14.9934 17.0836 15.23 17.7431 15.6731C18.4026 16.1162 18.9152 16.7456 19.2156 17.4812C19.516 18.2168 19.5905 19.0251 19.4297 19.8032C19.2688 20.5813 18.8799 21.2938 18.3125 21.85C19.3213 22.5371 20.0456 23.568 20.35 24.75C20.3838 24.8764 20.3921 25.0083 20.3745 25.1379C20.3569 25.2676 20.3137 25.3925 20.2474 25.5053C20.1811 25.6181 20.093 25.7166 19.9883 25.7951C19.8836 25.8736 19.7644 25.9305 19.6375 25.9625ZM28 23H23C22.7348 23 22.4804 22.8946 22.2929 22.7071C22.1054 22.5196 22 22.2652 22 22C22 21.7348 22.1054 21.4804 22.2929 21.2929C22.4804 21.1054 22.7348 21 23 21H28C28.2652 21 28.5196 21.1054 28.7071 21.2929C28.8946 21.4804 29 21.7348 29 22C29 22.2652 28.8946 22.5196 28.7071 22.7071C28.5196 22.8946 28.2652 23 28 23ZM28 19H23C22.7348 19 22.4804 18.8946 22.2929 18.7071C22.1054 18.5196 22 18.2652 22 18C22 17.7348 22.1054 17.4804 22.2929 17.2929C22.4804 17.1054 22.7348 17 23 17H28C28.2652 17 28.5196 17.1054 28.7071 17.2929C28.8946 17.4804 29 17.7348 29 18C29 18.2652 28.8946 18.5196 28.7071 18.7071C28.5196 18.8946 28.2652 19 28 19Z" fill="#6CCF00"/>
<path d="M15.5125 21C16.617 21 17.5125 20.1046 17.5125 19C17.5125 17.8954 16.617 17 15.5125 17C14.4079 17 13.5125 17.8954 13.5125 19C13.5125 20.1046 14.4079 21 15.5125 21Z" fill="#6CCF00"/>
</svg>
