<svg width="21" height="21" viewBox="0 0 21 21" fill="none" xmlns="http://www.w3.org/2000/svg">
<path d="M19.6563 10.1161H16.6563V1.13646C16.657 0.960654 16.6111 0.78778 16.5233 0.635349C16.4355 0.482917 16.3089 0.356341 16.1563 0.268437C16.0042 0.180867 15.8318 0.134766 15.6563 0.134766C15.4807 0.134766 15.3083 0.180867 15.1563 0.268437L12.1563 1.98454L9.15626 0.268437C9.00424 0.180867 8.83179 0.134766 8.65626 0.134766C8.48072 0.134766 8.30828 0.180867 8.15626 0.268437L5.15626 1.98454L2.15626 0.268437C2.00424 0.180867 1.83179 0.134766 1.65626 0.134766C1.48072 0.134766 1.30828 0.180867 1.15626 0.268437C1.00365 0.356341 0.877039 0.482917 0.789236 0.635349C0.701433 0.78778 0.655558 0.960654 0.656258 1.13646V17.1002C0.656258 17.894 0.972328 18.6554 1.53494 19.2167C2.09755 19.778 2.86061 20.0934 3.65626 20.0934H17.6563C18.4519 20.0934 19.215 19.778 19.7776 19.2167C20.3402 18.6554 20.6563 17.894 20.6563 17.1002V11.1138C20.6563 10.8492 20.5509 10.5954 20.3634 10.4083C20.1758 10.2212 19.9215 10.1161 19.6563 10.1161ZM3.65626 18.0979C3.39104 18.0979 3.13669 17.9928 2.94915 17.8057C2.76161 17.6186 2.65626 17.3648 2.65626 17.1002V2.86254L4.65626 3.99996C4.8106 4.08039 4.98214 4.12239 5.15626 4.12239C5.33038 4.12239 5.50192 4.08039 5.65626 3.99996L8.65626 2.28386L11.6563 3.99996C11.8106 4.08039 11.9821 4.12239 12.1563 4.12239C12.3304 4.12239 12.5019 4.08039 12.6563 3.99996L14.6563 2.86254V17.1002C14.659 17.4406 14.7198 17.778 14.8363 18.0979H3.65626ZM18.6563 17.1002C18.6563 17.3648 18.5509 17.6186 18.3634 17.8057C18.1758 17.9928 17.9215 18.0979 17.6563 18.0979C17.391 18.0979 17.1367 17.9928 16.9492 17.8057C16.7616 17.6186 16.6563 17.3648 16.6563 17.1002V12.1115H18.6563V17.1002Z" fill="#6EB100"/>
<path d="M5.65625 14.1075V8.6459C5.65621 8.52983 5.70254 8.41703 5.78796 8.32522C5.87339 8.23342 5.99307 8.1678 6.12821 8.13868C6.26335 8.10956 6.4063 8.11859 6.5346 8.16435C6.6629 8.2101 6.76928 8.29 6.83705 8.39148L10.4755 13.8371C10.5432 13.9386 10.6496 14.0185 10.7779 14.0642C10.9062 14.11 11.0492 14.119 11.1843 14.0899C11.3194 14.0608 11.4391 13.9952 11.5245 13.9034C11.61 13.8116 11.6563 13.6988 11.6563 13.5827V8.12109" stroke="#6EB100" stroke-width="1.5" stroke-linecap="round" stroke-linejoin="round"/>
<path d="M4.65625 10.1152H12.6563" stroke="#6EB100" stroke-width="1.5" stroke-linecap="round" stroke-linejoin="round"/>
<path d="M4.65625 12.1113H12.6563" stroke="#6EB100" stroke-width="1.5" stroke-linecap="round" stroke-linejoin="round"/>
</svg>
