<svg width="40" height="40" viewBox="0 0 40 40" fill="none" xmlns="http://www.w3.org/2000/svg">
<rect width="40" height="40" rx="20" fill="#D5F7E5"/>
<path d="M34 24.0001V27.0001C34 27.5305 33.7893 28.0392 33.4142 28.4143C33.0391 28.7894 32.5304 29.0001 32 29.0001H18.4375C18.3446 29.0001 18.2536 28.9742 18.1746 28.9254C18.0956 28.8766 18.0318 28.8068 17.9903 28.7237C17.9488 28.6406 17.9312 28.5477 17.9395 28.4552C17.9479 28.3627 17.9818 28.2744 18.0375 28.2001L26.25 17.5001C26.4137 17.2924 26.4909 17.0294 26.4652 16.7662C26.4396 16.503 26.3132 16.2598 26.1125 16.0876C26.0098 16.0012 25.8905 15.9367 25.762 15.8979C25.6335 15.8592 25.4984 15.847 25.365 15.8622C25.2317 15.8774 25.1028 15.9197 24.9863 15.9864C24.8698 16.0531 24.7681 16.1428 24.6875 16.2501L15.05 28.8001C15.0061 28.862 14.948 28.9124 14.8806 28.9472C14.8131 28.982 14.7384 29.0001 14.6625 29.0001H8C7.46957 29.0001 6.96086 28.7894 6.58579 28.4143C6.21071 28.0392 6 27.5305 6 27.0001V24.1376C6.00238 23.2059 6.09447 22.2766 6.275 21.3626L9.1125 22.1251L9.375 22.1501C9.60122 22.1502 9.8208 22.0737 9.99789 21.9329C10.175 21.7922 10.2991 21.5955 10.35 21.3751C10.4065 21.1168 10.3596 20.8466 10.2194 20.6223C10.0793 20.3981 9.85696 20.2376 9.6 20.1751L6.8 19.4251C8.625 14.2501 13.3625 10.4376 19 10.0376V12.9626C18.9959 13.2221 19.0904 13.4735 19.2644 13.666C19.4384 13.8586 19.6789 13.978 19.9375 14.0001C20.074 14.0086 20.2108 13.9891 20.3394 13.9427C20.468 13.8963 20.5858 13.824 20.6854 13.7303C20.7849 13.6365 20.8643 13.5234 20.9184 13.3978C20.9725 13.2722 21.0003 13.1368 21 13.0001V10.0376C24.354 10.2714 27.5105 11.7098 29.8875 14.0876C31.3913 15.5874 32.5365 17.4078 33.2375 19.4126L30.4 20.1751C30.143 20.2376 29.9207 20.3981 29.7806 20.6223C29.6404 20.8466 29.5935 21.1168 29.65 21.3751C29.7009 21.5955 29.825 21.7922 30.0021 21.9329C30.1792 22.0737 30.3988 22.1502 30.625 22.1501L30.8875 22.1251L33.75 21.3501C33.9155 22.2237 33.9992 23.1109 34 24.0001Z" fill="#6CCF00"/>
</svg>
