<svg width="16" height="17" viewBox="0 0 16 17" fill="none" xmlns="http://www.w3.org/2000/svg">
<rect y="0.5" width="16" height="16" rx="4" fill="#018C66"/>
<path d="M7.82183 6.73127L8.44058 6.11252C8.70255 5.87375 9.04645 5.7451 9.40081 5.7533C9.75518 5.7615 10.0928 5.90593 10.3434 6.15657C10.594 6.40721 10.7385 6.74479 10.7467 7.09916C10.7549 7.45352 10.6262 7.79742 10.3875 8.0594L9.50308 8.94065C9.37562 9.06858 9.22416 9.17009 9.05738 9.23936C8.8906 9.30862 8.71179 9.34428 8.5312 9.34428C8.35061 9.34428 8.1718 9.30862 8.00502 9.23936C7.83824 9.17009 7.68678 9.06858 7.55933 8.94065" stroke="white" stroke-linecap="round" stroke-linejoin="round"/>
<path d="M8.17815 10.2688L7.5594 10.8875C7.29742 11.1263 6.95352 11.2549 6.59916 11.2467C6.24479 11.2385 5.90721 11.0941 5.65657 10.8435C5.40593 10.5928 5.2615 10.2552 5.2533 9.90088C5.2451 9.54651 5.37375 9.20261 5.61252 8.94064L6.4969 8.05939C6.62435 7.93146 6.77581 7.82995 6.94259 7.76068C7.10937 7.69142 7.28818 7.65576 7.46877 7.65576C7.64936 7.65576 7.82817 7.69142 7.99495 7.76068C8.16173 7.82995 8.31319 7.93146 8.44065 8.05939" stroke="white" stroke-linecap="round" stroke-linejoin="round"/>
</svg>
