<svg width="40" height="40" viewBox="0 0 40 40" fill="none" xmlns="http://www.w3.org/2000/svg">
<rect width="40" height="40" rx="20" fill="#D5F7E5"/>
<path d="M20 23C20.8284 23 21.5 22.3284 21.5 21.5C21.5 20.6716 20.8284 20 20 20C19.1716 20 18.5 20.6716 18.5 21.5C18.5 22.3284 19.1716 23 20 23Z" fill="#6CCF00"/>
<path d="M30 14H25.5V10.5C25.5 9.04131 24.9205 7.64236 23.8891 6.61091C22.8576 5.57946 21.4587 5 20 5C18.5413 5 17.1424 5.57946 16.1109 6.61091C15.0795 7.64236 14.5 9.04131 14.5 10.5V14H10C9.46957 14 8.96086 14.2107 8.58579 14.5858C8.21071 14.9609 8 15.4696 8 16V30C8 30.5304 8.21071 31.0391 8.58579 31.4142C8.96086 31.7893 9.46957 32 10 32H30C30.5304 32 31.0391 31.7893 31.4142 31.4142C31.7893 31.0391 32 30.5304 32 30V16C32 15.4696 31.7893 14.9609 31.4142 14.5858C31.0391 14.2107 30.5304 14 30 14ZM21 24.85V27C21 27.2652 20.8946 27.5196 20.7071 27.7071C20.5196 27.8946 20.2652 28 20 28C19.7348 28 19.4804 27.8946 19.2929 27.7071C19.1054 27.5196 19 27.2652 19 27V24.85C18.1943 24.6098 17.5021 24.0876 17.0497 23.379C16.5974 22.6703 16.4153 21.8225 16.5367 20.9906C16.658 20.1587 17.0748 19.3983 17.7107 18.8484C18.3467 18.2985 19.1593 17.9959 20 17.9959C20.8407 17.9959 21.6533 18.2985 22.2893 18.8484C22.9252 19.3983 23.342 20.1587 23.4633 20.9906C23.5847 21.8225 23.4026 22.6703 22.9503 23.379C22.4979 24.0876 21.8057 24.6098 21 24.85ZM23.5 14H16.5V10.5C16.5 9.57174 16.8687 8.6815 17.5251 8.02513C18.1815 7.36875 19.0717 7 20 7C20.9283 7 21.8185 7.36875 22.4749 8.02513C23.1313 8.6815 23.5 9.57174 23.5 10.5V14Z" fill="#6CCF00"/>
</svg>
