<svg width="40" height="40" viewBox="0 0 40 40" fill="none" xmlns="http://www.w3.org/2000/svg">
<rect width="40" height="40" rx="20" fill="#D5F7E5"/>
<path d="M31.7125 20.7125L26.4625 25.9625C26.2705 26.146 26.0155 26.2489 25.75 26.25C25.6212 26.2503 25.4937 26.2248 25.375 26.175C25.1907 26.1004 25.0327 25.9726 24.9214 25.8078C24.8101 25.6431 24.7504 25.4489 24.75 25.25V21H17C16.7348 21 16.4804 20.8946 16.2929 20.7071C16.1054 20.5196 16 20.2652 16 20C16 19.7348 16.1054 19.4804 16.2929 19.2929C16.4804 19.1054 16.7348 19 17 19H24.75V14.75C24.7504 14.5511 24.8101 14.3569 24.9214 14.1922C25.0327 14.0274 25.1907 13.8996 25.375 13.825C25.5576 13.7525 25.7571 13.734 25.9499 13.7716C26.1427 13.8093 26.3207 13.9016 26.4625 14.0375L31.7125 19.2875C31.9003 19.4771 32.0056 19.7332 32.0056 20C32.0056 20.2668 31.9003 20.5229 31.7125 20.7125ZM17 30H10V10H17C17.2652 10 17.5196 9.89464 17.7071 9.70711C17.8946 9.51957 18 9.26522 18 9C18 8.73478 17.8946 8.48043 17.7071 8.29289C17.5196 8.10536 17.2652 8 17 8H10C9.46957 8 8.96086 8.21071 8.58579 8.58579C8.21071 8.96086 8 9.46957 8 10V30C8 30.5304 8.21071 31.0391 8.58579 31.4142C8.96086 31.7893 9.46957 32 10 32H17C17.2652 32 17.5196 31.8946 17.7071 31.7071C17.8946 31.5196 18 31.2652 18 31C18 30.7348 17.8946 30.4804 17.7071 30.2929C17.5196 30.1054 17.2652 30 17 30Z" fill="red"/>
</svg>
