<svg xmlns="http://www.w3.org/2000/svg" xmlns:xlink="http://www.w3.org/1999/xlink" viewBox="0 0 733.59 254.06"><defs><style>.cls-1{isolation:isolate;}.cls-2{fill:url(#linear-gradient);}.cls-3{fill:url(#linear-gradient);}.cls-4{fill:#007267;}.cls-5,.cls-6{stroke:#fff;stroke-miterlimit:10;stroke-width:0.25px;}.cls-5{fill:url(#linear-gradient-3);}.cls-6{opacity:0.24;mix-blend-mode:screen;fill:url(#linear-gradient-4);}</style><linearGradient id="linear-gradient" y1="108.09" x2="179.1" y2="108.09" gradientUnits="userSpaceOnUse"><stop offset="0" stop-color="#539926"/><stop offset="1" stop-color="#b4cb04"/></linearGradient><linearGradient id="linear-gradient-2" x1="186.6" y1="133.3" x2="315.63" y2="133.3" xlink:href="#linear-gradient"/><linearGradient id="linear-gradient-3" x1="442.2" y1="65.09" x2="615.87" y2="65.09" gradientUnits="userSpaceOnUse"><stop offset="0" stop-color="#539926"/><stop offset="1" stop-color="#007267"/></linearGradient><linearGradient id="linear-gradient-4" x1="1266.23" y1="39.54" x2="1374.35" y2="39.54" gradientTransform="matrix(-1, 0, 0, 1, 1821.41, 0)" gradientUnits="userSpaceOnUse"><stop offset="0" stop-color="#fff"/><stop offset="1" stop-color="#a9bbff"/></linearGradient></defs><g class="cls-1"><g id="Layer_2" data-name="Layer 2"><g id="Layer_2-2" data-name="Layer 2"><path class="cls-2" d="M179.1,96.57V168.5H139.84V101c0-11.05-4.93-16.45-14.56-16.45-10.59,0-16.22,7.52-16.22,19.74V168.5H70V101C70,90,65.11,84.59,55.23,84.59,44.65,84.59,39,92.11,39,104.33V168.5H0V51H39V62c7.29-9.63,17.87-14.33,31.73-14.33,13.4,0,23.51,4.93,30.09,15,8.23-10.11,19.51-15,34.08-15C162.18,47.69,179.1,66.26,179.1,96.57Z"/><path class="cls-3" d="M272.38,51h43.25L275.44,166.62c-12.45,35.49-34.55,50.53-71,48.88V178.84c16.69,0,23.74-3.53,29.14-14.1L186.6,51h43.71l23.74,68.15Z"/><path class="cls-4" d="M315.14,131.13l36-20.92q9.16,21.86,32.43,21.85c12.93,0,19.28-3.76,19.28-11,0-4.93-3.76-8.7-11.05-11.75-3.05-1.18-10.11-3.29-20.68-6.35C341,94.23,322.19,79.65,322.19,51.45c0-15.28,5.41-27.5,16.21-36.9Q355,.44,379.31.44c27.49,0,49.83,13.16,61.1,37.61L405.16,58.73C400,46.51,391.52,40.4,379.54,40.4c-10.11,0-15.28,4.47-15.28,10.81,0,7.29,5.87,11.29,28.21,17.87a180.47,180.47,0,0,1,19.27,6.57,94.7,94.7,0,0,1,16,8.94c11.52,7.52,17.16,19.74,17.16,36s-5.64,28.67-17.16,37.84S401.16,172,382.36,172C347.58,172,324.31,156.28,315.14,131.13Z"/><path class="cls-4" d="M663.42,129h63.7V168.5H621.35V4H725.94V43.22H663.42V66h56.65V104.8H663.42Z"/><path class="cls-4" d="M587.37,116.93a29.61,29.61,0,0,1-21.77-9.41v61.89H602V111.72C597.36,114.9,592.21,116.93,587.37,116.93Zm-116.52,0a35.84,35.84,0,0,1-14.72-4.07v56.57h36.55v-58.7A38.69,38.69,0,0,1,470.85,116.91Z"/><path class="cls-5" d="M602,108.81c7.8-5.39,13.92-14.06,13.92-21.54-2.69-14.82-32.75-81-32.75-81a14.47,14.47,0,0,0-12-6.17H495.92A14.43,14.43,0,0,0,484,6.3L448.79,76.57h0l-.57,1.14c-3.62,6.63-4.7,8.23-5,8.45.23-.81-.26.2,0,0h0c-.06.18-.14.45-.27.84-3.21,9.26,3.67,18,13.13,22.91A35.68,35.68,0,0,0,470.85,114a38.61,38.61,0,0,0,21.83-6.19c5.32-3.43,9.51-8.09,11.26-13.41,1.47,17.23,8.68,35.66,27.75,35.66,17.18,0,27.06-16.43,27.87-35.66a27.6,27.6,0,0,0,6,10.21A29.58,29.58,0,0,0,587.37,114c4.84,0,10-2,14.58-5.21"/><path class="cls-6" d="M448.21,77.72,484,6.3A14.5,14.5,0,0,1,495.93.12h59.25C519,.12,468.26,37.1,447.93,79,451.68,69.26,444.39,83,448.21,77.72Z"/><path class="cls-4" d="M594.89,252.8l-1-9.12h-21l-4.33,9.12H550.75l32-63.18h19.68l9.75,63.18Zm-15.35-23h12.82L590,207.94Z"/><path class="cls-4" d="M651.65,189.62c6.32,0,11.38,2.16,15.08,6.5s5.14,9.74,4.15,16.51a23.53,23.53,0,0,1-8.39,15.44c-4.61,3.88-10.65,5.77-18,5.77h-8.3l-3.34,19H616.73l11.1-63.18ZM649,205.05h-7.67l-2.35,13.45h7.85a7.85,7.85,0,0,0,8-6.77C655.63,207.67,653.28,205.05,649,205.05Z"/><path class="cls-4" d="M705.08,189.62c6.32,0,11.38,2.16,15.08,6.5s5.14,9.74,4.15,16.51a23.49,23.49,0,0,1-8.4,15.44c-4.6,3.88-10.65,5.77-18,5.77h-8.3l-3.34,19H670.15l11.11-63.18Zm-2.7,15.43H694.7l-2.34,13.45h7.85a7.85,7.85,0,0,0,8-6.77C709.06,207.67,706.71,205.05,702.38,205.05Z"/><path class="cls-4" d="M714.74,244.49a11.39,11.39,0,0,1,11-9.2,7.75,7.75,0,0,1,7.67,9.56,11,11,0,0,1-11,9.21C717.27,254.06,713.75,249.82,714.74,244.49Z"/></g></g></g></svg>