<svg width="40" height="40" viewBox="0 0 40 40" fill="none" xmlns="http://www.w3.org/2000/svg">
<rect width="40" height="40" rx="20" fill="#D5F7E5"/>
<path d="M10 11V29C10 29.2652 9.89464 29.5196 9.70711 29.7071C9.51957 29.8946 9.26522 30 9 30C8.73478 30 8.48043 29.8946 8.29289 29.7071C8.10536 29.5196 8 29.2652 8 29V11C8 10.7348 8.10536 10.4804 8.29289 10.2929C8.48043 10.1054 8.73478 10 9 10C9.26522 10 9.51957 10.1054 9.70711 10.2929C9.89464 10.4804 10 10.7348 10 11ZM20.5 17.8125L18 18.625V16C18 15.7348 17.8946 15.4804 17.7071 15.2929C17.5196 15.1054 17.2652 15 17 15C16.7348 15 16.4804 15.1054 16.2929 15.2929C16.1054 15.4804 16 15.7348 16 16V18.625L13.5 17.8125C13.3762 17.7699 13.245 17.7526 13.1144 17.7618C12.9838 17.7709 12.8563 17.8063 12.7396 17.8658C12.623 17.9253 12.5195 18.0077 12.4354 18.1081C12.3512 18.2084 12.2882 18.3247 12.25 18.45C12.2072 18.5747 12.1898 18.7066 12.1988 18.8382C12.2079 18.9697 12.2431 19.098 12.3025 19.2157C12.3619 19.3333 12.4443 19.4379 12.5448 19.5232C12.6452 19.6086 12.7618 19.6729 12.8875 19.7125L15.3875 20.525L13.8375 22.65C13.76 22.7566 13.7043 22.8774 13.6737 23.0056C13.6431 23.1337 13.6381 23.2667 13.659 23.3968C13.6799 23.5269 13.7263 23.6516 13.7955 23.7637C13.8648 23.8758 13.9555 23.9731 14.0625 24.05C14.2788 24.2033 14.5467 24.2656 14.8085 24.2235C15.0702 24.1814 15.3051 24.0383 15.4625 23.825L17 21.7L18.5375 23.825C18.6949 24.0383 18.9298 24.1814 19.1915 24.2235C19.4533 24.2656 19.7212 24.2033 19.9375 24.05C20.0445 23.9731 20.1352 23.8758 20.2045 23.7637C20.2737 23.6516 20.3201 23.5269 20.341 23.3968C20.3619 23.2667 20.3569 23.1337 20.3263 23.0056C20.2957 22.8774 20.24 22.7566 20.1625 22.65L18.6125 20.525L21.1125 19.7125C21.2382 19.6729 21.3548 19.6086 21.4552 19.5232C21.5557 19.4379 21.6381 19.3333 21.6975 19.2157C21.7569 19.098 21.7921 18.9697 21.8012 18.8382C21.8102 18.7066 21.7928 18.5747 21.75 18.45C21.7118 18.3247 21.6488 18.2084 21.5646 18.1081C21.4805 18.0077 21.377 17.9253 21.2604 17.8658C21.1437 17.8063 21.0162 17.7709 20.8856 17.7618C20.755 17.7526 20.6238 17.7699 20.5 17.8125ZM33.75 18.45C33.7118 18.3247 33.6488 18.2084 33.5646 18.1081C33.4805 18.0077 33.377 17.9253 33.2604 17.8658C33.1437 17.8063 33.0162 17.7709 32.8856 17.7618C32.755 17.7526 32.6238 17.7699 32.5 17.8125L30 18.625V16C30 15.7348 29.8946 15.4804 29.7071 15.2929C29.5196 15.1054 29.2652 15 29 15C28.7348 15 28.4804 15.1054 28.2929 15.2929C28.1054 15.4804 28 15.7348 28 16V18.625L25.5 17.8125C25.3762 17.7699 25.245 17.7526 25.1144 17.7618C24.9838 17.7709 24.8563 17.8063 24.7396 17.8658C24.623 17.9253 24.5195 18.0077 24.4354 18.1081C24.3512 18.2084 24.2882 18.3247 24.25 18.45C24.2072 18.5747 24.1898 18.7066 24.1988 18.8382C24.2079 18.9697 24.2431 19.098 24.3025 19.2157C24.3619 19.3333 24.4443 19.4379 24.5448 19.5232C24.6452 19.6086 24.7618 19.6729 24.8875 19.7125L27.3875 20.525L25.8375 22.65C25.76 22.7566 25.7043 22.8774 25.6737 23.0056C25.6431 23.1337 25.6381 23.2667 25.659 23.3968C25.6799 23.5269 25.7263 23.6516 25.7955 23.7637C25.8648 23.8758 25.9555 23.9731 26.0625 24.05C26.2788 24.2033 26.5467 24.2656 26.8085 24.2235C27.0702 24.1814 27.3051 24.0383 27.4625 23.825L29 21.7L30.5375 23.825C30.6949 24.0383 30.9298 24.1814 31.1915 24.2235C31.4533 24.2656 31.7212 24.2033 31.9375 24.05C32.0445 23.9731 32.1352 23.8758 32.2045 23.7637C32.2737 23.6516 32.3201 23.5269 32.341 23.3968C32.3619 23.2667 32.3569 23.1337 32.3263 23.0056C32.2957 22.8774 32.24 22.7566 32.1625 22.65L30.6125 20.525L33.1125 19.7125C33.2382 19.6729 33.3548 19.6086 33.4552 19.5232C33.5557 19.4379 33.6381 19.3333 33.6975 19.2157C33.7569 19.098 33.7921 18.9697 33.8012 18.8382C33.8102 18.7066 33.7928 18.5747 33.75 18.45Z" fill="#6CCF00"/>
</svg>
