<svg width="113" height="113" viewBox="0 0 113 113" fill="none" xmlns="http://www.w3.org/2000/svg">
<g filter="url(#filter0_d_2275_16657)">
<rect x="26.5156" y="14.3262" width="60" height="60" rx="22" fill="#6CCF00"/>
</g>
<path d="M67.2726 45.0405V43.3262C67.2726 42.8715 67.092 42.4355 66.7705 42.114C66.449 41.7925 66.013 41.6119 65.5583 41.6119H48.4155C47.9608 41.6119 47.5248 41.7925 47.2033 42.114C46.8818 42.4355 46.7012 42.8715 46.7012 43.3262V53.6119C46.7012 54.0665 46.8818 54.5026 47.2033 54.8241C47.5248 55.1456 47.9608 55.3262 48.4155 55.3262H65.5583C66.013 55.3262 66.449 55.1456 66.7705 54.8241C67.092 54.5026 67.2726 54.0665 67.2726 53.6119V51.8976M67.2726 45.0405H60.4155C59.5061 45.0405 58.6341 45.4017 57.9911 46.0447C57.3481 46.6876 56.9869 47.5597 56.9869 48.469C56.9869 49.3783 57.3481 50.2504 57.9911 50.8934C58.6341 51.5364 59.5061 51.8976 60.4155 51.8976H67.2726M67.2726 45.0405C68.1819 45.0405 69.054 45.4017 69.697 46.0447C70.3399 46.6876 70.7012 47.5597 70.7012 48.469C70.7012 49.3783 70.3399 50.2504 69.697 50.8934C69.054 51.5364 68.1819 51.8976 67.2726 51.8976M51.844 41.6119V36.469C51.844 35.1051 52.3859 33.797 53.3503 32.8325C54.3148 31.868 55.6229 31.3262 56.9869 31.3262C58.3509 31.3262 59.659 31.868 60.6234 32.8325C61.5879 33.797 62.1297 35.1051 62.1297 36.469V41.6119M66.4155 48.469H68.1297M62.9869 48.469H64.7012M59.5583 48.469H61.2726" stroke="white" stroke-width="1.5"/>
<defs>
<filter id="filter0_d_2275_16657" x="0.515625" y="0.326172" width="112" height="112" filterUnits="userSpaceOnUse" color-interpolation-filters="sRGB">
<feFlood flood-opacity="0" result="BackgroundImageFix"/>
<feColorMatrix in="SourceAlpha" type="matrix" values="0 0 0 0 0 0 0 0 0 0 0 0 0 0 0 0 0 0 127 0" result="hardAlpha"/>
<feMorphology radius="9" operator="erode" in="SourceAlpha" result="effect1_dropShadow_2275_16657"/>
<feOffset dy="12"/>
<feGaussianBlur stdDeviation="17.5"/>
<feComposite in2="hardAlpha" operator="out"/>
<feColorMatrix type="matrix" values="0 0 0 0 0.423529 0 0 0 0 0.811765 0 0 0 0 0 0 0 0 0.5 0"/>
<feBlend mode="normal" in2="BackgroundImageFix" result="effect1_dropShadow_2275_16657"/>
<feBlend mode="normal" in="SourceGraphic" in2="effect1_dropShadow_2275_16657" result="shape"/>
</filter>
</defs>
</svg>
