<svg width="30" height="29" viewBox="0 0 30 29" fill="none" xmlns="http://www.w3.org/2000/svg">
<g clip-path="url(#clip0_2200_6136)">
<rect opacity="0.2" x="4.05" y="4.05" width="15.9" height="15.9" stroke="#FF35D3" stroke-width="0.1"/>
<rect opacity="0.2" x="7.05" y="7.05" width="9.9" height="9.9" stroke="#FF35D3" stroke-width="0.1"/>
<rect opacity="0.2" x="6.05" y="3.05" width="11.9" height="17.9" stroke="#FF35D3" stroke-width="0.1"/>
<rect opacity="0.2" x="20.95" y="6.05" width="11.9" height="17.9" transform="rotate(90 20.95 6.05)" stroke="#FF35D3" stroke-width="0.1"/>
<circle opacity="0.2" cx="12" cy="12" r="9.95" stroke="#FF35D3" stroke-width="0.1"/>
<circle opacity="0.2" cx="12" cy="12" r="2.95" stroke="#FF35D3" stroke-width="0.1"/>
<circle opacity="0.2" cx="12" cy="12" r="6.95" stroke="#FF35D3" stroke-width="0.1"/>
<line opacity="0.2" x1="4.03536" y1="3.96464" x2="20.0354" y2="19.9646" stroke="#FF35D3" stroke-width="0.1"/>
<line opacity="0.2" x1="0.686279" y1="11.95" x2="23.3137" y2="11.95" stroke="#FF35D3" stroke-width="0.1"/>
<line opacity="0.2" x1="20.0354" y1="4.03536" x2="4.03535" y2="20.0354" stroke="#FF35D3" stroke-width="0.1"/>
<line opacity="0.2" x1="12.05" y1="0.686279" x2="12.05" y2="23.3137" stroke="#FF35D3" stroke-width="0.1"/>
</g>
<path d="M8.125 24.1666V6.64581H8.75L21.25 22.3541H21.875V4.83331M3.75 11.4791H26.25M3.75 17.5208H26.25" stroke="black" stroke-width="3"/>
<defs>
<clipPath id="clip0_2200_6136">
<rect width="24" height="24" fill="white"/>
</clipPath>
</defs>
</svg>
