<svg width="40" height="40" viewBox="0 0 40 40" fill="none" xmlns="http://www.w3.org/2000/svg">
<path d="M13.2688 17.75C13.2675 16.8608 13.4422 15.9802 13.7828 15.1589C14.1233 14.3375 14.623 13.5917 15.253 12.9643C15.883 12.3369 16.6309 11.8403 17.4537 11.5032C18.2765 11.166 19.1578 10.995 20.0469 11C23.7594 11.0281 26.7313 14.1125 26.7313 17.8344V18.5C26.7313 21.8562 27.4344 23.8062 28.0532 24.875C28.1189 24.9888 28.1535 25.1179 28.1537 25.2493C28.1538 25.3808 28.1193 25.5099 28.0538 25.6238C27.9883 25.7378 27.894 25.8325 27.7804 25.8985C27.6667 25.9645 27.5377 25.9995 27.4063 26H12.5938C12.4624 25.9995 12.3334 25.9645 12.2197 25.8985C12.1061 25.8325 12.0118 25.7378 11.9463 25.6238C11.8807 25.5099 11.8463 25.3808 11.8464 25.2493C11.8466 25.1179 11.8812 24.9888 11.9469 24.875C12.5657 23.8062 13.2688 21.8562 13.2688 18.5V17.75Z" stroke="#1F2024" stroke-width="2" stroke-linecap="round" stroke-linejoin="round"/>
<path d="M17 26V26.75C17 27.5456 17.3161 28.3087 17.8787 28.8713C18.4413 29.4339 19.2044 29.75 20 29.75C20.7956 29.75 21.5587 29.4339 22.1213 28.8713C22.6839 28.3087 23 27.5456 23 26.75V26" stroke="#1F2024" stroke-width="2" stroke-linecap="round" stroke-linejoin="round"/>
<rect x="0.5" y="0.5" width="39" height="39" rx="19.5" stroke="#ECF1FE"/>
</svg>
