<svg width="289" height="205" viewBox="0 0 289 205" fill="none" xmlns="http://www.w3.org/2000/svg">
<path d="M173.476 48.0868L194.536 24.1003L215.596 48.0868V140.973" stroke="#80D3BC" stroke-width="1.28715" stroke-miterlimit="10"/>
<g opacity="0.81">
<path opacity="0.81" d="M207.808 52.0956H202.149V57.4411H207.808V52.0956Z" stroke="#80D3BC" stroke-width="1.28715" stroke-miterlimit="10"/>
<path opacity="0.81" d="M197.106 52.0957H191.447V57.4412H197.106V52.0957Z" stroke="#80D3BC" stroke-width="1.28715" stroke-miterlimit="10"/>
<path opacity="0.81" d="M186.408 52.0957H180.75V57.4412H186.408V52.0957Z" stroke="#80D3BC" stroke-width="1.28715" stroke-miterlimit="10"/>
</g>
<g opacity="0.46">
<path opacity="0.46" d="M207.808 64.5118H202.149V69.8573H207.808V64.5118Z" stroke="#80D3BC" stroke-width="1.28715" stroke-miterlimit="10"/>
<path opacity="0.46" d="M197.106 64.5119H191.447V69.8574H197.106V64.5119Z" stroke="#80D3BC" stroke-width="1.28715" stroke-miterlimit="10"/>
<path opacity="0.46" d="M186.408 64.5119H180.75V69.8574H186.408V64.5119Z" stroke="#80D3BC" stroke-width="1.28715" stroke-miterlimit="10"/>
</g>
<g opacity="0.25">
<path opacity="0.25" d="M207.808 77.4524H202.149V82.7978H207.808V77.4524Z" stroke="#80D3BC" stroke-width="1.28715" stroke-miterlimit="10"/>
<path opacity="0.25" d="M197.106 77.4524H191.447V82.7979H197.106V77.4524Z" stroke="#80D3BC" stroke-width="1.28715" stroke-miterlimit="10"/>
<path opacity="0.25" d="M186.408 77.4523H180.75V82.7978H186.408V77.4523Z" stroke="#80D3BC" stroke-width="1.28715" stroke-miterlimit="10"/>
</g>
<g opacity="0.25">
<path opacity="0.25" d="M207.808 88.5703H202.149V93.9158H207.808V88.5703Z" stroke="#80D3BC" stroke-width="1.28715" stroke-miterlimit="10"/>
<path opacity="0.25" d="M197.106 88.5703H191.447V93.9158H197.106V88.5703Z" stroke="#80D3BC" stroke-width="1.28715" stroke-miterlimit="10"/>
<path opacity="0.25" d="M186.408 88.5702H180.75V93.9157H186.408V88.5702Z" stroke="#80D3BC" stroke-width="1.28715" stroke-miterlimit="10"/>
</g>
<path d="M223.43 126.414V13.7192H278.084V141.189" stroke="#80D3BC" stroke-width="1.28715" stroke-miterlimit="10"/>
<path d="M228.862 24.1009V30.6956H235.844V18.5917H228.862V24.1009ZM230.008 19.6741H234.695V24.1009H230.008V19.6741ZM230.008 25.1864H234.695V29.601H230.008V25.1864Z" fill="#AAE2D3"/>
<path d="M241.174 24.1009V30.6956H248.153V18.5917H241.174V24.1009ZM242.32 19.6741H247.007V24.1009H242.32V19.6741ZM242.32 25.1864H247.007V29.601H242.32V25.1864Z" fill="#AAE2D3"/>
<path d="M253.147 24.1009V30.6956H260.125V18.5917H253.147V24.1009ZM254.293 19.6741H258.979V24.1009H254.293V19.6741ZM254.293 25.1864H258.979V29.601H254.293V25.1864Z" fill="#AAE2D3"/>
<path d="M264.417 18.5917V30.6956H271.396V18.5917H264.417ZM270.25 29.601H265.563V25.1864H270.25V29.601ZM270.25 24.0918H265.563V19.665H270.25V24.0918Z" fill="#AAE2D3"/>
<path d="M228.862 40.383V46.9777H235.844V34.8737H228.862V40.383ZM230.008 35.9562H234.695V40.383H230.008V35.9562ZM230.008 41.4654H234.695V45.8952H230.008V41.4654Z" fill="#AAE2D3"/>
<path d="M241.174 40.383V46.9777H248.153V34.8737H241.174V40.383ZM242.32 35.9562H247.007V40.383H242.32V35.9562ZM242.32 41.4654H247.007V45.8952H242.32V41.4654Z" fill="#AAE2D3"/>
<path d="M253.147 40.383V46.9777H260.125V34.8737H253.147V40.383ZM254.293 35.9562H258.979V40.383H254.293V35.9562ZM254.293 41.4654H258.979V45.8952H254.293V41.4654Z" fill="#AAE2D3"/>
<path d="M264.417 40.3829V46.9776H271.396V34.8737H264.417V40.3829ZM265.563 35.9562H270.25V40.3829H265.563V35.9562ZM265.563 41.4654H270.25V45.8952H265.563V41.4654Z" fill="#AAE2D3"/>
<path d="M228.862 56.6647V63.2563H235.844V51.1555H228.862V56.6647ZM230.008 52.2379H234.695V56.6647H230.008V52.2379ZM230.008 57.7501H234.695V62.1769H230.008V57.7501Z" fill="#AAE2D3"/>
<path d="M241.174 56.6647V63.2563H248.153V51.1555H241.174V56.6647ZM242.32 52.2379H247.007V56.6647H242.32V52.2379ZM242.32 57.7501H247.007V62.1769H242.32V57.7501Z" fill="#AAE2D3"/>
<path d="M253.147 56.6647V63.2563H260.125V51.1555H253.147V56.6647ZM254.293 52.2379H258.979V56.6647H254.293V52.2379ZM254.293 57.7501H258.979V62.1769H254.293V57.7501Z" fill="#AAE2D3"/>
<path d="M264.417 56.6646V63.2563H271.396V51.1554H264.417V56.6646ZM265.563 52.2378H270.25V56.6646H265.563V52.2378ZM265.563 57.7501H270.25V62.1769H265.563V57.7501Z" fill="#AAE2D3"/>
<path d="M228.862 72.9586V79.5503H235.844V67.4373H228.862V72.9586ZM230.008 68.5318H234.695V72.9586H230.008V68.5318ZM230.008 74.041H234.695V78.4678H230.008V74.041Z" fill="#AAE2D3"/>
<path d="M241.174 72.9586V79.5503H248.153V67.4373H241.174V72.9586ZM242.32 68.5318H247.007V72.9586H242.32V68.5318ZM242.32 74.041H247.007V78.4678H242.32V74.041Z" fill="#AAE2D3"/>
<path d="M253.147 72.9586V79.5503H260.125V67.4373H253.147V72.9586ZM254.293 68.5318H258.979V72.9586H254.293V68.5318ZM254.293 74.041H258.979V78.4678H254.293V74.041Z" fill="#AAE2D3"/>
<path d="M264.417 72.9586V79.5502H271.396V67.4372H264.417V72.9586ZM265.563 68.5318H270.25V72.9586H265.563V68.5318ZM265.563 74.041H270.25V78.4678H265.563V74.041Z" fill="#AAE2D3"/>
<path d="M228.862 89.2282V95.8229H235.844V83.719H228.862V89.2282ZM230.008 84.8045H234.695V89.2282H230.008V84.8045ZM230.008 90.3137H234.695V94.7405H230.008V90.3137Z" fill="#AAE2D3"/>
<path d="M241.174 89.2282V95.8229H248.153V83.719H241.174V89.2282ZM242.32 84.8045H247.007V89.2282H242.32V84.8045ZM242.32 90.3137H247.007V94.7405H242.32V90.3137Z" fill="#AAE2D3"/>
<path d="M253.147 89.2282V95.8229H260.125V83.719H253.147V89.2282ZM254.293 84.8045H258.979V89.2282H254.293V84.8045ZM254.293 90.3137H258.979V94.7405H254.293V90.3137Z" fill="#AAE2D3"/>
<path d="M264.417 89.2282V95.8229H271.396V83.719H264.417V89.2282ZM265.563 84.8045H270.25V89.2282H265.563V84.8045ZM265.563 90.3137H270.25V94.7405H265.563V90.3137Z" fill="#AAE2D3"/>
<path d="M98.3335 141.222V90.196C98.3332 83.0825 95.7015 76.1928 90.8931 70.7182C90.0451 69.7528 88.9826 68.9756 87.7805 68.4423C86.5784 67.909 85.2669 67.6328 83.939 67.6328C82.6111 67.6328 81.2995 67.909 80.0974 68.4423C78.8953 68.9756 77.8326 69.7528 76.9848 70.7182C72.1765 76.1928 69.5448 83.0825 69.5444 90.196V141.316" stroke="#80D3BC" stroke-width="1.28715" stroke-miterlimit="10"/>
<g opacity="0.81">
<path opacity="0.81" d="M74.8701 85.5785H78.738V81.9249H74.8701V85.5785Z" stroke="#80D3BC" stroke-width="1.28715" stroke-miterlimit="10"/>
<path opacity="0.81" d="M82.1787 85.5786H86.0466V81.925H82.1787V85.5786Z" stroke="#80D3BC" stroke-width="1.28715" stroke-miterlimit="10"/>
<path opacity="0.81" d="M89.4902 85.5786H93.3581V81.925H89.4902V85.5786Z" stroke="#80D3BC" stroke-width="1.28715" stroke-miterlimit="10"/>
</g>
<g opacity="0.46">
<path opacity="0.46" d="M74.8701 94.0646H78.738V90.4109H74.8701V94.0646Z" stroke="#80D3BC" stroke-width="1.28715" stroke-miterlimit="10"/>
<path opacity="0.46" d="M82.1787 94.0645H86.0466V90.4109H82.1787V94.0645Z" stroke="#80D3BC" stroke-width="1.28715" stroke-miterlimit="10"/>
<path opacity="0.46" d="M89.4902 94.0646H93.3581V90.411H89.4902V94.0646Z" stroke="#80D3BC" stroke-width="1.28715" stroke-miterlimit="10"/>
</g>
<g opacity="0.25">
<path opacity="0.25" d="M74.8701 102.91H78.738V99.2561H74.8701V102.91Z" stroke="#80D3BC" stroke-width="1.28715" stroke-miterlimit="10"/>
<path opacity="0.25" d="M82.1787 102.91H86.0466V99.2561H82.1787V102.91Z" stroke="#80D3BC" stroke-width="1.28715" stroke-miterlimit="10"/>
<path opacity="0.25" d="M89.4902 102.91H93.3581V99.2561H89.4902V102.91Z" stroke="#80D3BC" stroke-width="1.28715" stroke-miterlimit="10"/>
</g>
<g opacity="0.25">
<path opacity="0.25" d="M74.8701 110.508H78.738V106.854H74.8701V110.508Z" stroke="#80D3BC" stroke-width="1.28715" stroke-miterlimit="10"/>
<path opacity="0.25" d="M82.1787 110.508H86.0466V106.854H82.1787V110.508Z" stroke="#80D3BC" stroke-width="1.28715" stroke-miterlimit="10"/>
<path opacity="0.25" d="M89.4902 110.508H93.3581V106.854H89.4902V110.508Z" stroke="#80D3BC" stroke-width="1.28715" stroke-miterlimit="10"/>
</g>
<path d="M26.8374 141.456V55.6975H64.1936V141.334" stroke="#80D3BC" stroke-width="1.28715" stroke-miterlimit="10"/>
<path d="M60.4803 62.7927V67.2983H55.7104V59.0269H60.4803V62.7927ZM59.6939 59.7607H56.4937V62.7927H59.7035L59.6939 59.7607ZM59.6939 63.5265H56.4937V66.5585H59.7035L59.6939 63.5265Z" fill="#AAE2D3"/>
<path d="M52.0638 62.7927V67.2983H47.2939V59.0269H52.0638V62.7927ZM51.2806 59.7607H48.0707V62.7927H51.2806V59.7607ZM51.2806 63.5265H48.0707V66.5585H51.2806V63.5265Z" fill="#AAE2D3"/>
<path d="M43.8816 62.7927V67.2983H39.1118V59.0269H43.8816V62.7927ZM43.0984 59.7607H39.8886V62.7927H43.0984V59.7607ZM43.0984 63.5265H39.8886V66.5585H43.0984V63.5265Z" fill="#AAE2D3"/>
<path d="M36.178 59.027V67.2984H31.4082V59.027H36.178ZM32.1914 66.5586H35.4012V63.5265H32.1914V66.5586ZM32.1914 62.7928H35.4012V59.7607H32.1914V62.7928Z" fill="#AAE2D3"/>
<path d="M60.4803 73.9206V78.4171H55.7104V70.1579H60.4803V73.9206ZM59.6939 70.8886H56.4937V73.9206H59.7035L59.6939 70.8886ZM59.6939 74.6544H56.4937V77.6864H59.7035L59.6939 74.6544Z" fill="#AAE2D3"/>
<path d="M52.0638 73.9206V78.4171H47.2939V70.1579H52.0638V73.9206ZM51.2806 70.8886H48.0707V73.9206H51.2806V70.8886ZM51.2806 74.6544H48.0707V77.6864H51.2806V74.6544Z" fill="#AAE2D3"/>
<path d="M43.8816 73.9206V78.4171H39.1118V70.1579H43.8816V73.9206ZM43.0984 70.8886H39.8886V73.9206H43.0984V70.8886ZM43.0984 74.6544H39.8886V77.6864H43.0984V74.6544Z" fill="#AAE2D3"/>
<path d="M36.178 73.9207V78.4172H31.4082V70.1579H36.178V73.9207ZM35.3948 70.8886H32.185V73.9207H35.3948V70.8886ZM35.3948 74.6544H32.185V77.6864H35.3948V74.6544Z" fill="#AAE2D3"/>
<path d="M60.4803 85.0509V89.5566H55.7104V81.2852H60.4803V85.0509ZM59.6939 82.0189H56.4937V85.0509H59.7035L59.6939 82.0189ZM59.6939 85.7847H56.4937V88.8167H59.7035L59.6939 85.7847Z" fill="#AAE2D3"/>
<path d="M52.0638 85.0509V89.5566H47.2939V81.2852H52.0638V85.0509ZM51.2806 82.0189H48.0707V85.0509H51.2806V82.0189ZM51.2806 85.7847H48.0707V88.8167H51.2806V85.7847Z" fill="#AAE2D3"/>
<path d="M43.8816 85.0509V89.5566H39.1118V81.2852H43.8816V85.0509ZM43.0984 82.0189H39.8886V85.0509H43.0984V82.0189ZM43.0984 85.7847H39.8886V88.8167H43.0984V85.7847Z" fill="#AAE2D3"/>
<path d="M36.178 85.0509V89.5566H31.4082V81.2852H36.178V85.0509ZM35.3948 82.0189H32.185V85.0509H35.3948V82.0189ZM35.3948 85.7847H32.185V88.8167H35.3948V85.7847Z" fill="#AAE2D3"/>
<path d="M60.4803 96.1782V100.684H55.7104V92.4124H60.4803V96.1782ZM59.6939 93.1462H56.4937V96.1782H59.7035L59.6939 93.1462ZM59.7035 96.912H56.4937V99.944H59.7035V96.912Z" fill="#AAE2D3"/>
<path d="M52.0638 96.1782V100.684H47.2939V92.4124H52.0638V96.1782ZM51.2806 93.1462H48.0707V96.1782H51.2806V93.1462ZM51.2806 96.912H48.0707V99.944H51.2806V96.912Z" fill="#AAE2D3"/>
<path d="M43.8816 96.1782V100.684H39.1118V92.4124H43.8816V96.1782ZM43.0984 93.1462H39.8886V96.1782H43.0984V93.1462ZM43.0984 96.912H39.8886V99.944H43.0984V96.912Z" fill="#AAE2D3"/>
<path d="M36.178 96.1782V100.684H31.4082V92.4124H36.178V96.1782ZM35.3948 93.1462H32.185V96.1782H35.3948V93.1462ZM35.3948 96.912H32.185V99.944H35.3948V96.912Z" fill="#AAE2D3"/>
<path d="M60.4803 107.305V111.811H55.7104V103.54H60.4803V107.305ZM59.6939 104.273H56.4937V107.305H59.7035L59.6939 104.273ZM59.6939 108.039H56.4937V111.071H59.7035L59.6939 108.039Z" fill="#AAE2D3"/>
<path d="M52.0638 107.305V111.811H47.2939V103.54H52.0638V107.305ZM51.2806 104.273H48.0707V107.305H51.2806V104.273ZM51.2806 108.039H48.0707V111.071H51.2806V108.039Z" fill="#AAE2D3"/>
<path d="M43.8816 107.305V111.811H39.1118V103.54H43.8816V107.305ZM43.0984 104.273H39.8886V107.305H43.0984V104.273ZM43.0984 108.039H39.8886V111.071H43.0984V108.039Z" fill="#AAE2D3"/>
<path d="M36.178 107.305V111.811H31.4082V103.54H36.178V107.305ZM35.3948 104.273H32.185V107.305H35.3948V104.273ZM35.3948 108.039H32.185V111.071H35.3948V108.039Z" fill="#AAE2D3"/>
<path d="M123.92 47.8084C123.92 47.8084 123.011 59.4818 109.321 58.4024C109.321 58.4024 114.117 70.0181 117.558 72.0738L134.846 82.4101L138.987 64.1238L123.92 47.8084Z" fill="#1F2024"/>
<path d="M109.262 91.7579L73.0361 141.31L33.0864 141.441V140.75C33.0874 139.136 33.7367 137.583 34.9035 136.404C36.0703 135.226 37.6672 134.51 39.3713 134.4L50.3939 133.706L82.5373 78.8929C84.0552 76.2235 86.1429 73.881 88.6684 72.0129C91.1939 70.1449 94.1023 68.792 97.2098 68.0403C100.317 67.2887 103.556 67.1541 106.721 67.6453C109.886 68.1368 112.909 69.2428 115.599 70.8944L115.875 71.0642L134.376 82.1129L121.248 111.997L104.579 98.1827" fill="white"/>
<path d="M231.78 120.62C228.445 129.389 222.343 130.811 215.207 130.359C211.474 125.738 207.051 119.444 203.475 114.741C199.319 109.253 195.158 103.773 190.989 98.3013C189.926 96.8944 188.864 95.4967 187.779 94.0898V115.172C187.783 116.26 187.707 117.347 187.551 118.425C167.22 134.837 138.181 114.244 134.22 111.269C133.921 111.054 133.773 110.933 133.773 110.933C131.876 97.9465 133.924 88.1258 134.361 80.7003C134.958 70.7795 136.903 67.6262 138.63 64.5759L139.346 62.8659C140.687 60.5039 140.63 59.9157 140.809 59.8035L140.755 59.3699C140.755 59.3699 141.451 58.6301 141.451 58.6119C145.374 52.4963 148.394 47.3934 154.888 43.7155C152.641 45.28 151.087 49.0701 153.469 51.141C156.239 53.5514 160.011 50.7013 162.283 49.0185C165.188 46.9473 167.736 44.465 169.839 41.6598C170.504 40.7502 171.338 39.7829 171.21 38.6277C175.916 38.5641 179.896 40.1438 184.749 42.7938C190.886 46.1502 195.778 51.2137 199.116 57.1323L231.78 120.62Z" fill="#1F2024"/>
<path d="M173.139 26.6472V26.7321C173.139 28.5013 172.395 30.1978 171.07 31.4488C169.746 32.6998 167.95 33.4026 166.077 33.4026C164.877 33.4078 163.696 33.1161 162.652 32.5567C162.352 32.4093 162.066 32.2368 161.798 32.0412C161.688 31.9566 161.602 31.8481 161.547 31.7253C161.491 31.6022 161.467 31.4685 161.478 31.3351C161.488 31.202 161.533 31.0728 161.608 30.9594C161.683 30.8457 161.785 30.7508 161.907 30.6829C163.355 29.8582 164.716 28.6575 165.204 27.1657C165.353 26.7079 165.403 26.2264 165.352 25.7498C165.309 25.1409 165.098 24.5536 164.739 24.0463C164.38 23.5391 163.886 23.1301 163.307 22.8602C163.125 22.795 162.935 22.7511 162.742 22.7298C162.196 22.6449 161.458 22.654 161.291 23.033C162.152 21.2259 162.358 19.2011 161.878 17.2722C161.58 16.0751 160.995 14.9584 160.171 14.0067C160.183 14.3499 160.114 14.691 159.971 15.0063C159.827 15.3217 159.611 15.603 159.339 15.8304C159.066 16.0578 158.744 16.2255 158.395 16.3216C158.047 16.4177 157.679 16.4402 157.32 16.3868C154.531 16.0836 154.223 13.5185 154.223 13.5185C154.223 13.5185 154.204 13.5458 154.204 13.564C152.734 16.3413 149.171 16.1442 146.738 14.6707C145.876 14.1646 145.138 13.4906 144.574 12.6938C144.106 9.69207 146.927 7.04813 149.925 6.86924C150.153 5.00453 151.771 3.10951 153.735 3.10951C154.418 3.10769 155.089 3.27901 155.677 3.60525C156.266 3.9315 156.752 4.40116 157.083 4.96512C157.135 5.05335 157.181 5.14461 157.221 5.238C158.113 4.20711 159.526 3.11557 160.925 3.11557C161.906 3.11678 162.862 3.40665 163.66 3.94453C164.459 4.48242 165.06 5.24195 165.38 6.1173C165.38 5.98389 166.664 5.55334 166.79 5.51089C167.311 5.36778 167.852 5.29834 168.394 5.3047C169.341 5.32805 170.265 5.57547 171.084 6.02421C171.903 6.47295 172.589 7.10847 173.081 7.87284C173.13 8.13906 173.154 8.40891 173.151 8.67937C173.152 9.4874 172.951 10.2842 172.564 11.0049C173.004 11.1596 173.41 11.3921 173.758 11.6902C174.507 12.3081 174.968 13.1792 175.042 14.1158C175.042 14.2098 175.042 14.3038 175.042 14.3978C175.044 15.1055 174.82 15.7974 174.4 16.3838C174.862 16.5487 175.299 16.7701 175.7 17.0417C176.896 17.8558 177.703 19.0826 177.947 20.4558C178.001 20.7563 178.028 21.0607 178.027 21.3654C178.027 22.6555 177.532 23.9017 176.632 24.8732C175.733 25.8443 174.492 26.4747 173.139 26.6472Z" fill="#6CCF00"/>
<path d="M173.139 26.6472V26.7321C173.139 28.5013 172.395 30.1978 171.07 31.4488C169.746 32.6998 167.95 33.4026 166.077 33.4026C164.877 33.4078 163.696 33.1161 162.652 32.5567C164.1 31.732 165.461 30.5313 165.949 29.0425C166.123 28.4871 166.159 27.9013 166.056 27.3303C165.952 26.7594 165.711 26.2188 165.352 25.7498C165.309 25.1409 165.098 24.5536 164.739 24.0463C164.38 23.5391 163.886 23.1301 163.307 22.8602C163.125 22.795 162.935 22.7511 162.742 22.7298C163.09 20.8703 162.787 18.9543 161.878 17.2722C161.58 16.0751 160.995 14.9584 160.171 14.0067C160.183 14.3499 160.114 14.691 159.971 15.0063C159.827 15.3217 159.611 15.603 159.339 15.8304C159.066 16.0578 158.744 16.2255 158.395 16.3216C158.047 16.4177 157.679 16.4402 157.32 16.3868C154.531 16.0836 154.223 13.5185 154.223 13.5185C154.223 13.5185 154.204 13.5458 154.204 13.564C152.734 16.3413 149.171 16.1442 146.738 14.6707C145.876 14.1646 145.138 13.4906 144.574 12.6938C144.106 9.69207 146.927 7.04813 149.925 6.86924C150.153 5.00453 151.771 3.10951 153.735 3.10951C154.418 3.10769 155.089 3.27901 155.677 3.60525C156.266 3.9315 156.752 4.40116 157.083 4.96512C157.135 5.05335 157.181 5.14461 157.221 5.238C158.113 4.20711 159.526 3.11557 160.925 3.11557C161.906 3.11678 162.862 3.40665 163.66 3.94453C164.459 4.48242 165.06 5.24195 165.38 6.1173C165.38 5.98389 166.664 5.55334 166.79 5.51089C167.311 5.36778 167.852 5.29834 168.394 5.3047C169.341 5.32805 170.265 5.57547 171.084 6.02421C171.903 6.47295 172.589 7.10847 173.081 7.87284C173.13 8.13906 173.154 8.40891 173.151 8.67937C173.152 9.4874 172.951 10.2842 172.564 11.0049C173.004 11.1596 173.41 11.3921 173.758 11.6902C173.663 12.1041 173.512 12.5046 173.309 12.8818C173.999 13.1289 174.602 13.5546 175.048 14.1097C175.048 14.2037 175.048 14.2977 175.048 14.3917C175.05 15.0994 174.826 15.7913 174.406 16.3777C174.868 16.5427 175.305 16.764 175.706 17.0357C175.598 17.4677 175.41 17.8783 175.151 18.2485C176.326 18.659 177.319 19.4328 177.969 20.4437C178.023 20.7442 178.05 21.0486 178.05 21.3533C178.052 22.6486 177.555 23.9005 176.651 24.875C175.747 25.8492 174.498 26.4793 173.139 26.6472Z" fill="#6CCF00"/>
<path d="M154.908 203.379H109.264V202.545C109.262 200.897 109.938 199.312 111.148 198.124C112.359 196.937 114.01 196.239 115.754 196.178L126.526 195.756H151.961L154.908 203.379Z" fill="#01A87A"/>
<path d="M73.0361 141.31L33.0864 141.216V140.382C33.0851 138.733 33.7615 137.148 34.9725 135.96C36.1836 134.773 37.8354 134.075 39.5799 134.015L50.3522 133.6L78.3709 134.021L73.0361 141.31Z" fill="#01A87A"/>
<path d="M139.153 141.095H160.338C167.012 141.078 173.452 138.771 178.46 134.603C183.467 130.436 186.702 124.692 187.561 118.44C187.716 117.361 187.793 116.272 187.789 115.183V94.0955" stroke="#156C3E" stroke-width="1.28715" stroke-miterlimit="10"/>
<path d="M146.847 110.859L134.429 111.263H134.22L126.378 111.411C124.651 111.444 122.931 111.636 121.243 111.984C107.244 114.843 98.2986 128.093 101.287 141.204C101.727 143.158 102.417 145.053 103.341 146.85L126.526 195.756L115.754 196.169C114.01 196.23 112.359 196.928 111.149 198.115C109.938 199.303 109.262 200.888 109.263 202.536V203.37H154.907L151.961 195.756L130.75 141.019" stroke="#156C3E" stroke-width="1.28715" stroke-miterlimit="10"/>
<path d="M109.263 91.7694L73.0371 141.31" stroke="#156C3E" stroke-width="1.28715" stroke-miterlimit="10"/>
<path d="M121.236 111.997L104.567 98.1827" stroke="#156C3E" stroke-width="1.28715" stroke-miterlimit="10"/>
<path d="M156.328 141.077L156.22 140.983" stroke="#156C3E" stroke-width="1.28715" stroke-miterlimit="10"/>
<path d="M115.862 71.0642L105.042 50.1249" stroke="#156C3E" stroke-width="1.28715" stroke-miterlimit="10"/>
<path d="M247.382 141.019C247.382 141.037 247.402 141.046 247.411 141.067H238.25" stroke="#156C3E" stroke-width="1.28715" stroke-miterlimit="10"/>
<path d="M141.615 141.113C141.615 141.068 141.587 141.019 141.577 140.983" stroke="#156C3E" stroke-width="1.28715" stroke-miterlimit="10"/>
<path d="M171.213 38.9033C174.615 38.8175 177.991 39.4733 181.08 40.8196C188.285 43.988 194.282 49.1755 198.256 55.6765C202.635 62.8898 206.178 70.673 210.069 78.1136C214.943 87.4644 219.824 96.811 224.712 106.154C227.066 110.663 229.42 115.174 231.773 119.686L236.768 129.24C237.795 130.836 239.241 132.154 240.966 133.066C242.691 133.975 244.632 134.453 246.606 134.455C248.584 134.455 250.521 134.989 252.188 135.993C253.856 136.999 255.184 138.433 256.017 140.128L256.454 141.019H244.407" stroke="#156C3E" stroke-width="1.28715" stroke-miterlimit="10"/>
<path d="M134.431 111.269C133.015 102.694 133.314 94.0622 134.03 85.439C135.314 70.0272 140.276 54.585 153.581 44.6157C153.924 44.358 154.271 44.1033 154.631 43.8668" stroke="#156C3E" stroke-width="1.28715" stroke-miterlimit="10"/>
<path d="M167.358 59.3693C167.108 68.4472 175.309 77.6464 175.309 77.6464C175.309 77.6464 175.328 77.6646 175.328 77.6737C179.488 83.1314 183.642 88.6051 187.789 94.0952C188.861 95.5021 189.923 96.8999 190.999 98.3037C195.169 103.781 199.331 109.261 203.485 114.743C207.035 119.461 210.383 124.413 214.116 129.052C215.079 130.24 216.061 131.404 217.095 132.538C218.414 133.994 219.775 135.652 221.383 136.826C222.991 137.999 224.856 139.094 226.519 140.331C227.912 141.435 229.105 142.747 230.05 144.215C231.083 145.882 231.192 147.768 232.075 149.436C233.622 152.383 237.445 151.895 238.755 149.081C240.571 145.179 236.601 136.741 236.601 136.741" stroke="#156C3E" stroke-width="1.28715" stroke-miterlimit="10"/>
<path d="M288.886 141.067H238.25" stroke="#156C3E" stroke-width="1.28715" stroke-miterlimit="10"/>
<path d="M134.365 82.1129L115.876 71.0641L115.6 70.8943C112.911 69.2428 109.888 68.1367 106.723 67.6452C103.558 67.154 100.319 67.2886 97.2113 68.0403C94.1039 68.7919 91.1954 70.1448 88.6699 72.0129C86.1444 73.8809 84.0568 76.2234 82.5388 78.8929L50.3954 133.706L39.3664 134.4C37.6623 134.51 36.0654 135.226 34.8986 136.404C33.7319 137.583 33.0825 139.136 33.0815 140.749V141.441" stroke="#156C3E" stroke-width="1.28715" stroke-miterlimit="10"/>
<path d="M100.446 33.6761C101.974 33.9581 102.551 33.8641 103.655 34.0702C103.74 34.0827 103.827 34.0687 103.902 34.0308C103.977 33.9929 104.037 33.9329 104.074 33.8595C104.11 33.7864 104.12 33.7043 104.103 33.6251C104.085 33.546 104.041 33.4748 103.976 33.4214L100.324 30.0861C99.3232 29.2811 98.6327 28.1866 98.3592 26.9722L98.3271 26.851C98.453 26.4383 98.6934 26.0654 99.0237 25.7703C99.354 25.4756 99.762 25.2698 100.205 25.1742C100.981 25.0554 101.778 25.1524 102.497 25.4532C103.688 25.8959 105.286 26.29 106.808 26.7843C108.912 27.485 110.68 28.8761 111.789 30.7047L111.93 30.9412C116.304 38.1195 121.307 44.9383 126.888 51.3256L138.765 65.1123" stroke="#156C3E" stroke-width="1.28715" stroke-miterlimit="10"/>
<path d="M102.342 51.5381C101.661 51.5381 100.999 51.3319 100.451 50.9499C99.9034 50.5679 99.4996 50.0303 99.2993 49.4157L96.2435 40.5167L93.5472 32.1088L90.0325 21.2844C89.8964 20.8645 89.8681 20.4203 89.9503 19.9882C90.0328 19.5562 90.2231 19.1487 90.5056 18.8003C90.7884 18.4519 91.1549 18.1721 91.5751 17.9844C91.9953 17.7967 92.4569 17.7066 92.9213 17.7218C93.5219 17.7382 94.1025 17.9298 94.5834 18.2703C95.0645 18.6105 95.4224 19.0829 95.608 19.6229L100.452 33.6764L105.379 47.5965C105.534 48.0486 105.575 48.5294 105.496 48.9991C105.417 49.4688 105.221 49.9142 104.925 50.2986C104.629 50.6834 104.24 50.996 103.791 51.2116C103.342 51.4268 102.846 51.5387 102.342 51.5381Z" fill="#6CCF00"/>
<path d="M102.342 51.5381C101.661 51.5381 100.999 51.3319 100.451 50.9499C99.9034 50.5679 99.4996 50.0303 99.2993 49.4157L96.2435 40.5167L93.5472 32.1088L90.0325 21.2844C89.8964 20.8645 89.8681 20.4203 89.9503 19.9882C90.0328 19.5562 90.2231 19.1487 90.5056 18.8003C90.7884 18.4519 91.1549 18.1721 91.5751 17.9844C91.9953 17.7967 92.4569 17.7066 92.9213 17.7218C93.5219 17.7382 94.1025 17.9298 94.5834 18.2703C95.0645 18.6105 95.4224 19.0829 95.608 19.6229L100.452 33.6764L105.379 47.5965C105.534 48.0486 105.575 48.5294 105.496 48.9991C105.417 49.4688 105.221 49.9142 104.925 50.2986C104.629 50.6834 104.24 50.996 103.791 51.2116C103.342 51.4269 102.846 51.5387 102.342 51.5381Z" stroke="#156C3E" stroke-width="1.28715" stroke-miterlimit="10"/>
<path d="M89.8534 37.9149C89.0898 37.8858 88.3502 37.6544 87.7189 37.2478C87.3741 37.0059 87.0843 36.7012 86.8666 36.3519C86.6487 36.0023 86.5075 35.6151 86.451 35.213C86.3942 34.811 86.4237 34.4023 86.5373 34.0114C86.6509 33.6203 86.8464 33.2546 87.1122 32.9363C87.5902 32.3796 88.2344 31.9718 88.9611 31.7659C89.891 31.4776 90.8963 31.4903 91.8178 31.8023C92.7988 32.2037 93.6019 32.9141 94.0904 33.8125" stroke="#156C3E" stroke-width="1.28715" stroke-miterlimit="10"/>
<path d="M91.7503 43.6991C90.9831 43.6927 90.2336 43.4826 89.5868 43.0927C89.236 42.8592 88.9381 42.5612 88.7112 42.217C88.4846 41.8726 88.3331 41.4887 88.266 41.0882C88.1989 40.6877 88.2175 40.2784 88.3212 39.8848C88.4246 39.4909 88.6104 39.121 88.8678 38.7963C89.3326 38.2281 89.9682 37.8054 90.691 37.5835C91.611 37.2736 92.6144 37.263 93.5414 37.5532C94.4626 37.8564 95.371 38.3961 95.8171 39.1996" stroke="#156C3E" stroke-width="1.28715" stroke-miterlimit="10"/>
<path d="M97.5798 44.4274C97.0287 43.737 96.2458 43.2443 95.3595 43.0293C94.473 42.8147 93.5357 42.8905 92.7008 43.2449C92.0649 43.5033 91.5251 43.935 91.1505 44.485C90.9444 44.7976 90.8064 45.1463 90.7451 45.5102C90.6841 45.8743 90.7004 46.246 90.7939 46.6038C90.8873 46.9616 91.0555 47.2982 91.2888 47.5935C91.5218 47.8888 91.8155 48.1371 92.1519 48.3236L92.5885 48.5449C92.5885 48.5449 95.2077 49.5394 99.5763 50.0155" stroke="#156C3E" stroke-width="1.28715" stroke-miterlimit="10"/>
<path d="M126.738 141.123C127.948 141.123 140.396 141.123 141.615 141.123C146.501 141.105 151.415 141.095 156.329 141.086C180.66 141.029 205.08 140.992 227.267 140.983" stroke="#156C3E" stroke-width="1.28715" stroke-miterlimit="10"/>
<path d="M238.219 140.974C245.627 140.974 249.745 140.974 256.438 140.974C267.351 140.992 277.186 141.019 285.525 141.058" stroke="#156C3E" stroke-width="1.28715" stroke-miterlimit="10"/>
<path d="M0 141.565C0.584192 141.565 45.4578 141.377 101.28 141.216" stroke="#156C3E" stroke-width="1.28715" stroke-miterlimit="10"/>
<path d="M171.214 38.6304C171.342 39.7947 170.508 40.7711 169.843 41.6625C167.74 44.468 165.192 46.95 162.287 49.0212C160.015 50.6919 156.243 53.542 153.473 51.1437C151.091 49.0728 152.629 45.2827 154.892 43.7182L154.921 43.7" stroke="#156C3E" stroke-width="1.28715" stroke-miterlimit="10"/>
<path d="M148.973 18.7163C148.973 18.7163 152.998 19.0832 153.64 22.3548" stroke="#156C3E" stroke-width="1.28715" stroke-miterlimit="10"/>
<path d="M147.098 28.2542C146.162 28.3958 145.207 28.3661 144.283 28.1663C144.108 28.1259 143.948 28.0459 143.813 27.9337C143.679 27.8212 143.576 27.6796 143.513 27.521C143.449 27.3625 143.428 27.1918 143.45 27.0238C143.473 26.8555 143.538 26.6951 143.641 26.5563C144.604 25.2798 145.567 24.0184 146.629 22.8177C146.793 22.6664 146.905 22.4721 146.95 22.2599C146.95 22.2599 146.908 18.2606 148.022 15.2862" stroke="#156C3E" stroke-width="1.28715" stroke-miterlimit="10"/>
<path d="M150.813 22.2635C150.954 21.6292 150.606 21.0231 150.035 20.91C149.464 20.7966 148.887 21.2186 148.746 21.8529C148.605 22.4872 148.953 23.093 149.524 23.2064C150.095 23.3198 150.672 22.8975 150.813 22.2635Z" fill="#156C3E"/>
<path d="M171.213 38.903C169.733 34.8492 169.053 32.7783 169.053 32.7783" stroke="#156C3E" stroke-width="1.28715" stroke-linecap="round" stroke-linejoin="round"/>
<path d="M154.923 37.548L154.9 51.5379" stroke="#156C3E" stroke-width="1.28715" stroke-miterlimit="10"/>
<path d="M145.621 28.343C145.621 28.343 146.655 36.3901 150.789 37.9152C154.923 39.4403 159.029 34.7346 159.029 34.7346" stroke="#156C3E" stroke-width="1.28715" stroke-linecap="round" stroke-linejoin="round"/>
<path d="M146.468 32.0027C147.004 32.3569 147.625 32.5791 148.274 32.6494C148.924 32.7198 149.582 32.6361 150.188 32.406" stroke="#156C3E" stroke-width="1.28715" stroke-linecap="round" stroke-linejoin="round"/>
<path d="M156.836 4.85292C156.838 4.23499 156.667 3.62767 156.342 3.0913C155.921 2.40212 155.272 1.86242 154.495 1.55497C153.717 1.24753 152.855 1.1893 152.039 1.38911C151.223 1.58892 150.5 2.03616 149.979 2.66167C149.458 3.28748 149.169 4.05701 149.155 4.85292" stroke="#156C3E" stroke-width="1.28715" stroke-miterlimit="10" stroke-linecap="round"/>
<path d="M154.715 10.1953C154.711 9.32 154.481 8.45921 154.045 7.68695C153.608 6.91499 152.979 6.25552 152.211 5.76555C148.359 3.31566 142.809 7.05719 143.91 11.2748C144.296 12.7453 145.416 13.8763 146.735 14.6737C149.165 16.1472 152.731 16.3504 154.195 13.57L154.217 13.5245C154.217 13.5245 154.538 16.0836 157.315 16.3928C157.674 16.445 158.04 16.4219 158.389 16.3252C158.737 16.2288 159.059 16.0608 159.331 15.8337C159.604 15.6066 159.82 15.3259 159.964 15.0111C160.109 14.6964 160.179 14.3556 160.168 14.0127C162.373 16.5384 162.701 20.0768 161.295 23.033C161.548 22.4994 162.935 22.7086 163.311 22.8662C164.986 23.5666 165.737 25.5587 165.211 27.1657C164.72 28.6635 163.359 29.8551 161.918 30.6889C161.796 30.7562 161.693 30.8505 161.617 30.9639C161.542 31.077 161.497 31.2056 161.487 31.3387C161.475 31.4718 161.499 31.6055 161.554 31.7286C161.61 31.8514 161.696 31.9596 161.805 32.0442C162.852 32.7956 164.1 33.2558 165.409 33.3735C166.718 33.4911 168.036 33.2613 169.214 32.7098C170.391 32.1582 171.383 31.3071 172.077 30.252C172.77 29.1968 173.138 27.9801 173.139 26.7382V26.6533C174.389 26.5056 175.55 25.9668 176.436 25.123C177.324 24.2792 177.886 23.1788 178.034 21.9979C178.182 20.8169 177.906 19.6232 177.252 18.6071C176.598 17.5911 175.602 16.8116 174.423 16.3928C174.843 15.8064 175.067 15.1145 175.065 14.4069C175.065 13.4418 174.659 12.5164 173.937 11.8342C173.215 11.1517 172.235 10.7684 171.213 10.7684" stroke="#156C3E" stroke-width="1.28715" stroke-linecap="round" stroke-linejoin="round"/>
<path d="M156.836 2.98273C157.7 1.85784 158.605 1.23325 160.184 1.23325C161.167 1.23416 162.124 1.52462 162.923 2.06433C163.722 2.60433 164.322 3.36628 164.64 4.24406C164.598 4.12278 165.924 3.67404 166.055 3.63765C166.576 3.49545 167.117 3.42602 167.66 3.43147C169.115 3.46968 170.499 4.03637 171.524 5.0142C172.548 5.99173 173.133 7.3049 173.158 8.67993C173.158 9.48797 172.957 10.2845 172.571 11.0055" stroke="#156C3E" stroke-width="1.28715" stroke-linecap="square" stroke-linejoin="round"/>
<path d="M173.139 26.6472V26.7321C173.139 28.5013 172.395 30.1978 171.07 31.4488C169.746 32.6998 167.95 33.4026 166.077 33.4026C164.877 33.4078 163.696 33.1161 162.652 32.5567C162.352 32.4093 162.066 32.2368 161.798 32.0412C161.688 31.9566 161.602 31.8481 161.547 31.7253C161.491 31.6022 161.467 31.4685 161.478 31.3351C161.488 31.202 161.533 31.0728 161.608 30.9594C161.683 30.8457 161.785 30.7508 161.907 30.6829C163.355 29.8582 164.716 28.6575 165.204 27.1657C165.353 26.7079 165.403 26.2264 165.352 25.7498C165.309 25.1409 165.098 24.5536 164.739 24.0463C164.38 23.5391 163.886 23.1301 163.307 22.8602C163.125 22.795 162.935 22.7511 162.742 22.7298C162.196 22.6449 161.458 22.654 161.291 23.033C162.152 21.2259 162.358 19.2011 161.878 17.2722C161.58 16.0751 160.995 14.9584 160.171 14.0067C160.183 14.3499 160.114 14.691 159.971 15.0063C159.827 15.3217 159.611 15.603 159.339 15.8304C159.066 16.0578 158.744 16.2255 158.395 16.3216C158.047 16.4177 157.679 16.4402 157.32 16.3868C154.531 16.0836 154.223 13.5185 154.223 13.5185C154.223 13.5185 154.204 13.5458 154.204 13.564C152.734 16.3413 149.171 16.1442 146.738 14.6707C145.876 14.1646 145.138 13.4906 144.574 12.6938C144.106 9.69207 146.927 7.04813 149.925 6.86924C150.153 5.00453 151.771 3.10951 153.735 3.10951C154.418 3.10769 155.089 3.27901 155.677 3.60525C156.266 3.9315 156.752 4.40116 157.083 4.96512C157.135 5.05335 157.181 5.14461 157.221 5.238C158.113 4.20711 159.526 3.11557 160.925 3.11557C161.906 3.11678 162.862 3.40665 163.66 3.94453C164.459 4.48242 165.06 5.24195 165.38 6.1173C165.38 5.98389 166.664 5.55334 166.79 5.51089C167.311 5.36778 167.852 5.29834 168.394 5.3047C169.341 5.32805 170.265 5.57547 171.084 6.02421C171.903 6.47295 172.589 7.10847 173.081 7.87284C173.13 8.13906 173.154 8.40891 173.151 8.67937C173.152 9.4874 172.951 10.2842 172.564 11.0049C173.004 11.1596 173.41 11.3921 173.758 11.6902C174.507 12.3081 174.968 13.1792 175.042 14.1158C175.042 14.2098 175.042 14.3038 175.042 14.3978C175.044 15.1055 174.82 15.7974 174.4 16.3838C174.862 16.5487 175.299 16.7701 175.7 17.0417C176.896 17.8558 177.703 19.0826 177.947 20.4558C178.001 20.7563 178.028 21.0607 178.027 21.3654C178.027 22.6555 177.532 23.9017 176.632 24.8732C175.733 25.8443 174.492 26.4747 173.139 26.6472Z" fill="#6CCF00"/>
<path d="M173.139 26.6472V26.7321C173.139 28.5013 172.395 30.1978 171.07 31.4488C169.746 32.6998 167.95 33.4026 166.077 33.4026C164.877 33.4078 163.696 33.1161 162.652 32.5567C164.1 31.732 165.461 30.5313 165.949 29.0425C166.123 28.4871 166.159 27.9013 166.056 27.3303C165.952 26.7594 165.711 26.2188 165.352 25.7498C165.309 25.1409 165.098 24.5536 164.739 24.0463C164.38 23.5391 163.886 23.1301 163.307 22.8602C163.125 22.795 162.935 22.7511 162.742 22.7298C163.09 20.8703 162.787 18.9543 161.878 17.2722C161.58 16.0751 160.995 14.9584 160.171 14.0067C160.183 14.3499 160.114 14.691 159.971 15.0063C159.827 15.3217 159.611 15.603 159.339 15.8304C159.066 16.0578 158.744 16.2255 158.395 16.3216C158.047 16.4177 157.679 16.4402 157.32 16.3868C154.531 16.0836 154.223 13.5185 154.223 13.5185C154.223 13.5185 154.204 13.5458 154.204 13.564C152.734 16.3413 149.171 16.1442 146.738 14.6707C145.876 14.1646 145.138 13.4906 144.574 12.6938C144.106 9.69207 146.927 7.04813 149.925 6.86924C150.153 5.00453 151.771 3.10951 153.735 3.10951C154.418 3.10769 155.089 3.27901 155.677 3.60525C156.266 3.9315 156.752 4.40116 157.083 4.96512C157.135 5.05335 157.181 5.14461 157.221 5.238C158.113 4.20711 159.526 3.11557 160.925 3.11557C161.906 3.11678 162.862 3.40665 163.66 3.94453C164.459 4.48242 165.06 5.24195 165.38 6.1173C165.38 5.98389 166.664 5.55334 166.79 5.51089C167.311 5.36778 167.852 5.29834 168.394 5.3047C169.341 5.32805 170.265 5.57547 171.084 6.02421C171.903 6.47295 172.589 7.10847 173.081 7.87284C173.13 8.13906 173.154 8.40891 173.151 8.67937C173.152 9.4874 172.951 10.2842 172.564 11.0049C173.004 11.1596 173.41 11.3921 173.758 11.6902C173.663 12.1041 173.512 12.5046 173.309 12.8818C173.999 13.1289 174.602 13.5546 175.048 14.1097C175.048 14.2037 175.048 14.2977 175.048 14.3917C175.05 15.0994 174.826 15.7913 174.406 16.3777C174.868 16.5427 175.305 16.764 175.706 17.0357C175.598 17.4677 175.41 17.8783 175.151 18.2485C176.326 18.659 177.319 19.4328 177.969 20.4437C178.023 20.7442 178.05 21.0486 178.05 21.3533C178.052 22.6486 177.555 23.9005 176.651 24.875C175.747 25.8492 174.498 26.4793 173.139 26.6472Z" fill="#6CCF00"/>
<path d="M148.973 18.7163C148.973 18.7163 152.998 19.0832 153.64 22.3548" stroke="#156C3E" stroke-width="1.28715" stroke-miterlimit="10"/>
<path d="M147.098 28.2542C146.162 28.3958 145.207 28.3661 144.283 28.1663C144.108 28.1259 143.948 28.0459 143.813 27.9337C143.679 27.8212 143.576 27.6796 143.513 27.521C143.449 27.3625 143.428 27.1918 143.45 27.0238C143.473 26.8555 143.538 26.6951 143.641 26.5563C144.604 25.2798 145.567 24.0184 146.629 22.8177C146.793 22.6664 146.905 22.4721 146.95 22.2599C146.95 22.2599 146.908 18.2606 148.022 15.2862" stroke="#156C3E" stroke-width="1.28715" stroke-miterlimit="10"/>
<path d="M150.813 22.2635C150.954 21.6292 150.606 21.0231 150.035 20.91C149.464 20.7966 148.887 21.2186 148.746 21.8529C148.605 22.4872 148.953 23.093 149.524 23.2064C150.095 23.3198 150.672 22.8975 150.813 22.2635Z" fill="#156C3E"/>
<path d="M171.213 38.903C169.733 34.8492 169.053 32.7783 169.053 32.7783" stroke="#156C3E" stroke-width="1.28715" stroke-linecap="round" stroke-linejoin="round"/>
<path d="M154.923 37.548L154.9 51.5379" stroke="#156C3E" stroke-width="1.28715" stroke-miterlimit="10"/>
<path d="M145.621 28.343C145.621 28.343 146.655 36.3901 150.789 37.9152C154.923 39.4403 159.029 34.7346 159.029 34.7346" stroke="#156C3E" stroke-width="1.28715" stroke-linecap="round" stroke-linejoin="round"/>
<path d="M146.468 32.0027C147.004 32.3569 147.625 32.5791 148.274 32.6494C148.924 32.7198 149.582 32.6361 150.188 32.406" stroke="#156C3E" stroke-width="1.28715" stroke-linecap="round" stroke-linejoin="round"/>
<path d="M156.836 4.85292C156.838 4.23499 156.667 3.62767 156.342 3.0913C155.921 2.40212 155.272 1.86242 154.495 1.55497C153.717 1.24753 152.855 1.1893 152.039 1.38911C151.223 1.58892 150.5 2.03616 149.979 2.66167C149.458 3.28748 149.169 4.05701 149.155 4.85292" stroke="#156C3E" stroke-width="1.28715" stroke-miterlimit="10" stroke-linecap="round"/>
<path d="M154.715 10.1953C154.711 9.32 154.481 8.45921 154.045 7.68695C153.608 6.91499 152.979 6.25552 152.211 5.76555C148.359 3.31566 142.809 7.05719 143.91 11.2748C144.296 12.7453 145.416 13.8763 146.735 14.6737C149.165 16.1472 152.731 16.3504 154.195 13.57L154.217 13.5245C154.217 13.5245 154.538 16.0836 157.315 16.3928C157.674 16.445 158.04 16.4219 158.389 16.3252C158.737 16.2288 159.059 16.0608 159.331 15.8337C159.604 15.6066 159.82 15.3259 159.964 15.0111C160.109 14.6964 160.179 14.3556 160.168 14.0127C162.373 16.5384 162.701 20.0768 161.295 23.033C161.548 22.4994 162.935 22.7086 163.311 22.8662C164.986 23.5666 165.737 25.5587 165.211 27.1657C164.72 28.6635 163.359 29.8551 161.918 30.6889C161.796 30.7562 161.693 30.8505 161.617 30.9639C161.542 31.077 161.497 31.2056 161.487 31.3387C161.475 31.4718 161.499 31.6055 161.554 31.7286C161.61 31.8514 161.696 31.9596 161.805 32.0442C162.852 32.7956 164.1 33.2558 165.409 33.3735C166.718 33.4911 168.036 33.2613 169.214 32.7098C170.391 32.1582 171.383 31.3071 172.077 30.252C172.77 29.1968 173.138 27.9801 173.139 26.7382V26.6533C174.389 26.5056 175.55 25.9668 176.436 25.123C177.324 24.2792 177.886 23.1788 178.034 21.9979C178.182 20.8169 177.906 19.6232 177.252 18.6071C176.598 17.5911 175.602 16.8116 174.423 16.3928C174.843 15.8064 175.067 15.1145 175.065 14.4069C175.065 13.4418 174.659 12.5164 173.937 11.8342C173.215 11.1517 172.235 10.7684 171.213 10.7684" stroke="#156C3E" stroke-width="1.28715" stroke-linecap="round" stroke-linejoin="round"/>
<path d="M156.836 2.98273C157.7 1.85784 158.605 1.23325 160.184 1.23325C161.167 1.23416 162.124 1.52462 162.923 2.06433C163.722 2.60433 164.322 3.36628 164.64 4.24406C164.598 4.12278 165.924 3.67404 166.055 3.63765C166.576 3.49545 167.117 3.42602 167.66 3.43147C169.115 3.46968 170.499 4.03637 171.524 5.0142C172.548 5.99173 173.133 7.3049 173.158 8.67993C173.158 9.48797 172.957 10.2845 172.571 11.0055" stroke="#156C3E" stroke-width="1.28715" stroke-linecap="square" stroke-linejoin="round"/>
</svg>
