<svg xmlns="http://www.w3.org/2000/svg" width="17" height="16" viewBox="0 0 17 16" fill="none">
  <path d="M11.6682 8.11902L10.5477 6.99783C10.6636 6.39212 10.4898 5.82508 10.0261 5.2967C9.5625 4.76832 8.96364 4.56212 8.22954 4.6781L7.10909 3.55691C7.32803 3.45381 7.55006 3.37648 7.77518 3.32493C8.00082 3.27338 8.24242 3.24761 8.5 3.24761C9.46591 3.24761 10.2871 3.58577 10.9635 4.2621C11.6393 4.93894 11.9773 5.76064 11.9773 6.72719C11.9773 6.98494 11.9515 7.2267 11.9 7.45249C11.8485 7.67776 11.7712 7.89994 11.6682 8.11902ZM14.1409 10.5547L13.0205 9.47219C13.5098 9.09846 13.9446 8.68916 14.3248 8.24429C14.7045 7.79993 15.0295 7.29423 15.3 6.72719C14.6561 5.42557 13.7319 4.39123 12.5275 3.62418C11.3235 2.85764 9.98106 2.47437 8.5 2.47437C8.12652 2.47437 7.75947 2.50014 7.39886 2.55169C7.03826 2.60324 6.68409 2.68057 6.33636 2.78367L5.13864 1.58514C5.66667 1.36606 6.20758 1.20162 6.76136 1.09182C7.31515 0.982531 7.8947 0.927889 8.5 0.927889C10.4447 0.927889 12.1769 1.46581 13.6966 2.54164C15.2163 3.61799 16.3174 5.01318 17 6.72719C16.7038 7.48754 16.3143 8.19325 15.8316 8.84432C15.3484 9.49488 14.7848 10.065 14.1409 10.5547ZM14.5273 15.3102L11.2818 12.1012C10.8311 12.243 10.3772 12.3494 9.92027 12.4206C9.46282 12.4912 8.98939 12.5265 8.5 12.5265C6.5553 12.5265 4.82311 11.9886 3.30341 10.9127C1.78371 9.83639 0.682576 8.44121 0 6.72719C0.270455 6.04416 0.611742 5.40933 1.02386 4.8227C1.43598 4.23658 1.90606 3.71155 2.43409 3.24761L0.309091 1.08254L1.39091 0L15.6091 14.2276L14.5273 15.3102ZM3.51591 4.33015C3.14242 4.66522 2.80114 5.03251 2.49205 5.43201C2.18295 5.83152 1.91894 6.26325 1.7 6.72719C2.34394 8.02881 3.26786 9.06289 4.47177 9.82943C5.6762 10.5965 7.01894 10.98 8.5 10.98C8.75758 10.98 9.00871 10.964 9.25341 10.9321C9.49811 10.8996 9.74924 10.864 10.0068 10.8254L9.31136 10.0908C9.1697 10.1294 9.03447 10.1583 8.90568 10.1774C8.77689 10.197 8.64167 10.2068 8.5 10.2068C7.53409 10.2068 6.71294 9.86861 6.03655 9.19228C5.36067 8.51544 5.02273 7.69374 5.02273 6.72719C5.02273 6.58543 5.03226 6.45011 5.05132 6.32124C5.07089 6.19237 5.1 6.05705 5.13864 5.91529L3.51591 4.33015Z" fill="#C6C6C6"/>
</svg>