<svg width="354" height="354" viewBox="0 0 354 354" fill="none" xmlns="http://www.w3.org/2000/svg">
<g clip-path="url(#clip0_824_12895)">
<path d="M193.073 314.055L199.027 303.749L196.483 296.843L210.943 283.123L221.674 264.549L219.858 256.132L234.131 242.984L244.615 224.838C251.907 212.243 242.792 196.388 228.208 196.388L125.18 196.333C110.596 196.333 101.426 212.132 108.773 224.783L120.451 244.997L134.001 257.352L132.129 265.212L144.068 285.878L157.217 297.564L155.119 305.006L160.314 314C167.551 326.65 185.781 326.65 193.073 314.055Z" fill="#24B467"/>
<path d="M181.49 272.081C165.676 272.622 149.517 270.393 132.257 265.435L120.508 245.097C143.026 253.49 162.524 257.099 180.955 256.468C198.717 255.86 215.918 251.301 234.281 242.725L221.621 264.638C208.368 269.084 195.156 271.613 181.49 272.081Z" fill="#0E4829"/>
<path d="M177.733 307.145C170.168 307.398 162.713 306.664 155.144 305.052L143.886 285.564C156 289.914 166.666 291.885 177.209 291.532C187.727 291.179 198.576 288.498 211.039 282.956L198.947 303.886C191.791 305.82 184.781 306.909 177.733 307.145Z" fill="#0E4829"/>
<path d="M247.487 213.126C247.487 197.659 215.778 185.174 176.666 185.174C137.554 185.174 105.9 197.603 105.9 213.071C105.9 228.539 137.609 241.024 176.721 241.024C215.833 241.024 247.487 228.484 247.487 213.126Z" fill="#0E4829"/>
<path d="M104.298 152.801C123.964 158.767 140.04 172.081 149.652 190.201C157.883 205.613 160.479 223.015 157.331 239.974C150.867 239.256 144.79 238.151 139.211 236.77C141.642 223.843 139.653 210.585 133.41 198.818C126.118 185.008 113.91 174.898 98.9943 170.368C94.0777 168.877 91.3708 163.739 92.8623 158.933C94.3539 154.017 99.4914 151.31 104.298 152.801Z" fill="#F70A8D"/>
<path d="M214.686 146.74C216.879 128.044 228.746 112.817 244.757 105.505C248.871 103.626 250.683 98.7676 248.804 94.6535C246.925 90.5393 242.067 88.7274 237.953 90.6064C216.951 100.198 201.307 120.216 198.418 144.831C197.891 149.323 201.105 153.392 205.597 153.919C210.09 154.446 214.158 151.232 214.686 146.74Z" fill="#F70A8D"/>
<path d="M86.7301 197.106C90.2692 193.567 90.2692 187.829 86.7301 184.29C83.191 180.751 77.4529 180.751 73.9138 184.29C70.3747 187.829 70.3747 193.567 73.9138 197.106C77.4529 200.645 83.191 200.645 86.7301 197.106Z" fill="#F70A8D"/>
<path d="M191.47 79.5494C195.01 83.0885 195.01 88.8265 191.47 92.3657C187.931 95.9048 182.193 95.9048 178.654 92.3657C175.115 88.8266 175.115 83.0885 178.654 79.5494C182.193 76.0102 187.931 76.0102 191.47 79.5494Z" fill="#F70A8D"/>
<path d="M90.8738 129.654C93.8027 132.583 93.8027 137.332 90.8738 140.261C87.9448 143.19 83.1961 143.19 80.2672 140.261C77.3382 137.332 77.3382 132.583 80.2672 129.654C83.1961 126.725 87.9448 126.725 90.8738 129.654Z" fill="#24B467"/>
<path d="M275.605 170.865C278.565 173.825 278.565 178.623 275.605 181.582C272.646 184.542 267.848 184.542 264.888 181.582C261.929 178.623 261.929 173.825 264.888 170.865C267.848 167.906 272.646 167.906 275.605 170.865Z" fill="#24B467"/>
<path d="M141.696 79.4943C140.039 79.6048 138.437 80.2125 137.166 81.3725C134.018 84.1899 133.741 88.996 136.504 92.2001C142.194 98.6635 148.988 113.855 151.088 119.159C151.115 119.186 151.129 119.228 151.143 119.269C151.157 119.31 151.17 119.352 151.198 119.38C151.632 120.405 152.035 121.441 152.406 122.486C151.136 122.344 149.868 122.321 148.602 122.418C145.674 122.584 142.746 123.412 139.818 124.904L139.597 125.014C129.653 129.986 125.565 142.14 130.593 152.139C133.023 157 137.166 160.591 142.304 162.303C147.442 164.016 152.911 163.629 157.772 161.198C158.294 160.937 158.774 160.623 159.207 160.265C162.752 158.227 165.48 155.552 167.382 152.254C167.983 153.169 168.554 154.107 169.097 155.066C171.196 158.712 175.892 159.983 179.538 157.884C183.184 155.785 184.454 151.089 182.355 147.443C179.1 141.698 175.056 136.576 170.26 132.112C169.533 125.637 167.863 119.374 165.285 113.358L165.169 113.08C163.715 109.577 156.087 91.2008 147.939 81.9802C146.281 80.2125 143.961 79.3286 141.696 79.4943ZM146.723 138.438C148.752 137.424 151.165 136.718 155.312 139.53C155.117 144.777 153.095 146.246 151.032 147.277C150.784 147.401 150.546 147.537 150.318 147.684C149.286 148.056 148.139 148.038 147.11 147.664C145.84 147.277 144.845 146.393 144.293 145.178C143.077 142.747 144.072 139.764 146.502 138.549L146.723 138.438Z" fill="#00A6ED"/>
<path d="M201.248 176.169C214.838 152.083 236.935 134.737 263.562 127.335C268.534 126.009 273.561 128.826 274.942 133.632C276.323 138.549 273.45 143.631 268.534 145.012C246.713 151.144 228.483 165.397 217.324 185.174C208.098 201.47 204.673 219.921 207.159 238.207C201.469 239.256 195.337 240.085 188.929 240.527C185.946 218.43 190.089 195.946 201.248 176.169Z" fill="#00A6ED"/>
<path d="M185.666 178.773C189.175 182.281 189.175 187.97 185.666 191.478C182.157 194.987 176.469 194.987 172.96 191.478C169.452 187.97 169.452 182.281 172.96 178.773C176.469 175.264 182.157 175.264 185.666 178.773Z" fill="#00A6ED"/>
</g>
<defs>
<clipPath id="clip0_824_12895">
<rect width="250" height="250" fill="white" transform="translate(0 176.777) rotate(-45)"/>
</clipPath>
</defs>
</svg>
