<svg width="327" height="190" viewBox="0 0 327 190" fill="none" xmlns="http://www.w3.org/2000/svg">
<g clip-path="url(#clip0_1010_21209)">
<rect width="327" height="190" rx="16" fill="#1C1D21"/>
<path d="M34.6564 21.7202V30.8615H32.5363V26.6648L32.606 23.8532H32.5781L30.3046 30.8615H28.3658L26.0922 23.8532H26.0643L26.1341 26.6648V30.8615H24V21.7202H27.4173L28.8679 26.374L29.384 28.313H29.4119L29.9419 26.3878L31.3786 21.7202H34.6564Z" fill="white"/>
<path d="M39.8064 23.7978C40.541 23.7978 41.1827 23.9409 41.7313 24.2271C42.2892 24.5042 42.7216 24.9151 43.0285 25.4598C43.3446 25.9954 43.5027 26.6417 43.5027 27.3989C43.5027 28.156 43.3446 28.807 43.0285 29.3518C42.7216 29.8874 42.2892 30.2982 41.7313 30.5845C41.1827 30.8615 40.541 31 39.8064 31C39.0904 31 38.4535 30.8615 37.8955 30.5845C37.3376 30.2982 36.9006 29.8874 36.5844 29.3518C36.2776 28.807 36.1241 28.156 36.1241 27.3989C36.1241 26.6417 36.2776 25.9954 36.5844 25.4598C36.9006 24.9151 37.3376 24.5042 37.8955 24.2271C38.4535 23.9409 39.0904 23.7978 39.8064 23.7978ZM39.8064 25.4737C39.5368 25.4737 39.3043 25.5383 39.109 25.6676C38.9138 25.7969 38.765 26.0046 38.6627 26.2909C38.5604 26.5771 38.5093 26.9464 38.5093 27.3989C38.5093 27.8513 38.5604 28.2207 38.6627 28.5069C38.765 28.7839 38.9138 28.9917 39.109 29.1302C39.3043 29.2595 39.5368 29.3241 39.8064 29.3241C40.0854 29.3241 40.3225 29.2595 40.5178 29.1302C40.7131 28.9917 40.8619 28.7839 40.9641 28.5069C41.0664 28.2207 41.1176 27.8513 41.1176 27.3989C41.1176 26.9464 41.0664 26.5771 40.9641 26.2909C40.8619 26.0046 40.7131 25.7969 40.5178 25.6676C40.3225 25.5383 40.0854 25.4737 39.8064 25.4737Z" fill="white"/>
<path d="M48.1563 23.7978C48.8909 23.7978 49.5325 23.9409 50.0811 24.2271C50.639 24.5042 51.0714 24.9151 51.3783 25.4598C51.6945 25.9954 51.8525 26.6417 51.8525 27.3989C51.8525 28.156 51.6945 28.807 51.3783 29.3518C51.0714 29.8874 50.639 30.2982 50.0811 30.5845C49.5325 30.8615 48.8909 31 48.1563 31C47.4403 31 46.8033 30.8615 46.2454 30.5845C45.6874 30.2982 45.2504 29.8874 44.9342 29.3518C44.6274 28.807 44.474 28.156 44.474 27.3989C44.474 26.6417 44.6274 25.9954 44.9342 25.4598C45.2504 24.9151 45.6874 24.5042 46.2454 24.2271C46.8033 23.9409 47.4403 23.7978 48.1563 23.7978ZM48.1563 25.4737C47.8866 25.4737 47.6541 25.5383 47.4589 25.6676C47.2636 25.7969 47.1148 26.0046 47.0125 26.2909C46.9102 26.5771 46.8591 26.9464 46.8591 27.3989C46.8591 27.8513 46.9102 28.2207 47.0125 28.5069C47.1148 28.7839 47.2636 28.9917 47.4589 29.1302C47.6541 29.2595 47.8866 29.3241 48.1563 29.3241C48.4352 29.3241 48.6724 29.2595 48.8676 29.1302C49.0629 28.9917 49.2117 28.7839 49.314 28.5069C49.4163 28.2207 49.4674 27.8513 49.4674 27.3989C49.4674 26.9464 49.4163 26.5771 49.314 26.2909C49.2117 26.0046 49.0629 25.7969 48.8676 25.6676C48.6724 25.5383 48.4352 25.4737 48.1563 25.4737Z" fill="white"/>
<path d="M55.5297 21V28.5069C55.5297 28.8116 55.5809 29.0286 55.6832 29.1579C55.7855 29.2872 55.9575 29.3518 56.1992 29.3518C56.3387 29.3518 56.455 29.3426 56.548 29.3241C56.6409 29.3056 56.7525 29.2779 56.8827 29.241L56.7293 30.6537C56.5619 30.7553 56.3434 30.8384 56.0737 30.903C55.8041 30.9677 55.539 31 55.2787 31C54.5348 31 53.9954 30.8292 53.6607 30.4875C53.3259 30.1459 53.1585 29.5873 53.1585 28.8116V21H55.5297Z" fill="white"/>
<path d="M61.7501 26.4709C61.7501 26.1477 61.6571 25.8938 61.4711 25.7091C61.2944 25.5152 61.0527 25.4183 60.7458 25.4183C60.4389 25.4183 60.1739 25.4968 59.9508 25.6537C59.7369 25.8015 59.5881 26.0693 59.5044 26.4571L57.4959 25.9861C57.6261 25.3213 57.9701 24.7904 58.528 24.3934C59.086 23.9963 59.8717 23.7978 60.8853 23.7978C61.5641 23.7978 62.1406 23.8994 62.6149 24.1025C63.0984 24.2964 63.4657 24.5919 63.7168 24.9889C63.9771 25.3767 64.1073 25.8569 64.1073 26.4294V28.964C64.1073 29.3241 64.27 29.5042 64.5955 29.5042C64.7629 29.5042 64.8977 29.4857 65 29.4488L64.8605 30.7922C64.5816 30.9215 64.2422 30.9861 63.8423 30.9861C63.4797 30.9861 63.1588 30.9307 62.8799 30.8199C62.6009 30.6999 62.3824 30.5245 62.2243 30.2936C62.0662 30.0536 61.9872 29.7535 61.9872 29.3934V29.3103L62.2522 29.2133C62.2522 29.6103 62.1313 29.9428 61.8896 30.2105C61.6571 30.4783 61.3502 30.6768 60.969 30.8061C60.597 30.9354 60.2065 31 59.7973 31C59.3231 31 58.9093 30.9261 58.5559 30.7784C58.2026 30.6307 57.9283 30.4183 57.733 30.1413C57.547 29.855 57.454 29.5042 57.454 29.0886C57.454 28.59 57.6028 28.1791 57.9004 27.856C58.2072 27.5235 58.6861 27.2927 59.337 27.1634L61.9732 26.6233L61.9593 27.8698L60.6203 28.1468C60.3413 28.2022 60.1321 28.2853 59.9926 28.3961C59.8624 28.4977 59.7973 28.6547 59.7973 28.867C59.7973 29.0702 59.8717 29.2225 60.0205 29.3241C60.1693 29.4257 60.346 29.4765 60.5505 29.4765C60.7086 29.4765 60.8574 29.4534 60.9969 29.4072C61.1457 29.361 61.2758 29.2918 61.3874 29.1994C61.499 29.0979 61.5873 28.9732 61.6524 28.8255C61.7175 28.6777 61.7501 28.5023 61.7501 28.2992V26.4709Z" fill="white"/>
<path d="M284.222 30.8323H281.734L283.289 21.1733H285.777L284.222 30.8323Z" fill="white"/>
<path d="M279.64 21.1733L277.267 27.8167L276.986 26.3852L276.15 22.0338C276.15 22.0338 276.048 21.1733 274.968 21.1733H271.046L271 21.3361C271.918 21.5691 272.796 21.942 273.603 22.4421L275.766 30.8323H278.359L282.317 21.1733H279.64Z" fill="white"/>
<path d="M299.214 30.8317H301.5L299.508 21.1728H297.506C297.264 21.154 297.022 21.2138 296.815 21.3434C296.609 21.4731 296.448 21.6658 296.358 21.8938L292.645 30.8317H295.24L295.752 29.3976H298.922L299.214 30.8317ZM296.475 27.4157L297.785 23.7982L298.518 27.4157H296.475Z" fill="white"/>
<path d="M292.84 23.4961L293.195 21.4289C292.477 21.1662 291.721 21.0214 290.958 21C289.723 21 286.79 21.5452 286.79 24.199C286.79 26.6951 290.231 26.7261 290.231 28.0362C290.231 29.3463 287.145 29.1111 286.125 28.2946L285.754 30.4522C286.644 30.83 287.602 31.0165 288.567 31C290.265 31 292.827 30.1111 292.827 27.6925C292.827 25.1809 289.354 24.9457 289.354 23.8553C289.354 22.7649 291.776 22.9018 292.84 23.4961Z" fill="white"/>
<path d="M276.986 26.3878L276.15 22.0338C276.15 22.0338 276.048 21.1733 274.968 21.1733H271.046L271 21.3361C272.351 21.6842 273.611 22.3232 274.695 23.2095C275.723 24.0454 276.514 25.1421 276.986 26.3878Z" fill="white"/>
<path d="M21.048 149.32C23.64 149.32 25.848 149.736 27.672 150.568C29.496 151.4 30.888 152.6 31.848 154.168C32.808 155.736 33.288 157.64 33.288 159.88C33.288 162.12 32.808 164.024 31.848 165.592C30.888 167.16 29.496 168.36 27.672 169.192C25.848 170.024 23.64 170.44 21.048 170.44H14.76V181H6.504V149.32H21.048ZM19.752 164.248C21.48 164.248 22.776 163.896 23.64 163.192C24.536 162.456 24.984 161.352 24.984 159.88C24.984 158.408 24.536 157.32 23.64 156.616C22.776 155.88 21.48 155.512 19.752 155.512H14.76V164.248H19.752ZM37.9905 181V146.824H46.1505V161.368C46.8545 159.768 47.8625 158.568 49.1745 157.768C50.4865 156.936 52.0065 156.52 53.7345 156.52C55.3985 156.52 56.8385 156.84 58.0545 157.48C59.3025 158.12 60.2785 159.064 60.9825 160.312C61.6865 161.56 62.0385 163.128 62.0385 165.016V181H53.8785V167.272C53.8785 165.544 53.5585 164.36 52.9185 163.72C52.3105 163.048 51.4945 162.712 50.4705 162.712C49.7025 162.712 48.9825 162.904 48.3105 163.288C47.6385 163.672 47.1105 164.28 46.7265 165.112C46.3425 165.944 46.1505 167.032 46.1505 168.376V181H37.9905ZM90.9158 157L82.1798 181C81.2838 183.528 80.3078 185.544 79.2518 187.048C78.1958 188.552 76.9478 189.64 75.5078 190.312C74.0678 190.984 72.3398 191.32 70.3238 191.32C68.9798 191.32 67.7478 191.176 66.6278 190.888C65.5078 190.6 64.5318 190.2 63.6997 189.688L65.3318 184.168C65.9078 184.584 66.5158 184.872 67.1558 185.032C67.7958 185.224 68.6118 185.32 69.6038 185.32C70.5318 185.32 71.2838 185.16 71.8598 184.84C72.4678 184.52 72.9478 183.912 73.2998 183.016L73.9238 181.528L71.1398 175L63.9398 157H72.9158L76.6118 170.68L77.7638 175.768L79.1078 170.488L82.8038 157H90.9158ZM103.477 181.48C101.077 181.48 98.8368 181.096 96.7568 180.328C94.7088 179.528 93.0128 178.392 91.6688 176.92L95.5088 172.408C96.3088 173.432 97.3648 174.296 98.6768 175C100.021 175.672 101.509 176.008 103.141 176.008C104.133 176.008 104.949 175.864 105.589 175.576C106.229 175.288 106.549 174.84 106.549 174.232C106.549 173.784 106.389 173.432 106.069 173.176C105.749 172.888 105.109 172.648 104.149 172.456L100.789 171.784C97.7808 171.176 95.6368 170.28 94.3568 169.096C93.1088 167.88 92.4848 166.296 92.4848 164.344C92.4848 163.032 92.8848 161.784 93.6848 160.6C94.4848 159.384 95.7168 158.408 97.3808 157.672C99.0448 156.904 101.173 156.52 103.765 156.52C106.197 156.52 108.341 156.872 110.197 157.576C112.053 158.28 113.525 159.304 114.613 160.648L110.725 165.064C109.957 164.104 108.965 163.352 107.749 162.808C106.533 162.264 105.317 161.992 104.101 161.992C103.333 161.992 102.677 162.072 102.133 162.232C101.621 162.36 101.237 162.552 100.981 162.808C100.725 163.064 100.597 163.384 100.597 163.768C100.597 164.184 100.789 164.552 101.173 164.872C101.589 165.16 102.341 165.416 103.429 165.64L107.797 166.504C110.261 166.952 112.037 167.768 113.125 168.952C114.213 170.136 114.757 171.56 114.757 173.224C114.757 174.792 114.341 176.2 113.509 177.448C112.677 178.696 111.429 179.688 109.765 180.424C108.101 181.128 106.005 181.48 103.477 181.48ZM123.071 154.216C121.407 154.216 120.191 153.912 119.423 153.304C118.687 152.664 118.319 151.672 118.319 150.328C118.319 148.952 118.687 147.96 119.423 147.352C120.191 146.712 121.407 146.392 123.071 146.392C124.703 146.392 125.903 146.712 126.671 147.352C127.439 147.96 127.823 148.952 127.823 150.328C127.823 151.672 127.439 152.664 126.671 153.304C125.903 153.912 124.703 154.216 123.071 154.216ZM127.151 157V181H118.991V157H127.151ZM144.335 156.52C146.767 156.52 148.783 156.872 150.383 157.576C152.015 158.248 153.279 159.16 154.175 160.312C155.103 161.432 155.679 162.648 155.903 163.96L148.367 166.456C148.143 165.08 147.727 164.056 147.119 163.384C146.543 162.68 145.695 162.328 144.575 162.328C143.551 162.328 142.687 162.568 141.983 163.048C141.311 163.496 140.799 164.232 140.447 165.256C140.095 166.248 139.919 167.528 139.919 169.096C139.919 170.664 140.111 171.944 140.495 172.936C140.879 173.896 141.423 174.6 142.127 175.048C142.831 175.464 143.663 175.672 144.623 175.672C145.423 175.672 146.079 175.528 146.591 175.24C147.135 174.92 147.583 174.472 147.935 173.896C148.287 173.32 148.511 172.616 148.607 171.784L155.951 174.136C155.727 175.544 155.119 176.808 154.127 177.928C153.167 179.016 151.887 179.88 150.287 180.52C148.687 181.16 146.815 181.48 144.671 181.48C142.047 181.48 139.759 181 137.807 180.04C135.855 179.048 134.351 177.624 133.295 175.768C132.239 173.88 131.711 171.624 131.711 169C131.711 166.376 132.239 164.136 133.295 162.28C134.351 160.392 135.823 158.968 137.711 158.008C139.631 157.016 141.839 156.52 144.335 156.52ZM173.586 165.784C173.586 164.664 173.266 163.784 172.626 163.144C172.018 162.472 171.186 162.136 170.13 162.136C169.074 162.136 168.162 162.408 167.394 162.952C166.658 163.464 166.146 164.392 165.858 165.736L158.946 164.104C159.394 161.8 160.578 159.96 162.498 158.584C164.418 157.208 167.122 156.52 170.61 156.52C172.946 156.52 174.93 156.872 176.562 157.576C178.226 158.248 179.49 159.272 180.354 160.648C181.25 161.992 181.698 163.656 181.698 165.64V174.424C181.698 175.672 182.258 176.296 183.378 176.296C183.954 176.296 184.418 176.232 184.77 176.104L184.29 180.76C183.33 181.208 182.162 181.432 180.786 181.432C179.538 181.432 178.434 181.24 177.474 180.856C176.514 180.44 175.762 179.832 175.218 179.032C174.674 178.2 174.402 177.16 174.402 175.912V175.624L175.314 175.288C175.314 176.664 174.898 177.816 174.066 178.744C173.266 179.672 172.21 180.36 170.898 180.808C169.618 181.256 168.274 181.48 166.866 181.48C165.234 181.48 163.81 181.224 162.594 180.712C161.378 180.2 160.434 179.464 159.762 178.504C159.122 177.512 158.802 176.296 158.802 174.856C158.802 173.128 159.314 171.704 160.338 170.584C161.394 169.432 163.042 168.632 165.282 168.184L174.354 166.312L174.306 170.632L169.698 171.592C168.738 171.784 168.018 172.072 167.538 172.456C167.09 172.808 166.866 173.352 166.866 174.088C166.866 174.792 167.122 175.32 167.634 175.672C168.146 176.024 168.754 176.2 169.458 176.2C170.002 176.2 170.514 176.12 170.994 175.96C171.506 175.8 171.954 175.56 172.338 175.24C172.722 174.888 173.026 174.456 173.25 173.944C173.474 173.432 173.586 172.824 173.586 172.12V165.784ZM196.055 146.824V172.84C196.055 173.896 196.231 174.648 196.583 175.096C196.935 175.544 197.527 175.768 198.359 175.768C198.839 175.768 199.239 175.736 199.559 175.672C199.879 175.608 200.263 175.512 200.711 175.384L200.183 180.28C199.607 180.632 198.855 180.92 197.927 181.144C196.999 181.368 196.087 181.48 195.191 181.48C192.631 181.48 190.775 180.888 189.623 179.704C188.471 178.52 187.895 176.584 187.895 173.896V146.824H196.055ZM245.428 171.928C244.82 174.136 243.844 175.96 242.5 177.4C241.156 178.808 239.556 179.848 237.7 180.52C235.844 181.16 233.796 181.48 231.556 181.48C228.356 181.48 225.588 180.84 223.252 179.56C220.916 178.248 219.124 176.376 217.876 173.944C216.628 171.512 216.004 168.584 216.004 165.16C216.004 161.736 216.628 158.808 217.876 156.376C219.124 153.944 220.916 152.088 223.252 150.808C225.588 149.496 228.34 148.84 231.508 148.84C233.716 148.84 235.748 149.16 237.604 149.8C239.46 150.408 241.028 151.352 242.308 152.632C243.588 153.912 244.5 155.56 245.044 157.576L237.796 160.504C237.348 158.52 236.612 157.16 235.588 156.424C234.596 155.688 233.332 155.32 231.796 155.32C230.292 155.32 228.98 155.688 227.86 156.424C226.772 157.16 225.924 158.264 225.316 159.736C224.74 161.176 224.452 162.984 224.452 165.16C224.452 167.304 224.724 169.112 225.268 170.584C225.812 172.056 226.628 173.16 227.716 173.896C228.836 174.632 230.212 175 231.844 175C233.38 175 234.676 174.584 235.732 173.752C236.82 172.888 237.556 171.576 237.94 169.816L245.428 171.928ZM262.836 165.784C262.836 164.664 262.516 163.784 261.876 163.144C261.268 162.472 260.436 162.136 259.38 162.136C258.324 162.136 257.412 162.408 256.644 162.952C255.908 163.464 255.396 164.392 255.108 165.736L248.196 164.104C248.644 161.8 249.828 159.96 251.748 158.584C253.668 157.208 256.372 156.52 259.86 156.52C262.196 156.52 264.18 156.872 265.812 157.576C267.476 158.248 268.74 159.272 269.604 160.648C270.5 161.992 270.948 163.656 270.948 165.64V174.424C270.948 175.672 271.508 176.296 272.628 176.296C273.204 176.296 273.668 176.232 274.02 176.104L273.54 180.76C272.58 181.208 271.412 181.432 270.036 181.432C268.788 181.432 267.684 181.24 266.724 180.856C265.764 180.44 265.012 179.832 264.468 179.032C263.924 178.2 263.652 177.16 263.652 175.912V175.624L264.564 175.288C264.564 176.664 264.148 177.816 263.316 178.744C262.516 179.672 261.46 180.36 260.148 180.808C258.868 181.256 257.524 181.48 256.116 181.48C254.484 181.48 253.06 181.224 251.844 180.712C250.628 180.2 249.684 179.464 249.012 178.504C248.372 177.512 248.052 176.296 248.052 174.856C248.052 173.128 248.564 171.704 249.588 170.584C250.644 169.432 252.292 168.632 254.532 168.184L263.604 166.312L263.556 170.632L258.948 171.592C257.988 171.784 257.268 172.072 256.788 172.456C256.34 172.808 256.116 173.352 256.116 174.088C256.116 174.792 256.372 175.32 256.884 175.672C257.396 176.024 258.004 176.2 258.708 176.2C259.252 176.2 259.764 176.12 260.244 175.96C260.756 175.8 261.204 175.56 261.588 175.24C261.972 174.888 262.276 174.456 262.5 173.944C262.724 173.432 262.836 172.824 262.836 172.12V165.784ZM277.241 181V157H284.441L284.777 162.184C285.385 160.392 286.281 159 287.465 158.008C288.681 157.016 290.217 156.52 292.073 156.52C292.681 156.52 293.193 156.568 293.609 156.664C294.057 156.76 294.409 156.888 294.665 157.048L293.849 163.768C293.529 163.64 293.113 163.544 292.601 163.48C292.121 163.384 291.529 163.336 290.825 163.336C289.865 163.336 288.969 163.544 288.137 163.96C287.305 164.376 286.633 165 286.121 165.832C285.641 166.632 285.401 167.656 285.401 168.904V181H277.241ZM306.416 181.48C304.432 181.48 302.688 181 301.184 180.04C299.712 179.048 298.56 177.624 297.728 175.768C296.928 173.912 296.528 171.688 296.528 169.096C296.528 166.408 296.944 164.136 297.776 162.28C298.64 160.424 299.824 159 301.328 158.008C302.864 157.016 304.624 156.52 306.608 156.52C308.784 156.52 310.528 157.192 311.84 158.536C313.184 159.848 314.048 161.528 314.432 163.576L313.664 164.584V146.824H321.824V181H314.528L314 172.84L314.96 173.56C314.768 175.16 314.272 176.552 313.472 177.736C312.704 178.92 311.712 179.848 310.496 180.52C309.312 181.16 307.952 181.48 306.416 181.48ZM309.248 175.48C310.176 175.48 310.96 175.24 311.6 174.76C312.272 174.248 312.784 173.496 313.136 172.504C313.488 171.512 313.664 170.296 313.664 168.856C313.664 167.512 313.488 166.376 313.136 165.448C312.816 164.488 312.32 163.768 311.648 163.288C311.008 162.776 310.224 162.52 309.296 162.52C307.888 162.52 306.768 163.048 305.936 164.104C305.136 165.128 304.736 166.76 304.736 169C304.736 171.24 305.136 172.888 305.936 173.944C306.736 174.968 307.84 175.48 309.248 175.48Z" fill="url(#paint0_linear_1010_21209)"/>
</g>
<defs>
<linearGradient id="paint0_linear_1010_21209" x1="164" y1="116" x2="163.52" y2="188.997" gradientUnits="userSpaceOnUse">
<stop stop-color="white" stop-opacity="0.82"/>
<stop offset="0.948367" stop-color="white" stop-opacity="0"/>
</linearGradient>
<clipPath id="clip0_1010_21209">
<rect width="327" height="190" rx="16" fill="white"/>
</clipPath>
</defs>
</svg>
