<svg width="32" height="33" viewBox="0 0 32 33" fill="none" xmlns="http://www.w3.org/2000/svg">
<path fill-rule="evenodd" clip-rule="evenodd" d="M21.9165 3.08153C22.7895 3.08153 23.6264 3.42831 24.2376 4.04117L28.3721 8.15461C28.9877 8.76704 29.3335 9.59767 29.3335 10.4638C29.3335 11.3299 28.9877 12.1605 28.3721 12.7729L13.2768 27.7865C12.3454 28.8553 11.0253 29.512 9.51288 29.6152H2.66675V28.2887L2.67108 22.6973C2.78467 21.2986 3.4383 19.9979 4.43541 19.1238L19.5939 4.04277C20.2086 3.42753 21.0446 3.08153 21.9165 3.08153ZM9.41873 26.9655C10.131 26.9153 10.7941 26.5855 11.3265 25.9796L21.409 15.9485L16.4032 10.968L6.26155 21.0555C5.72135 21.5308 5.38716 22.1958 5.33341 22.8042V26.963L9.41873 26.9655ZM18.289 9.09224L23.2946 14.0725L26.4865 10.8969C26.6019 10.7821 26.6668 10.6262 26.6668 10.4638C26.6668 10.3013 26.6019 10.1455 26.4865 10.0306L22.3482 5.91348C22.2341 5.79899 22.0787 5.73459 21.9165 5.73459C21.7544 5.73459 21.599 5.79899 21.4848 5.91348L18.289 9.09224Z" fill="white"/>
</svg>
