<svg width="40" height="40" viewBox="0 0 40 40" fill="none" xmlns="http://www.w3.org/2000/svg">
<rect width="40" height="40" rx="20" fill="#D5F7E5"/>
<path d="M31.75 23.8L25.8875 21.3C25.585 21.1644 25.253 21.1082 24.9227 21.1366C24.5924 21.1651 24.2749 21.2772 24 21.4625L20.8625 23.55C18.9503 22.6213 17.4021 21.0819 16.4625 19.175L18.5375 16C18.7216 15.7249 18.834 15.4081 18.8645 15.0785C18.8951 14.7488 18.8428 14.4168 18.7125 14.1125L16.2 8.25001C16.0247 7.85415 15.7278 7.52443 15.3525 7.30866C14.9771 7.0929 14.5428 7.0023 14.1125 7.05001C12.4245 7.27114 10.8742 8.09773 9.7499 9.37608C8.62559 10.6544 8.00375 12.2976 8 14C8 23.925 16.075 32 26 32C27.7024 31.9963 29.3456 31.3744 30.6239 30.2501C31.9023 29.1258 32.7289 27.5755 32.95 25.8875C32.9977 25.4572 32.9071 25.0229 32.6913 24.6475C32.4756 24.2722 32.1459 23.9753 31.75 23.8Z" fill="#6CCF00"/>
<path d="M23.6745 9.96246C25.1967 10.3783 26.5841 11.1839 27.6998 12.2996C28.8156 13.4154 29.6212 14.8028 30.037 16.325C30.0922 16.5387 30.2165 16.7281 30.3906 16.8638C30.5647 16.9994 30.7788 17.0737 30.9995 17.075C31.0884 17.0748 31.1767 17.0622 31.262 17.0375C31.3891 17.0042 31.5083 16.9459 31.6127 16.866C31.717 16.7861 31.8043 16.6861 31.8695 16.5721C31.9346 16.458 31.9764 16.332 31.9923 16.2016C32.0082 16.0712 31.9979 15.9389 31.962 15.8125C31.4621 13.9483 30.4804 12.2485 29.1157 10.8838C27.751 9.51907 26.0512 8.53743 24.187 8.03746C24.0566 7.98994 23.9177 7.9701 23.7791 7.9792C23.6406 7.98831 23.5055 8.02616 23.3824 8.09034C23.2593 8.15452 23.1509 8.24364 23.0641 8.35201C22.9774 8.46037 22.9141 8.58562 22.8784 8.71978C22.8427 8.85393 22.8353 8.99406 22.8567 9.13123C22.8781 9.2684 22.9278 9.3996 23.0027 9.5165C23.0776 9.6334 23.176 9.73342 23.2917 9.8102C23.4073 9.88698 23.5377 9.93883 23.6745 9.96246Z" fill="#6CCF00"/>
<path d="M22.6374 13.825C23.4835 14.0566 24.2547 14.5046 24.875 15.1249C25.4953 15.7452 25.9433 16.5164 26.1749 17.3625C26.2281 17.5773 26.3519 17.768 26.5265 17.904C26.701 18.04 26.9162 18.1134 27.1374 18.1125C27.2222 18.1133 27.3066 18.1007 27.3874 18.075C27.5157 18.0431 27.6362 17.9858 27.7419 17.9065C27.8476 17.8272 27.9363 17.7274 28.0027 17.6132C28.0692 17.499 28.112 17.3725 28.1287 17.2415C28.1454 17.1104 28.1356 16.9773 28.0999 16.85C27.7842 15.6619 27.1602 14.5783 26.2909 13.709C25.4216 12.8398 24.338 12.2157 23.1499 11.9C23.0195 11.8525 22.8806 11.8326 22.742 11.8418C22.6035 11.8509 22.4684 11.8887 22.3453 11.9529C22.2222 12.0171 22.1138 12.1062 22.027 12.2146C21.9403 12.3229 21.877 12.4482 21.8413 12.5823C21.8056 12.7165 21.7982 12.8566 21.8196 12.9938C21.841 13.1309 21.8907 13.2622 21.9656 13.379C22.0405 13.4959 22.1389 13.596 22.2546 13.6727C22.3702 13.7495 22.5006 13.8014 22.6374 13.825Z" fill="#6CCF00"/>
</svg>
