<svg width="40" height="40" viewBox="0 0 40 40" fill="none" xmlns="http://www.w3.org/2000/svg">
<rect width="40" height="40" rx="20" fill="#D5F7E5"/>
<path d="M20 24.5C23.0376 24.5 25.5 22.0376 25.5 19C25.5 15.9624 23.0376 13.5 20 13.5C16.9624 13.5 14.5 15.9624 14.5 19C14.5 22.0376 16.9624 24.5 20 24.5Z" fill="#6CCF00"/>
<path d="M20 7C17.4288 7 14.9154 7.76244 12.7776 9.1909C10.6398 10.6194 8.97351 12.6497 7.98957 15.0251C7.00563 17.4006 6.74819 20.0144 7.2498 22.5362C7.75141 25.0579 8.98953 27.3743 10.8076 29.1924C12.6257 31.0105 14.9421 32.2486 17.4638 32.7502C19.9856 33.2518 22.5995 32.9944 24.9749 32.0104C27.3503 31.0265 29.3807 29.3603 30.8091 27.2224C32.2376 25.0846 33 22.5712 33 20C32.9934 16.5542 31.6216 13.2515 29.1851 10.8149C26.7486 8.37837 23.4458 7.00661 20 7ZM28.225 27.3C27.4155 26.1388 26.3724 25.1596 25.1625 24.425C23.7733 25.7559 21.9238 26.4989 20 26.4989C18.0762 26.4989 16.2267 25.7559 14.8375 24.425C13.6276 25.1596 12.5845 26.1388 11.775 27.3C10.3672 25.7147 9.44757 23.7564 9.12671 21.6607C8.80585 19.565 9.09746 17.4212 9.96644 15.4873C10.8354 13.5535 12.2448 11.9119 14.0248 10.7603C15.8049 9.60863 17.8799 8.99593 20 8.99593C22.1201 8.99593 24.1951 9.60863 25.9752 10.7603C27.7552 11.9119 29.1646 13.5535 30.0336 15.4873C30.9026 17.4212 31.1942 19.565 30.8733 21.6607C30.5524 23.7564 29.6328 25.7147 28.225 27.3Z" fill="#6CCF00"/>
</svg>
