<svg width="23" height="22" viewBox="0 0 23 22" fill="none" xmlns="http://www.w3.org/2000/svg">
<g clip-path="url(#clip0_11353_3062)">
<path d="M4.57471 6.41602V5.49935C4.57471 5.01312 4.76786 4.5468 5.11168 4.20299C5.45549 3.85917 5.92181 3.66602 6.40804 3.66602H8.24137" stroke="#0500E8" stroke-width="2" stroke-linecap="round" stroke-linejoin="round"/>
<path d="M4.57471 15.584V16.5007C4.57471 16.9869 4.76786 17.4532 5.11168 17.797C5.45549 18.1408 5.92181 18.334 6.40804 18.334H8.24137" stroke="#0500E8" stroke-width="2" stroke-linecap="round" stroke-linejoin="round"/>
<path d="M15.5747 3.66602H17.408C17.8943 3.66602 18.3606 3.85917 18.7044 4.20299C19.0482 4.5468 19.2414 5.01312 19.2414 5.49935V6.41602" stroke="#0500E8" stroke-width="2" stroke-linecap="round" stroke-linejoin="round"/>
<path d="M15.5747 18.334H17.408C17.8943 18.334 18.3606 18.1408 18.7044 17.797C19.0482 17.4532 19.2414 16.9869 19.2414 16.5007V15.584" stroke="#0500E8" stroke-width="2" stroke-linecap="round" stroke-linejoin="round"/>
<path d="M5.4917 11H18.325" stroke="#0500E8" stroke-width="2" stroke-linecap="round" stroke-linejoin="round"/>
</g>
<defs>
<clipPath id="clip0_11353_3062">
<rect width="22" height="22" fill="white" transform="translate(0.908203)"/>
</clipPath>
</defs>
</svg>
