<svg width="40" height="40" viewBox="0 0 40 40" fill="none" xmlns="http://www.w3.org/2000/svg">
<rect width="40" height="40" rx="20" fill="#D5F7E5"/>
<path d="M12 21.4999C12.0017 21.6317 11.977 21.7625 11.9273 21.8845C11.8777 22.0066 11.8041 22.1175 11.7109 22.2107C11.6177 22.3039 11.5068 22.3775 11.3847 22.4272C11.2626 22.4768 11.1318 22.5016 11 22.4999H5.50004C5.31426 22.4984 5.13239 22.4464 4.97387 22.3495C4.81534 22.2527 4.68613 22.1145 4.60004 21.9499C4.51999 21.7822 4.487 21.596 4.50462 21.411C4.52223 21.2261 4.58978 21.0494 4.70004 20.8999C5.58502 19.7119 6.76593 18.7767 8.12504 18.1874C7.54103 17.6528 7.09233 16.9872 6.81585 16.2453C6.53938 15.5033 6.44304 14.7064 6.53477 13.92C6.6265 13.1336 6.90367 12.3802 7.34347 11.7218C7.78327 11.0635 8.37313 10.519 9.0645 10.1331C9.75587 9.74732 10.529 9.53119 11.3202 9.50254C12.1114 9.4739 12.8981 9.63356 13.6156 9.96839C14.3331 10.3032 14.9607 10.8036 15.447 11.4285C15.9333 12.0533 16.2642 12.7847 16.4125 13.5624C16.4495 13.7649 16.4239 13.974 16.339 14.1616C16.2541 14.3492 16.1141 14.5064 15.9375 14.6124C14.3208 15.5711 13.0912 17.0661 12.4625 18.8374C12.1526 19.6907 11.996 20.5921 12 21.4999ZM35.3 20.8999C34.4151 19.7119 33.2341 18.7767 31.875 18.1874C32.459 17.6528 32.9078 16.9872 33.1842 16.2453C33.4607 15.5033 33.557 14.7064 33.4653 13.92C33.3736 13.1336 33.0964 12.3802 32.6566 11.7218C32.2168 11.0635 31.6269 10.519 30.9356 10.1331C30.2442 9.74732 29.4711 9.53119 28.6799 9.50254C27.8887 9.4739 27.1019 9.63356 26.3845 9.96839C25.667 10.3032 25.0393 10.8036 24.5531 11.4285C24.0668 12.0533 23.7359 12.7847 23.5875 13.5624C23.5506 13.7649 23.5762 13.974 23.6611 14.1616C23.7459 14.3492 23.886 14.5064 24.0625 14.6124C25.6814 15.5686 26.9117 17.0645 27.5375 18.8374C27.8475 19.6907 28.004 20.5921 28 21.4999C27.9984 21.6317 28.0231 21.7625 28.0727 21.8845C28.1224 22.0066 28.196 22.1175 28.2892 22.2107C28.3824 22.3039 28.4933 22.3775 28.6154 22.4272C28.7375 22.4768 28.8683 22.5016 29 22.4999H34.5C34.6858 22.4999 34.8678 22.4482 35.0258 22.3505C35.1837 22.2529 35.3114 22.1132 35.3945 21.9471C35.4775 21.781 35.5127 21.595 35.496 21.4101C35.4793 21.2251 35.4115 21.0485 35.3 20.8999ZM23.65 26.2624C24.6453 25.4996 25.3765 24.4441 25.741 23.2443C26.1055 22.0445 26.0849 20.7607 25.6821 19.5732C25.2794 18.3857 24.5147 17.3542 23.4956 16.6237C22.4764 15.8932 21.254 15.5003 20 15.5003C18.7461 15.5003 17.5237 15.8932 16.5045 16.6237C15.4854 17.3542 14.7207 18.3857 14.3179 19.5732C13.9152 20.7607 13.8946 22.0445 14.2591 23.2443C14.6236 24.4441 15.3548 25.4996 16.35 26.2624C14.4057 27.1256 12.8294 28.6488 11.9 30.5624C11.8261 30.7145 11.793 30.8832 11.8039 31.0519C11.8149 31.2207 11.8695 31.3836 11.9625 31.5249C12.0491 31.6698 12.1718 31.7897 12.3186 31.873C12.4654 31.9562 12.6313 32 12.8 31.9999H27.2C27.3688 32 27.5347 31.9562 27.6815 31.873C27.8283 31.7897 27.951 31.6698 28.0375 31.5249C28.1305 31.3836 28.1852 31.2207 28.1961 31.0519C28.2071 30.8832 28.174 30.7145 28.1 30.5624C27.1707 28.6488 25.5944 27.1256 23.65 26.2624Z" fill="#6CCF00"/>
</svg>
