<svg width="200" height="200" viewBox="0 0 200 200" fill="none" xmlns="http://www.w3.org/2000/svg">
<g clip-path="url(#clip0_635_11847)">
<path d="M24.6875 127.25C8.4375 111 8.4375 84.6875 24.6875 68.4375C40.9375 52.1875 67.25 52.1875 83.5 68.4375L91.125 76.0625L32.3125 134.875L24.6875 127.25Z" fill="#F9C23C"/>
<path d="M175.625 127.25C191.875 111 191.875 84.6875 175.625 68.4375C159.438 52.1875 133.062 52.1875 116.813 68.4375L109.188 76.0625L168 134.875L175.625 127.25Z" fill="#F9C23C"/>
<path d="M73.1249 116.875C56.8749 133.125 38.4999 141.063 32.0624 134.688C25.6874 128.25 33.6249 109.875 49.8749 93.625C66.1249 77.375 84.5624 69.5 90.9374 75.875C97.3124 82.25 89.3749 100.625 73.1249 116.875Z" fill="#6D4534"/>
<path d="M127.25 116.875C143.5 133.125 161.812 141.125 168.25 134.688C174.687 128.25 166.687 109.938 150.437 93.6876C134.187 77.4376 115.812 69.5001 109.437 75.8751C103.062 82.2501 111 100.625 127.25 116.875Z" fill="#6D4534"/>
<path d="M76.4305 134.195C76.4305 136.646 74.4438 138.633 71.993 138.633C69.5422 138.633 67.5555 136.646 67.5555 134.195C67.5555 131.744 69.5422 129.758 71.993 129.758C74.4438 129.758 76.4305 131.744 76.4305 134.195Z" fill="#F9C23C"/>
<path d="M53.1875 176.062C55.6383 176.062 57.625 174.076 57.625 171.625C57.625 169.174 55.6383 167.187 53.1875 167.187C50.7367 167.187 48.75 169.174 48.75 171.625C48.75 174.076 50.7367 176.062 53.1875 176.062Z" fill="#F9C23C"/>
<path d="M143.75 181.25C147.202 181.25 150 178.452 150 175C150 171.548 147.202 168.75 143.75 168.75C140.298 168.75 137.5 171.548 137.5 175C137.5 178.452 140.298 181.25 143.75 181.25Z" fill="#F9C23C"/>
<path d="M143.063 92.1251C144.063 92.5001 144.813 93.1876 145.313 94.0001C146 95.1251 146.188 96.6251 145.625 98.0001C142.938 104.938 135.063 114.25 133.938 115.5C131.525 118.449 128.744 120.984 125.596 123.105C124.558 126.872 122.949 130.4 120.813 133.688C119.438 135.75 116.625 136.375 114.563 135C112.5 133.625 111.875 130.813 113.25 128.75C113.599 128.216 113.928 127.671 114.238 127.116C111.726 127.005 109.349 126.133 107.125 124.5C106.994 124.402 106.869 124.298 106.752 124.188C104.329 122.32 102.734 119.648 102.25 116.625C101.75 113.5 102.5 110.375 104.375 107.813C108.25 102.5 115.688 101.313 121 105.188L121.125 105.313C122.688 106.438 123.938 107.688 124.813 109.188C125.193 109.806 125.515 110.457 125.779 111.139C126.22 110.669 126.648 110.185 127.063 109.688C127.063 109.656 127.078 109.641 127.094 109.625C127.109 109.609 127.125 109.594 127.125 109.563C129.313 107.063 135.438 99.4376 137.25 94.6876C138.125 92.3751 140.75 91.2501 143.063 92.1251ZM117.624 117.364C117.987 114.397 116.975 113.348 115.875 112.563L115.75 112.438C114.438 111.5 112.625 111.75 111.688 113.063C111.25 113.688 111.063 114.438 111.188 115.188C111.313 115.938 111.688 116.625 112.313 117.063C112.436 117.155 112.553 117.252 112.664 117.354C113.73 118.106 115.059 118.565 117.624 117.364Z" fill="#00A6ED"/>
<path d="M100.031 187.5C103.5 187.5 106.313 184.702 106.313 181.25C106.313 177.798 103.5 175 100.031 175C96.5622 175 93.75 177.798 93.75 181.25C93.75 184.702 96.5622 187.5 100.031 187.5Z" fill="#00A6ED"/>
<path d="M27.6251 165.5C37.7501 156.813 43.8751 144.688 44.8751 131.375C45.5626 122.25 43.7501 113.375 39.8126 105.438C41.9376 102.438 44.5001 99.5002 47.2501 96.5627C53.6251 107.188 56.6251 119.563 55.6876 132.188C54.4376 148.375 47.0001 163.125 34.6876 173.688C33.6876 174.563 32.4376 175 31.1876 175C29.6251 175 28.1251 174.375 27.0626 173.125C25.1251 170.875 25.3751 167.438 27.6251 165.5Z" fill="#00A6ED"/>
<path d="M95.125 138.5C94.75 141.812 96.5 145 99.5 146.437C102.188 147.75 103.312 150.937 102 153.562C101.125 155.562 99.1875 156.687 97.125 156.687C96.375 156.687 95.5625 156.562 94.8125 156.187C87.5625 152.75 83.3125 145.125 84.3125 137.187L85.8125 125.125C86.125 122.875 85.4375 120.687 83.875 119C82.3125 117.312 80.3125 116.5 77.9375 116.5L74.5625 116.562C67.75 116.812 61.25 113.062 57.875 107L50.3125 93.25C53.0625 90.5 55.875 88.125 58.625 85.9375L67.3125 101.75C68.75 104.312 71.375 105.937 74.3125 105.75L77.75 105.687C83 105.562 88.3125 107.75 91.9375 111.75C95.5625 115.75 97.25 121.062 96.625 126.437L95.125 138.5Z" fill="#F70A8D"/>
<path d="M163.687 171.625C162.25 171.625 160.812 171 159.75 169.875C143.062 151.875 143.937 123.812 161.5 106.812C163.875 110.25 165.812 113.562 167.25 116.687C155.75 129.687 155.625 149.562 167.687 162.562C169.687 164.75 169.562 168.125 167.375 170.187C166.312 171.125 165 171.625 163.687 171.625Z" fill="#F70A8D"/>
<path d="M63.8751 186.75C64.6876 187.375 65.6876 187.687 66.6876 187.687C68.1876 187.687 69.6251 187 70.6251 185.687C78.9376 174.187 80.6876 159.562 75.1876 146.5C74.1251 144.062 71.3126 142.875 68.8751 143.937C66.4376 145 65.3126 147.812 66.3126 150.25C70.4376 160.125 69.1251 171.312 62.8126 180C61.2501 182.187 61.7501 185.187 63.8751 186.75Z" fill="#F70A8D"/>
<path d="M121.938 158.68C124.872 158.68 127.25 156.301 127.25 153.367C127.25 150.433 124.872 148.055 121.938 148.055C119.004 148.055 116.625 150.433 116.625 153.367C116.625 156.301 119.004 158.68 121.938 158.68Z" fill="#F70A8D"/>
</g>
<defs>
<clipPath id="clip0_635_11847">
<rect width="200" height="200" fill="white"/>
</clipPath>
</defs>
</svg>
