<svg width="246" height="238" viewBox="0 0 246 238" fill="none" xmlns="http://www.w3.org/2000/svg">
<g clip-path="url(#clip0_1707_22876)">
<path d="M139.74 123.129H93.9092V152.497H139.74V123.129Z" fill="#CFE939"/>
<path d="M141.831 123.128H91.9774L90.3955 120.763V118.679L91.9774 116.324H116.904H141.831L143.412 118.679V120.763L141.831 123.128Z" fill="#CFE939"/>
<path d="M141.831 159.302H91.9774L90.3955 156.937V154.852L91.9774 152.498H116.904H141.831L143.412 154.852V156.937L141.831 159.302Z" fill="#CFE939"/>
<path d="M136.689 95.0106V116.324H128.824V98.1874L126.169 95.4612H107.638L104.983 98.1874V116.324H97.1182V95.0106L104.305 87.6094H129.502L136.689 95.0106Z" fill="#CFE939"/>
<path d="M93.0059 163.154V170.274" stroke="#EAFFD2" stroke-width="0.5" stroke-linecap="round" stroke-linejoin="bevel"/>
<path d="M89.4463 166.713H96.5762" stroke="#EAFFD2" stroke-width="0.5" stroke-linecap="round" stroke-linejoin="bevel"/>
<path d="M90.4863 164.201L95.5372 169.225" stroke="#EAFFD2" stroke-width="0.5" stroke-linecap="round" stroke-linejoin="bevel"/>
<path d="M90.4863 169.225L95.5372 164.201" stroke="#EAFFD2" stroke-width="0.5" stroke-linecap="round" stroke-linejoin="bevel"/>
<path d="M104.915 163.154V170.274" stroke="#EAFFD2" stroke-width="0.5" stroke-linecap="round" stroke-linejoin="bevel"/>
<path d="M101.355 166.713H108.485" stroke="#EAFFD2" stroke-width="0.5" stroke-linecap="round" stroke-linejoin="bevel"/>
<path d="M102.396 164.201L107.435 169.225" stroke="#EAFFD2" stroke-width="0.5" stroke-linecap="round" stroke-linejoin="bevel"/>
<path d="M102.396 169.225L107.435 164.201" stroke="#EAFFD2" stroke-width="0.5" stroke-linecap="round" stroke-linejoin="bevel"/>
<path d="M116.825 163.154V170.274" stroke="#EAFFD2" stroke-width="0.5" stroke-linecap="round" stroke-linejoin="bevel"/>
<path d="M113.266 166.713H120.396" stroke="#EAFFD2" stroke-width="0.5" stroke-linecap="round" stroke-linejoin="bevel"/>
<path d="M114.305 164.201L119.344 169.225" stroke="#EAFFD2" stroke-width="0.5" stroke-linecap="round" stroke-linejoin="bevel"/>
<path d="M114.305 169.225L119.344 164.201" stroke="#EAFFD2" stroke-width="0.5" stroke-linecap="round" stroke-linejoin="bevel"/>
<path d="M128.734 163.154V170.274" stroke="#EAFFD2" stroke-width="0.5" stroke-linecap="round" stroke-linejoin="bevel"/>
<path d="M125.175 166.713H132.305" stroke="#EAFFD2" stroke-width="0.5" stroke-linecap="round" stroke-linejoin="bevel"/>
<path d="M126.215 164.201L131.254 169.225" stroke="#EAFFD2" stroke-width="0.5" stroke-linecap="round" stroke-linejoin="bevel"/>
<path d="M126.215 169.225L131.254 164.201" stroke="#EAFFD2" stroke-width="0.5" stroke-linecap="round" stroke-linejoin="bevel"/>
<path d="M140.645 163.154V170.274" stroke="#EAFFD2" stroke-width="0.5" stroke-linecap="round" stroke-linejoin="bevel"/>
<path d="M137.085 166.713H144.215" stroke="#EAFFD2" stroke-width="0.5" stroke-linecap="round" stroke-linejoin="bevel"/>
<path d="M138.124 164.201L143.164 169.225" stroke="#EAFFD2" stroke-width="0.5" stroke-linecap="round" stroke-linejoin="bevel"/>
<path d="M138.124 169.225L143.164 164.201" stroke="#EAFFD2" stroke-width="0.5" stroke-linecap="round" stroke-linejoin="bevel"/>
<path d="M127.684 127.859C128.52 128.693 128.52 130.056 127.684 130.889L116.102 142.436C114.43 144.104 111.718 144.115 110.046 142.436L106.136 138.539C105.3 137.705 105.3 136.342 106.136 135.508C106.972 134.675 108.339 134.675 109.175 135.508L111.56 137.885C112.396 138.719 113.763 138.719 114.599 137.885L124.656 127.848C125.492 127.014 126.859 127.014 127.695 127.848L127.684 127.859Z" fill="#13556D"/>
<path d="M145.367 75.0595C145.367 75.0595 172.994 31.3279 203.141 36.0706" stroke="#EAFFD2" stroke-width="0.5" stroke-linecap="round" stroke-linejoin="bevel"/>
<path d="M80.1127 181.438C80.1127 181.438 67.6268 190.393 71.9884 193.266C76.35 196.139 71.7511 183.308 64.9037 194.257C58.0562 205.207 62.7455 211.989 65.5251 210.209C68.3048 208.429 58.237 198.223 54.0449 219.717" stroke="#EAFFD2" stroke-width="0.5" stroke-linecap="round" stroke-linejoin="bevel"/>
<path d="M34.0675 90.8316C34.0675 90.8316 17.6382 75.77 13.9319 85.6834C10.2257 95.5967 36.463 83.6218 0.282227 69.7656" stroke="#EAFFD2" stroke-width="0.5" stroke-linecap="round" stroke-linejoin="bevel"/>
<path d="M179.355 138.809C183.887 143.699 195.457 132.49 205.039 143.699" stroke="#EAFFD2" stroke-width="0.5" stroke-linecap="round" stroke-linejoin="bevel"/>
<path d="M50.0566 50.8066C50.0566 50.8066 55.8307 58.8613 65.6386 62.3084C75.4465 65.7556 84.1018 76.6941 84.1018 76.6941" stroke="#EAFFD2" stroke-width="0.5" stroke-linecap="round" stroke-linejoin="bevel"/>
<path d="M133.672 15.3535C133.672 15.3535 131.164 21.2565 123.107 17.9783C123.107 17.9783 129.413 22.1464 124.52 32.2626C124.52 32.2626 128.599 20.7833 135.65 25.5823C135.65 25.5823 129.932 22.4844 133.672 15.3535Z" fill="#EAFFD2"/>
<path d="M114.893 219.513C114.893 219.513 115.367 213.114 124.057 213.655C124.057 213.655 116.746 211.717 118.136 200.576C118.136 200.576 117.955 212.754 109.74 210.456C109.74 210.456 116.147 211.571 114.904 219.513H114.893Z" fill="#EAFFD2"/>
<path d="M19.3223 116.798C19.3223 116.798 23.6951 117.666 22.5991 123.58C22.5991 123.58 24.5426 118.724 32.1245 120.606C32.1245 120.606 23.729 119.457 26.0115 114.016C26.0115 114.016 24.7121 118.319 19.3223 116.798Z" fill="#EAFFD2"/>
<path d="M238.146 114.206C238.146 114.206 228.971 116.718 225.412 104.383C225.412 104.383 226.339 115.502 210.067 119.106C210.067 119.106 227.175 113.316 228.045 125.866C228.045 125.866 226.418 116.403 238.146 114.206Z" fill="#EAFFD2"/>
<path d="M86.0117 33.0527L86.2151 50.8067L100.012 46.9991L86.0117 33.0527Z" fill="#EAFFD2"/>
<path d="M174.249 217.836H184.633L179.447 229.462L174.249 217.836Z" fill="#EAFFD2"/>
<path d="M34.1918 187.758L9.57031 206.289L25.4008 201.873L34.1918 187.758Z" fill="#EAFFD2"/>
<path d="M194.26 97.1051C194.26 97.1051 194.26 84.398 208.113 94.1762C221.966 103.954 184.452 97.6234 216.768 82.6744C249.085 67.7255 245.616 40.6777 245.616 40.6777" stroke="#EAFFD2" stroke-width="0.5" stroke-linecap="round" stroke-linejoin="bevel"/>
<path d="M93.9092 123.129H139.74V152.497H95.5363" stroke="#13556D" stroke-width="0.5" stroke-linecap="round" stroke-linejoin="bevel"/>
<path d="M95.5371 116.324H138.125" stroke="#13556D" stroke-width="0.5" stroke-linecap="round" stroke-linejoin="bevel"/>
<path d="M136.69 116.325V95.0112L129.379 87.7227" stroke="#13556D" stroke-width="0.5" stroke-linecap="round" stroke-linejoin="bevel"/>
<path d="M107.639 95.4609H126.17" stroke="#13556D" stroke-width="0.5" stroke-linecap="round" stroke-linejoin="bevel"/>
<path d="M62.068 145.072C60.5313 145.072 51.2997 144.926 44.7573 154.4C38.2149 163.874 25.7178 158.253 25.7178 158.253" stroke="#EAFFD2" stroke-width="0.5" stroke-linecap="round" stroke-linejoin="bevel"/>
<path d="M157.921 176.436C157.921 176.436 173.345 195.327 184.723 185.865C196.102 176.402 161.548 185.684 188.305 197.603C215.062 209.521 225.243 229.686 226.497 237.73" stroke="#EAFFD2" stroke-width="0.5" stroke-linecap="round" stroke-linejoin="bevel"/>
<path d="M214.599 166.713C217.672 171.456 232.294 182.124 238.452 170.273C244.61 158.422 223.062 167.625 238.452 180.276" stroke="#EAFFD2" stroke-width="0.5" stroke-linecap="round" stroke-linejoin="bevel"/>
<path d="M106.848 0.28125C106.848 0.28125 117.808 3.34539 111.266 18.3056C104.723 33.2658 119.684 38.245 119.684 38.245" stroke="#EAFFD2" stroke-width="0.5" stroke-linecap="round" stroke-linejoin="bevel"/>
</g>
<defs>
<clipPath id="clip0_1707_22876">
<rect width="246" height="238" fill="white"/>
</clipPath>
</defs>
</svg>
