<svg width="72" height="72" viewBox="0 0 72 72" fill="none" xmlns="http://www.w3.org/2000/svg">
<rect width="72" height="72" rx="36" fill="#6CCF00"/>
<path d="M49.3327 33.0003C48.786 33.0003 48.3327 32.547 48.3327 32.0003V29.3337C48.3327 25.8937 46.106 23.667 42.666 23.667H29.3327C25.8927 23.667 23.666 25.8937 23.666 29.3337V32.0003C23.666 32.547 23.2127 33.0003 22.666 33.0003C22.1193 33.0003 21.666 32.547 21.666 32.0003V29.3337C21.666 24.747 24.746 21.667 29.3327 21.667H42.666C47.2527 21.667 50.3327 24.747 50.3327 29.3337V32.0003C50.3327 32.547 49.8794 33.0003 49.3327 33.0003Z" fill="white"/>
<path d="M42.666 50.3333H29.3327C24.746 50.3333 21.666 47.2533 21.666 42.6667V40C21.666 39.4533 22.1193 39 22.666 39C23.2127 39 23.666 39.4533 23.666 40V42.6667C23.666 46.1067 25.8927 48.3333 29.3327 48.3333H42.666C46.106 48.3333 48.3327 46.1067 48.3327 42.6667V40C48.3327 39.4533 48.786 39 49.3327 39C49.8794 39 50.3327 39.4533 50.3327 40V42.6667C50.3327 47.2533 47.2527 50.3333 42.666 50.3333Z" fill="white"/>
<path d="M49.3327 37H22.666C22.1193 37 21.666 36.5467 21.666 36C21.666 35.4533 22.1193 35 22.666 35H49.3327C49.8794 35 50.3327 35.4533 50.3327 36C50.3327 36.5467 49.8794 37 49.3327 37Z" fill="white"/>
<path d="M42.0007 32.0003H30.0007C29.6273 32.0003 29.334 31.707 29.334 31.3337V28.667C29.334 27.5603 30.2273 26.667 31.334 26.667H40.6673C41.774 26.667 42.6673 27.5603 42.6673 28.667V31.3337C42.6673 31.707 42.374 32.0003 42.0007 32.0003Z" fill="white"/>
<path d="M42.0007 40H30.0007C29.6273 40 29.334 40.2933 29.334 40.6667V43.3333C29.334 44.44 30.2273 45.3333 31.334 45.3333H40.6673C41.7607 45.3333 42.6673 44.44 42.6673 43.3333V40.6667C42.6673 40.2933 42.374 40 42.0007 40Z" fill="white"/>
</svg>
