<svg width="40" height="40" viewBox="0 0 40 40" fill="none" xmlns="http://www.w3.org/2000/svg">
<rect width="40" height="40" rx="20" fill="#D5F7E5"/>
<path d="M33.3332 17.0003C32.7865 17.0003 32.3332 16.547 32.3332 16.0003V13.3337C32.3332 9.89366 30.1065 7.66699 26.6665 7.66699H13.3332C9.89317 7.66699 7.6665 9.89366 7.6665 13.3337V16.0003C7.6665 16.547 7.21317 17.0003 6.6665 17.0003C6.11984 17.0003 5.6665 16.547 5.6665 16.0003V13.3337C5.6665 8.74699 8.7465 5.66699 13.3332 5.66699H26.6665C31.2532 5.66699 34.3332 8.74699 34.3332 13.3337V16.0003C34.3332 16.547 33.8798 17.0003 33.3332 17.0003Z" fill="#6CCF00"/>
<path d="M26.6665 34.3333H13.3332C8.7465 34.3333 5.6665 31.2533 5.6665 26.6667V24C5.6665 23.4533 6.11984 23 6.6665 23C7.21317 23 7.6665 23.4533 7.6665 24V26.6667C7.6665 30.1067 9.89317 32.3333 13.3332 32.3333H26.6665C30.1065 32.3333 32.3332 30.1067 32.3332 26.6667V24C32.3332 23.4533 32.7865 23 33.3332 23C33.8798 23 34.3332 23.4533 34.3332 24V26.6667C34.3332 31.2533 31.2532 34.3333 26.6665 34.3333Z" fill="#6CCF00"/>
<path d="M33.3332 21H6.6665C6.11984 21 5.6665 20.5467 5.6665 20C5.6665 19.4533 6.11984 19 6.6665 19H33.3332C33.8798 19 34.3332 19.4533 34.3332 20C34.3332 20.5467 33.8798 21 33.3332 21Z" fill="#6CCF00"/>
<path d="M26.0002 16.0003H14.0002C13.6268 16.0003 13.3335 15.707 13.3335 15.3337V12.667C13.3335 11.5603 14.2268 10.667 15.3335 10.667H24.6668C25.7735 10.667 26.6668 11.5603 26.6668 12.667V15.3337C26.6668 15.707 26.3735 16.0003 26.0002 16.0003Z" fill="#6CCF00"/>
<path d="M26.0002 24H14.0002C13.6268 24 13.3335 24.2933 13.3335 24.6667V27.3333C13.3335 28.44 14.2268 29.3333 15.3335 29.3333H24.6668C25.7602 29.3333 26.6668 28.44 26.6668 27.3333V24.6667C26.6668 24.2933 26.3735 24 26.0002 24Z" fill="#6CCF00"/>
</svg>
