<svg width="40" height="40" viewBox="0 0 40 40" fill="none" xmlns="http://www.w3.org/2000/svg">
<rect width="40" height="40" rx="20" fill="#D5F7E5"/>
<path d="M24 6C22.4215 6.0019 20.8659 6.37698 19.46 7.09462C18.0541 7.81227 16.8377 8.85214 15.9103 10.1294C14.9828 11.4067 14.3705 12.8851 14.1232 14.4441C13.8759 16.0031 14.0008 17.5984 14.4875 19.1L7.28752 26.2875C7.10179 26.478 6.99852 26.734 7.00002 27V32C7.00002 32.2652 7.10537 32.5196 7.29291 32.7071C7.48045 32.8946 7.7348 33 8.00002 33H13C13.2652 33 13.5196 32.8946 13.7071 32.7071C13.8947 32.5196 14 32.2652 14 32V30H16C16.2652 30 16.5196 29.8946 16.7071 29.7071C16.8947 29.5196 17 29.2652 17 29V27H19C19.2661 27.0015 19.522 26.8982 19.7125 26.7125L20.9 25.5125C22.2742 25.958 23.7286 26.1006 25.1631 25.9303C26.5976 25.76 27.9782 25.2809 29.2098 24.526C30.4415 23.7711 31.495 22.7583 32.2978 21.5573C33.1006 20.3564 33.6337 18.9957 33.8603 17.569C34.087 16.1423 34.0019 14.6835 33.6108 13.2928C33.2197 11.9022 32.532 10.6128 31.5949 9.51334C30.6579 8.4139 29.4937 7.53054 28.1826 6.92403C26.8715 6.31753 25.4446 6.00229 24 6ZM26.5 15.5C26.1045 15.5 25.7178 15.3827 25.3889 15.1629C25.06 14.9432 24.8036 14.6308 24.6523 14.2654C24.5009 13.8999 24.4613 13.4978 24.5384 13.1098C24.6156 12.7219 24.8061 12.3655 25.0858 12.0858C25.3655 11.8061 25.7219 11.6156 26.1098 11.5384C26.4978 11.4613 26.8999 11.5009 27.2654 11.6522C27.6308 11.8036 27.9432 12.06 28.163 12.3889C28.3827 12.7178 28.5 13.1044 28.5 13.5C28.5 14.0304 28.2893 14.5391 27.9142 14.9142C27.5392 15.2893 27.0304 15.5 26.5 15.5Z" fill="#6CCF00"/>
</svg>
