<svg width="280" height="280" viewBox="0 0 280 280" fill="none" xmlns="http://www.w3.org/2000/svg">
<path fill-rule="evenodd" clip-rule="evenodd" d="M245.753 280.001C256.487 279.973 262.324 279.72 266.9 277.388C271.416 275.087 275.087 271.416 277.388 266.9C279.72 262.324 279.973 256.486 280.001 245.752H276.001C275.988 250.443 275.934 254.064 275.69 257.042C275.384 260.796 274.797 263.175 273.824 265.084C271.907 268.847 268.847 271.907 265.084 273.824C263.175 274.797 260.796 275.384 257.041 275.69C254.064 275.934 250.443 275.988 245.753 276.001V280.001ZM245.753 4.00019C250.443 4.01244 254.064 4.06707 257.042 4.31035C260.796 4.61712 263.175 5.2038 265.084 6.17652C268.847 8.09399 271.907 11.1536 273.824 14.9168C274.797 16.8259 275.384 19.2045 275.69 22.9592C275.934 25.9368 275.988 29.5574 276.001 34.2484H280.001C279.973 23.5143 279.72 17.6772 277.388 13.1009C275.087 8.58499 271.416 4.91345 266.9 2.61249C262.324 0.280779 256.487 0.0275111 245.753 1.51789e-06V4.00019ZM34.2486 0V4.00018C29.5575 4.01244 25.9369 4.06706 22.9592 4.31035C19.2045 4.61712 16.8259 5.2038 14.9168 6.17652C11.1536 8.09399 8.09399 11.1536 6.17652 14.9168C5.2038 16.8259 4.61712 19.2045 4.31034 22.9592C4.06707 25.9368 4.01244 29.5574 4.00018 34.2484H0C0.027505 23.5143 0.280753 17.6772 2.61249 13.1009C4.91345 8.58499 8.58499 4.91345 13.1009 2.61249C17.6772 0.280736 23.5144 0.0275018 34.2486 0ZM34.2486 276.001V280.001C23.5144 279.973 17.6772 279.72 13.1009 277.388C8.58499 275.087 4.91345 271.416 2.61249 266.9C0.28076 262.324 0.0275066 256.486 0 245.752H4.00019C4.01244 250.443 4.06707 254.064 4.31034 257.041C4.61712 260.796 5.2038 263.175 6.17652 265.084C8.09399 268.847 11.1536 271.907 14.9168 273.824C16.8259 274.797 19.2045 275.384 22.9592 275.69C25.9369 275.934 29.5575 275.988 34.2486 276.001Z" fill="#BABABB"/>
<path d="M140.5 236.125C193.312 236.125 236.125 193.312 236.125 140.5C236.125 87.6878 193.312 44.875 140.5 44.875C87.6878 44.875 44.875 87.6878 44.875 140.5C44.875 193.312 87.6878 236.125 140.5 236.125Z" stroke="#BABABB" stroke-width="2" stroke-linecap="round" stroke-linejoin="round"/>
<path d="M140.5 172.375C162.505 172.375 180.344 154.536 180.344 132.531C180.344 110.526 162.505 92.6875 140.5 92.6875C118.495 92.6875 100.656 110.526 100.656 132.531C100.656 154.536 118.495 172.375 140.5 172.375Z" stroke="#BABABB" stroke-width="2" stroke-linecap="round" stroke-linejoin="round"/>
<path d="M76.5508 211.621C82.5464 199.812 91.695 189.893 102.983 182.965C114.27 176.036 127.256 172.369 140.5 172.369C153.744 172.369 166.73 176.036 178.017 182.965C189.305 189.893 198.454 199.812 204.449 211.621" stroke="#BABABB" stroke-width="2" stroke-linecap="round" stroke-linejoin="round"/>
<mask id="path-5-inside-1_1502_29337" fill="white">
<path d="M1 139H280V256C280 269.255 269.255 280 256 280H25C11.7452 280 1 269.255 1 256V139Z"/>
</mask>
<path d="M1 139H280V256C280 269.255 269.255 280 256 280H25C11.7452 280 1 269.255 1 256V139Z" fill="url(#paint0_linear_1502_29337)"/>
<path d="M1 137H280V141H1V137ZM280 280H1H280ZM1 280V139V280ZM280 139V280V139Z" fill="#6CCF00" mask="url(#path-5-inside-1_1502_29337)"/>
<defs>
<linearGradient id="paint0_linear_1502_29337" x1="140.5" y1="139" x2="140.846" y2="319.656" gradientUnits="userSpaceOnUse">
<stop stop-color="#6CCF00" stop-opacity="0.31"/>
<stop offset="0.238325" stop-color="#6CCF00" stop-opacity="0.12"/>
<stop offset="1" stop-color="#6CCF00" stop-opacity="0"/>
</linearGradient>
</defs>
</svg>
