<svg width="40" height="40" viewBox="0 0 40 40" fill="none" xmlns="http://www.w3.org/2000/svg">
<rect width="40" height="40" rx="20" fill="#D5F7E5"/>
<path d="M29 7H11C10.4696 7 9.96086 7.21071 9.58579 7.58579C9.21071 7.96086 9 8.46957 9 9V31C9 31.5304 9.21071 32.0391 9.58579 32.4142C9.96086 32.7893 10.4696 33 11 33H29C29.5304 33 30.0391 32.7893 30.4142 32.4142C30.7893 32.0391 31 31.5304 31 31V9C31 8.46957 30.7893 7.96086 30.4142 7.58579C30.0391 7.21071 29.5304 7 29 7ZM16 10H24C24.2652 10 24.5196 10.1054 24.7071 10.2929C24.8946 10.4804 25 10.7348 25 11C25 11.2652 24.8946 11.5196 24.7071 11.7071C24.5196 11.8946 24.2652 12 24 12H16C15.7348 12 15.4804 11.8946 15.2929 11.7071C15.1054 11.5196 15 11.2652 15 11C15 10.7348 15.1054 10.4804 15.2929 10.2929C15.4804 10.1054 15.7348 10 16 10ZM26.6 28.8C26.3867 28.9559 26.1209 29.0223 25.8593 28.9849C25.5977 28.9476 25.3611 28.8094 25.2 28.6C24.5945 27.7927 23.8094 27.1375 22.9069 26.6862C22.0043 26.2349 21.0091 26 20 26C18.9909 26 17.9957 26.2349 17.0931 26.6862C16.1906 27.1375 15.4055 27.7927 14.8 28.6C14.7069 28.7242 14.5861 28.825 14.4472 28.8944C14.3084 28.9639 14.1552 29 14 29C13.7832 29.0028 13.5718 28.9323 13.4 28.8C13.1878 28.6409 13.0476 28.404 13.0101 28.1414C12.9725 27.8789 13.0409 27.6122 13.2 27.4C14.085 26.212 15.2659 25.2768 16.625 24.6875C15.8814 24.0072 15.3607 23.1181 15.1313 22.1367C14.9019 21.1553 14.9743 20.1275 15.3392 19.1881C15.7041 18.2486 16.3444 17.4414 17.1761 16.8722C18.0079 16.303 18.9922 15.9984 20 15.9984C21.0078 15.9984 21.9921 16.303 22.8239 16.8722C23.6556 17.4414 24.2959 18.2486 24.6608 19.1881C25.0257 20.1275 25.0981 21.1553 24.8687 22.1367C24.6393 23.1181 24.1186 24.0072 23.375 24.6875C24.7341 25.2768 25.915 26.212 26.8 27.4C26.8788 27.5051 26.9361 27.6246 26.9687 27.7518C27.0013 27.879 27.0085 28.0114 26.99 28.1414C26.9714 28.2714 26.9274 28.3965 26.8605 28.5095C26.7936 28.6225 26.7051 28.7212 26.6 28.8ZM23 21C23 21.5933 22.8241 22.1734 22.4944 22.6667C22.1648 23.1601 21.6962 23.5446 21.1481 23.7716C20.5999 23.9987 19.9967 24.0581 19.4147 23.9424C18.8328 23.8266 18.2982 23.5409 17.8787 23.1213C17.4591 22.7018 17.1734 22.1672 17.0576 21.5853C16.9419 21.0033 17.0013 20.4001 17.2284 19.8519C17.4554 19.3038 17.8399 18.8352 18.3333 18.5056C18.8266 18.1759 19.4067 18 20 18C20.7946 18.0033 21.5558 18.3204 22.1177 18.8823C22.6796 19.4442 22.9967 20.2054 23 21Z" fill="#6CCF00"/>
</svg>
