<svg width="21" height="20" viewBox="0 0 21 20" fill="none" xmlns="http://www.w3.org/2000/svg">
<path d="M12.1001 18.0251C11.1167 18.0251 9.72507 17.3334 8.62506 14.0251L8.02506 12.2251L6.22506 11.6251C2.92507 10.5251 2.2334 9.13339 2.2334 8.15006C2.2334 7.17506 2.92507 5.77506 6.22506 4.66673L13.3001 2.30839C15.0667 1.71673 16.5417 1.89173 17.4501 2.79173C18.3584 3.69173 18.5334 5.17506 17.9417 6.94173L15.5834 14.0167C14.4751 17.3334 13.0834 18.0251 12.1001 18.0251ZM6.61673 5.85839C4.30006 6.63339 3.47506 7.55006 3.47506 8.15006C3.47506 8.75006 4.30006 9.66673 6.61673 10.4334L8.71673 11.1334C8.90006 11.1917 9.05007 11.3417 9.1084 11.5251L9.8084 13.6251C10.5751 15.9417 11.5001 16.7667 12.1001 16.7667C12.7001 16.7667 13.6167 15.9417 14.3917 13.6251L16.7501 6.55006C17.1751 5.26673 17.1001 4.21673 16.5584 3.67506C16.0167 3.13339 14.9667 3.06673 13.6917 3.49173L6.61673 5.85839Z" fill="white"/>
<path d="M8.67492 12C8.51658 12 8.35825 11.9416 8.23325 11.8166C7.99159 11.575 7.99159 11.175 8.23325 10.9333L11.2166 7.94163C11.4583 7.69996 11.8583 7.69996 12.0999 7.94163C12.3416 8.18329 12.3416 8.58329 12.0999 8.82496L9.11659 11.8166C8.99992 11.9416 8.83325 12 8.67492 12Z" fill="white"/>
</svg>
