<svg width="40" height="40" viewBox="0 0 40 40" fill="none" xmlns="http://www.w3.org/2000/svg">
<rect width="40" height="40" rx="20" fill="#D5F7E5"/>
<path d="M27 13H9C7.89543 13 7 13.8954 7 15V29C7 30.1046 7.89543 31 9 31H27C28.1046 31 29 30.1046 29 29V15C29 13.8954 28.1046 13 27 13Z" fill="#6CCF00"/>
<path d="M31 9H12C11.7348 9 11.4804 9.10536 11.2929 9.29289C11.1054 9.48043 11 9.73478 11 10C11 10.2652 11.1054 10.5196 11.2929 10.7071C11.4804 10.8946 11.7348 11 12 11H31V26C31 26.2652 31.1054 26.5196 31.2929 26.7071C31.4804 26.8946 31.7348 27 32 27C32.2652 27 32.5196 26.8946 32.7071 26.7071C32.8946 26.5196 33 26.2652 33 26V11C33 10.4696 32.7893 9.96086 32.4142 9.58579C32.0391 9.21071 31.5304 9 31 9Z" fill="#6CCF00"/>
</svg>
