<svg width="32" height="32" viewBox="0 0 32 32" fill="none" xmlns="http://www.w3.org/2000/svg">
<path opacity="0.2" d="M26 12H6V27H26V12Z" fill="#E58101"/>
<path d="M10.75 16.083L16 21.333L21.25 16.083" stroke="#E58101" stroke-width="2" stroke-linecap="round" stroke-linejoin="round"/>
<path d="M16 3.99967V21.333" stroke="#E58101" stroke-width="2" stroke-linecap="round" stroke-linejoin="round"/>
<path d="M22 12H25C25.2652 12 25.5196 12.1054 25.7071 12.2929C25.8946 12.4804 26 12.7348 26 13V26C26 26.2652 25.8946 26.5196 25.7071 26.7071C25.5196 26.8946 25.2652 27 25 27H7C6.73478 27 6.48043 26.8946 6.29289 26.7071C6.10536 26.5196 6 26.2652 6 26V13C6 12.7348 6.10536 12.4804 6.29289 12.2929C6.48043 12.1054 6.73478 12 7 12H10" stroke="#E58101" stroke-width="2" stroke-linecap="round" stroke-linejoin="round"/>
</svg>
