<svg width="40" height="40" viewBox="0 0 40 40" fill="none" xmlns="http://www.w3.org/2000/svg">
<rect width="40" height="40" rx="20" fill="#D5F7E5"/>
<path d="M24 18C24 18.5933 23.8241 19.1734 23.4944 19.6667C23.1648 20.1601 22.6962 20.5446 22.1481 20.7716C21.5999 20.9987 20.9967 21.0581 20.4147 20.9424C19.8328 20.8266 19.2982 20.5409 18.8787 20.1213C18.4591 19.7018 18.1734 19.1672 18.0576 18.5853C17.9419 18.0033 18.0013 17.4001 18.2284 16.8519C18.4554 16.3038 18.8399 15.8352 19.3333 15.5056C19.8266 15.1759 20.4067 15 21 15C21.7946 15.0033 22.5558 15.3204 23.1177 15.8823C23.6796 16.4442 23.9967 17.2054 24 18ZM32 9V31C32 31.5304 31.7893 32.0391 31.4142 32.4142C31.0391 32.7893 30.5304 33 30 33H12C11.4696 33 10.9609 32.7893 10.5858 32.4142C10.2107 32.0391 10 31.5304 10 31V28.5H8C7.73478 28.5 7.48043 28.3946 7.29289 28.2071C7.10536 28.0196 7 27.7652 7 27.5C7 27.2348 7.10536 26.9804 7.29289 26.7929C7.48043 26.6054 7.73478 26.5 8 26.5H10V23.5H8C7.73478 23.5 7.48043 23.3946 7.29289 23.2071C7.10536 23.0196 7 22.7652 7 22.5C7 22.2348 7.10536 21.9804 7.29289 21.7929C7.48043 21.6054 7.73478 21.5 8 21.5H10V18.5H8C7.73478 18.5 7.48043 18.3946 7.29289 18.2071C7.10536 18.0196 7 17.7652 7 17.5C7 17.2348 7.10536 16.9804 7.29289 16.7929C7.48043 16.6054 7.73478 16.5 8 16.5H10V13.5H8C7.73478 13.5 7.48043 13.3946 7.29289 13.2071C7.10536 13.0196 7 12.7652 7 12.5C7 12.2348 7.10536 11.9804 7.29289 11.7929C7.48043 11.6054 7.73478 11.5 8 11.5H10V9C10 8.46957 10.2107 7.96086 10.5858 7.58579C10.9609 7.21071 11.4696 7 12 7H30C30.5304 7 31.0391 7.21071 31.4142 7.58579C31.7893 7.96086 32 8.46957 32 9ZM27.8 24.4C26.915 23.212 25.7341 22.2768 24.375 21.6875C25.1186 21.0072 25.6393 20.1181 25.8687 19.1367C26.0981 18.1553 26.0257 17.1275 25.6608 16.1881C25.2959 15.2486 24.6556 14.4414 23.8239 13.8722C22.9921 13.303 22.0078 12.9984 21 12.9984C19.9922 12.9984 19.0079 13.303 18.1761 13.8722C17.3444 14.4414 16.7041 15.2486 16.3392 16.1881C15.9743 17.1275 15.9019 18.1553 16.1313 19.1367C16.3607 20.1181 16.8814 21.0072 17.625 21.6875C16.2659 22.2768 15.085 23.212 14.2 24.4C14.0409 24.6122 13.9725 24.8789 14.0101 25.1414C14.0476 25.404 14.1878 25.6409 14.4 25.8C14.5718 25.9323 14.7832 26.0028 15 26C15.1552 26 15.3084 25.9639 15.4472 25.8944C15.5861 25.825 15.7069 25.7242 15.8 25.6C16.4055 24.7927 17.1906 24.1375 18.0931 23.6862C18.9957 23.2349 19.9909 23 21 23C22.0091 23 23.0043 23.2349 23.9069 23.6862C24.8095 24.1375 25.5945 24.7927 26.2 25.6C26.3611 25.8094 26.5977 25.9476 26.8593 25.9849C27.1209 26.0223 27.3867 25.9559 27.6 25.8C27.7051 25.7212 27.7936 25.6225 27.8605 25.5095C27.9274 25.3965 27.9714 25.2714 27.99 25.1414C28.0085 25.0114 28.0013 24.879 27.9687 24.7518C27.9361 24.6246 27.8788 24.5051 27.8 24.4Z" fill="#6CCF00"/>
</svg>
