<svg width="126" height="126" viewBox="0 0 126 126" fill="none" xmlns="http://www.w3.org/2000/svg">
<path d="M62.9905 125.501C97.3973 125.501 125.29 97.6082 125.29 63.2014C125.29 28.7946 97.3973 0.902344 62.9905 0.902344C28.5836 0.902344 0.691406 28.7946 0.691406 63.2014C0.691406 97.6082 28.5836 125.501 62.9905 125.501Z" fill="#03cf00"/>
<path d="M93.6655 36.9071C94.4508 37.5496 82.8143 53.2077 67.6798 71.8641L58.4944 83.0009L57.2332 84.5238L55.9006 83.1436C44.0023 70.9361 35.9829 61.8934 36.554 61.3223C37.1252 60.7512 46.1916 68.8182 58.3753 80.645L55.8054 80.9068L64.8004 69.651C79.9349 50.8757 92.8564 36.2646 93.6655 36.9071Z" fill="white"/>
</svg>
