<svg width="18" height="11" viewBox="0 0 18 11" fill="none" xmlns="http://www.w3.org/2000/svg">
<path d="M3.06667 6.54545L3.22576 4.79545L1.77406 5.80966L0.978604 4.41761L2.56951 3.68182L0.978604 2.94602L1.77406 1.55398L3.22576 2.56818L3.06667 0.818182H4.65758L4.49849 2.56818L5.9502 1.55398L6.74565 2.94602L5.15474 3.68182L6.74565 4.41761L5.9502 5.80966L4.49849 4.79545L4.65758 6.54545H3.06667ZM12.7178 11L14.3882 0.818182H16.3769L14.7064 11H12.7178ZM8.20357 8.6733L8.54164 6.68466H16.7348L16.3968 8.6733H8.20357ZM9.13823 11L10.8087 0.818182H12.7973L11.1269 11H9.13823ZM8.78027 5.13352L9.11834 3.14489H17.3115L16.9735 5.13352H8.78027Z" fill="#6CCF00"/>
</svg>
