<svg width="327" height="190" viewBox="0 0 327 190" fill="none" xmlns="http://www.w3.org/2000/svg">
<g clip-path="url(#clip0_1010_21176)">
<rect width="327" height="190" rx="16" fill="#1C1D21"/>
<path d="M34.6564 21.7202V30.8615H32.5363V26.6648L32.606 23.8532H32.5781L30.3046 30.8615H28.3658L26.0922 23.8532H26.0643L26.1341 26.6648V30.8615H24V21.7202H27.4173L28.8679 26.374L29.384 28.313H29.4119L29.9419 26.3878L31.3786 21.7202H34.6564Z" fill="white"/>
<path d="M39.8064 23.7978C40.541 23.7978 41.1827 23.9409 41.7313 24.2271C42.2892 24.5042 42.7216 24.9151 43.0285 25.4598C43.3446 25.9954 43.5027 26.6417 43.5027 27.3989C43.5027 28.156 43.3446 28.807 43.0285 29.3518C42.7216 29.8874 42.2892 30.2982 41.7313 30.5845C41.1827 30.8615 40.541 31 39.8064 31C39.0904 31 38.4535 30.8615 37.8955 30.5845C37.3376 30.2982 36.9006 29.8874 36.5844 29.3518C36.2776 28.807 36.1241 28.156 36.1241 27.3989C36.1241 26.6417 36.2776 25.9954 36.5844 25.4598C36.9006 24.9151 37.3376 24.5042 37.8955 24.2271C38.4535 23.9409 39.0904 23.7978 39.8064 23.7978ZM39.8064 25.4737C39.5368 25.4737 39.3043 25.5383 39.109 25.6676C38.9138 25.7969 38.765 26.0046 38.6627 26.2909C38.5604 26.5771 38.5093 26.9464 38.5093 27.3989C38.5093 27.8513 38.5604 28.2207 38.6627 28.5069C38.765 28.7839 38.9138 28.9917 39.109 29.1302C39.3043 29.2595 39.5368 29.3241 39.8064 29.3241C40.0854 29.3241 40.3225 29.2595 40.5178 29.1302C40.7131 28.9917 40.8619 28.7839 40.9641 28.5069C41.0664 28.2207 41.1176 27.8513 41.1176 27.3989C41.1176 26.9464 41.0664 26.5771 40.9641 26.2909C40.8619 26.0046 40.7131 25.7969 40.5178 25.6676C40.3225 25.5383 40.0854 25.4737 39.8064 25.4737Z" fill="white"/>
<path d="M48.1563 23.7978C48.8909 23.7978 49.5325 23.9409 50.0811 24.2271C50.639 24.5042 51.0714 24.9151 51.3783 25.4598C51.6945 25.9954 51.8525 26.6417 51.8525 27.3989C51.8525 28.156 51.6945 28.807 51.3783 29.3518C51.0714 29.8874 50.639 30.2982 50.0811 30.5845C49.5325 30.8615 48.8909 31 48.1563 31C47.4403 31 46.8033 30.8615 46.2454 30.5845C45.6874 30.2982 45.2504 29.8874 44.9342 29.3518C44.6274 28.807 44.474 28.156 44.474 27.3989C44.474 26.6417 44.6274 25.9954 44.9342 25.4598C45.2504 24.9151 45.6874 24.5042 46.2454 24.2271C46.8033 23.9409 47.4403 23.7978 48.1563 23.7978ZM48.1563 25.4737C47.8866 25.4737 47.6541 25.5383 47.4589 25.6676C47.2636 25.7969 47.1148 26.0046 47.0125 26.2909C46.9102 26.5771 46.8591 26.9464 46.8591 27.3989C46.8591 27.8513 46.9102 28.2207 47.0125 28.5069C47.1148 28.7839 47.2636 28.9917 47.4589 29.1302C47.6541 29.2595 47.8866 29.3241 48.1563 29.3241C48.4352 29.3241 48.6724 29.2595 48.8676 29.1302C49.0629 28.9917 49.2117 28.7839 49.314 28.5069C49.4163 28.2207 49.4674 27.8513 49.4674 27.3989C49.4674 26.9464 49.4163 26.5771 49.314 26.2909C49.2117 26.0046 49.0629 25.7969 48.8676 25.6676C48.6724 25.5383 48.4352 25.4737 48.1563 25.4737Z" fill="white"/>
<path d="M55.5297 21V28.5069C55.5297 28.8116 55.5809 29.0286 55.6832 29.1579C55.7855 29.2872 55.9575 29.3518 56.1992 29.3518C56.3387 29.3518 56.455 29.3426 56.548 29.3241C56.6409 29.3056 56.7525 29.2779 56.8827 29.241L56.7293 30.6537C56.5619 30.7553 56.3434 30.8384 56.0737 30.903C55.8041 30.9677 55.539 31 55.2787 31C54.5348 31 53.9954 30.8292 53.6607 30.4875C53.3259 30.1459 53.1585 29.5873 53.1585 28.8116V21H55.5297Z" fill="white"/>
<path d="M61.7501 26.4709C61.7501 26.1477 61.6571 25.8938 61.4711 25.7091C61.2944 25.5152 61.0527 25.4183 60.7458 25.4183C60.4389 25.4183 60.1739 25.4968 59.9508 25.6537C59.7369 25.8015 59.5881 26.0693 59.5044 26.4571L57.4959 25.9861C57.6261 25.3213 57.9701 24.7904 58.528 24.3934C59.086 23.9963 59.8717 23.7978 60.8853 23.7978C61.5641 23.7978 62.1406 23.8994 62.6149 24.1025C63.0984 24.2964 63.4657 24.5919 63.7168 24.9889C63.9771 25.3767 64.1073 25.8569 64.1073 26.4294V28.964C64.1073 29.3241 64.27 29.5042 64.5955 29.5042C64.7629 29.5042 64.8977 29.4857 65 29.4488L64.8605 30.7922C64.5816 30.9215 64.2422 30.9861 63.8423 30.9861C63.4797 30.9861 63.1588 30.9307 62.8799 30.8199C62.6009 30.6999 62.3824 30.5245 62.2243 30.2936C62.0662 30.0536 61.9872 29.7535 61.9872 29.3934V29.3103L62.2522 29.2133C62.2522 29.6103 62.1313 29.9428 61.8896 30.2105C61.6571 30.4783 61.3502 30.6768 60.969 30.8061C60.597 30.9354 60.2065 31 59.7973 31C59.3231 31 58.9093 30.9261 58.5559 30.7784C58.2026 30.6307 57.9283 30.4183 57.733 30.1413C57.547 29.855 57.454 29.5042 57.454 29.0886C57.454 28.59 57.6028 28.1791 57.9004 27.856C58.2072 27.5235 58.6861 27.2927 59.337 27.1634L61.9732 26.6233L61.9593 27.8698L60.6203 28.1468C60.3413 28.2022 60.1321 28.2853 59.9926 28.3961C59.8624 28.4977 59.7973 28.6547 59.7973 28.867C59.7973 29.0702 59.8717 29.2225 60.0205 29.3241C60.1693 29.4257 60.346 29.4765 60.5505 29.4765C60.7086 29.4765 60.8574 29.4534 60.9969 29.4072C61.1457 29.361 61.2758 29.2918 61.3874 29.1994C61.499 29.0979 61.5873 28.9732 61.6524 28.8255C61.7175 28.6777 61.7501 28.5023 61.7501 28.2992V26.4709Z" fill="white"/>
<path d="M284.222 30.8323H281.734L283.289 21.1733H285.777L284.222 30.8323Z" fill="white"/>
<path d="M279.64 21.1733L277.267 27.8167L276.986 26.3852L276.15 22.0338C276.15 22.0338 276.048 21.1733 274.968 21.1733H271.046L271 21.3361C271.918 21.5691 272.796 21.942 273.603 22.4421L275.766 30.8323H278.359L282.317 21.1733H279.64Z" fill="white"/>
<path d="M299.214 30.8317H301.5L299.508 21.1728H297.506C297.264 21.154 297.022 21.2138 296.815 21.3434C296.609 21.4731 296.448 21.6658 296.358 21.8938L292.645 30.8317H295.24L295.752 29.3976H298.922L299.214 30.8317ZM296.475 27.4157L297.785 23.7982L298.518 27.4157H296.475Z" fill="white"/>
<path d="M292.84 23.4961L293.195 21.4289C292.477 21.1662 291.721 21.0214 290.958 21C289.723 21 286.79 21.5452 286.79 24.199C286.79 26.6951 290.231 26.7261 290.231 28.0362C290.231 29.3463 287.145 29.1111 286.125 28.2946L285.754 30.4522C286.644 30.83 287.602 31.0165 288.567 31C290.265 31 292.827 30.1111 292.827 27.6925C292.827 25.1809 289.354 24.9457 289.354 23.8553C289.354 22.7649 291.776 22.9018 292.84 23.4961Z" fill="white"/>
<path d="M276.986 26.3878L276.15 22.0338C276.15 22.0338 276.048 21.1733 274.968 21.1733H271.046L271 21.3361C272.351 21.6842 273.611 22.3232 274.695 23.2095C275.723 24.0454 276.514 25.1421 276.986 26.3878Z" fill="white"/>
<path d="M53.496 149.32L42.264 181H32.568L21.288 149.32H29.976L35.784 168.472L37.512 174.712L39.192 168.568L45.096 149.32H53.496ZM60.7736 154.216C59.1096 154.216 57.8936 153.912 57.1256 153.304C56.3896 152.664 56.0216 151.672 56.0216 150.328C56.0216 148.952 56.3896 147.96 57.1256 147.352C57.8936 146.712 59.1096 146.392 60.7736 146.392C62.4056 146.392 63.6056 146.712 64.3736 147.352C65.1416 147.96 65.5256 148.952 65.5256 150.328C65.5256 151.672 65.1416 152.664 64.3736 153.304C63.6056 153.912 62.4056 154.216 60.7736 154.216ZM64.8536 157V181H56.6936V157H64.8536ZM70.6624 181V157H77.8624L78.1984 162.184C78.8064 160.392 79.7024 159 80.8864 158.008C82.1024 157.016 83.6384 156.52 85.4944 156.52C86.1024 156.52 86.6144 156.568 87.0304 156.664C87.4784 156.76 87.8304 156.888 88.0864 157.048L87.2704 163.768C86.9504 163.64 86.5344 163.544 86.0224 163.48C85.5424 163.384 84.9504 163.336 84.2464 163.336C83.2864 163.336 82.3904 163.544 81.5584 163.96C80.7264 164.376 80.0544 165 79.5424 165.832C79.0624 166.632 78.8224 167.656 78.8224 168.904V181H70.6624ZM100.71 149.368V172.456C100.71 173.608 100.982 174.44 101.526 174.952C102.102 175.432 102.886 175.672 103.878 175.672C104.646 175.672 105.302 175.592 105.846 175.432C106.422 175.24 106.934 174.968 107.382 174.616L108.246 179.656C107.446 180.232 106.438 180.68 105.222 181C104.006 181.32 102.758 181.48 101.478 181.48C99.654 181.48 98.07 181.224 96.726 180.712C95.414 180.2 94.39 179.384 93.654 178.264C92.95 177.144 92.582 175.656 92.55 173.8V151.624L100.71 149.368ZM107.862 157V162.808H88.422V157H107.862ZM119.743 181.48C118.111 181.48 116.671 181.208 115.423 180.664C114.207 180.088 113.247 179.176 112.543 177.928C111.839 176.68 111.487 175.048 111.487 173.032V157H119.647V171.112C119.647 172.648 119.951 173.72 120.559 174.328C121.167 174.936 122.031 175.24 123.151 175.24C123.727 175.24 124.271 175.144 124.783 174.952C125.295 174.728 125.743 174.408 126.127 173.992C126.511 173.544 126.799 172.984 126.991 172.312C127.215 171.608 127.327 170.792 127.327 169.864V157H135.487V181H128.191L127.951 176.488C127.183 178.184 126.111 179.448 124.735 180.28C123.359 181.08 121.695 181.48 119.743 181.48ZM154.742 165.784C154.742 164.664 154.422 163.784 153.782 163.144C153.174 162.472 152.342 162.136 151.286 162.136C150.23 162.136 149.318 162.408 148.55 162.952C147.814 163.464 147.302 164.392 147.014 165.736L140.102 164.104C140.55 161.8 141.734 159.96 143.654 158.584C145.574 157.208 148.278 156.52 151.766 156.52C154.102 156.52 156.086 156.872 157.718 157.576C159.382 158.248 160.646 159.272 161.51 160.648C162.406 161.992 162.854 163.656 162.854 165.64V174.424C162.854 175.672 163.414 176.296 164.534 176.296C165.11 176.296 165.574 176.232 165.926 176.104L165.446 180.76C164.486 181.208 163.318 181.432 161.942 181.432C160.694 181.432 159.59 181.24 158.63 180.856C157.67 180.44 156.918 179.832 156.374 179.032C155.83 178.2 155.558 177.16 155.558 175.912V175.624L156.47 175.288C156.47 176.664 156.054 177.816 155.222 178.744C154.422 179.672 153.366 180.36 152.054 180.808C150.774 181.256 149.43 181.48 148.022 181.48C146.39 181.48 144.966 181.224 143.75 180.712C142.534 180.2 141.59 179.464 140.918 178.504C140.278 177.512 139.958 176.296 139.958 174.856C139.958 173.128 140.47 171.704 141.494 170.584C142.55 169.432 144.198 168.632 146.438 168.184L155.51 166.312L155.462 170.632L150.854 171.592C149.894 171.784 149.174 172.072 148.694 172.456C148.246 172.808 148.022 173.352 148.022 174.088C148.022 174.792 148.278 175.32 148.79 175.672C149.302 176.024 149.91 176.2 150.614 176.2C151.158 176.2 151.67 176.12 152.15 175.96C152.662 175.8 153.11 175.56 153.494 175.24C153.878 174.888 154.182 174.456 154.406 173.944C154.63 173.432 154.742 172.824 154.742 172.12V165.784ZM177.211 146.824V172.84C177.211 173.896 177.387 174.648 177.739 175.096C178.091 175.544 178.683 175.768 179.515 175.768C179.995 175.768 180.395 175.736 180.715 175.672C181.035 175.608 181.419 175.512 181.867 175.384L181.339 180.28C180.763 180.632 180.011 180.92 179.083 181.144C178.155 181.368 177.243 181.48 176.347 181.48C173.787 181.48 171.931 180.888 170.779 179.704C169.627 178.52 169.051 176.584 169.051 173.896V146.824H177.211ZM226.584 171.928C225.976 174.136 225 175.96 223.656 177.4C222.312 178.808 220.712 179.848 218.856 180.52C217 181.16 214.952 181.48 212.712 181.48C209.512 181.48 206.744 180.84 204.408 179.56C202.072 178.248 200.28 176.376 199.032 173.944C197.784 171.512 197.16 168.584 197.16 165.16C197.16 161.736 197.784 158.808 199.032 156.376C200.28 153.944 202.072 152.088 204.408 150.808C206.744 149.496 209.496 148.84 212.664 148.84C214.872 148.84 216.904 149.16 218.76 149.8C220.616 150.408 222.184 151.352 223.464 152.632C224.744 153.912 225.656 155.56 226.2 157.576L218.952 160.504C218.504 158.52 217.768 157.16 216.744 156.424C215.752 155.688 214.488 155.32 212.952 155.32C211.448 155.32 210.136 155.688 209.016 156.424C207.928 157.16 207.08 158.264 206.472 159.736C205.896 161.176 205.608 162.984 205.608 165.16C205.608 167.304 205.88 169.112 206.424 170.584C206.968 172.056 207.784 173.16 208.872 173.896C209.992 174.632 211.368 175 213 175C214.536 175 215.832 174.584 216.888 173.752C217.976 172.888 218.712 171.576 219.096 169.816L226.584 171.928ZM243.992 165.784C243.992 164.664 243.672 163.784 243.032 163.144C242.424 162.472 241.592 162.136 240.536 162.136C239.48 162.136 238.568 162.408 237.8 162.952C237.064 163.464 236.552 164.392 236.264 165.736L229.352 164.104C229.8 161.8 230.984 159.96 232.904 158.584C234.824 157.208 237.528 156.52 241.016 156.52C243.352 156.52 245.336 156.872 246.968 157.576C248.632 158.248 249.896 159.272 250.76 160.648C251.656 161.992 252.104 163.656 252.104 165.64V174.424C252.104 175.672 252.664 176.296 253.784 176.296C254.36 176.296 254.824 176.232 255.176 176.104L254.696 180.76C253.736 181.208 252.568 181.432 251.192 181.432C249.944 181.432 248.84 181.24 247.88 180.856C246.92 180.44 246.168 179.832 245.624 179.032C245.08 178.2 244.808 177.16 244.808 175.912V175.624L245.72 175.288C245.72 176.664 245.304 177.816 244.472 178.744C243.672 179.672 242.616 180.36 241.304 180.808C240.024 181.256 238.68 181.48 237.272 181.48C235.64 181.48 234.216 181.224 233 180.712C231.784 180.2 230.84 179.464 230.168 178.504C229.528 177.512 229.208 176.296 229.208 174.856C229.208 173.128 229.72 171.704 230.744 170.584C231.8 169.432 233.448 168.632 235.688 168.184L244.76 166.312L244.712 170.632L240.104 171.592C239.144 171.784 238.424 172.072 237.944 172.456C237.496 172.808 237.272 173.352 237.272 174.088C237.272 174.792 237.528 175.32 238.04 175.672C238.552 176.024 239.16 176.2 239.864 176.2C240.408 176.2 240.92 176.12 241.4 175.96C241.912 175.8 242.36 175.56 242.744 175.24C243.128 174.888 243.432 174.456 243.656 173.944C243.88 173.432 243.992 172.824 243.992 172.12V165.784ZM258.397 181V157H265.597L265.933 162.184C266.541 160.392 267.437 159 268.621 158.008C269.837 157.016 271.373 156.52 273.229 156.52C273.837 156.52 274.349 156.568 274.765 156.664C275.213 156.76 275.565 156.888 275.821 157.048L275.005 163.768C274.685 163.64 274.269 163.544 273.757 163.48C273.277 163.384 272.685 163.336 271.981 163.336C271.021 163.336 270.125 163.544 269.293 163.96C268.461 164.376 267.789 165 267.277 165.832C266.797 166.632 266.557 167.656 266.557 168.904V181H258.397ZM287.573 181.48C285.589 181.48 283.845 181 282.341 180.04C280.869 179.048 279.717 177.624 278.885 175.768C278.085 173.912 277.685 171.688 277.685 169.096C277.685 166.408 278.101 164.136 278.933 162.28C279.797 160.424 280.981 159 282.485 158.008C284.021 157.016 285.781 156.52 287.765 156.52C289.941 156.52 291.685 157.192 292.997 158.536C294.341 159.848 295.205 161.528 295.589 163.576L294.821 164.584V146.824H302.981V181H295.685L295.157 172.84L296.117 173.56C295.925 175.16 295.429 176.552 294.629 177.736C293.861 178.92 292.869 179.848 291.653 180.52C290.469 181.16 289.109 181.48 287.573 181.48ZM290.405 175.48C291.333 175.48 292.117 175.24 292.757 174.76C293.429 174.248 293.941 173.496 294.293 172.504C294.645 171.512 294.821 170.296 294.821 168.856C294.821 167.512 294.645 166.376 294.293 165.448C293.973 164.488 293.477 163.768 292.805 163.288C292.165 162.776 291.381 162.52 290.453 162.52C289.045 162.52 287.925 163.048 287.093 164.104C286.293 165.128 285.893 166.76 285.893 169C285.893 171.24 286.293 172.888 287.093 173.944C287.893 174.968 288.997 175.48 290.405 175.48Z" fill="url(#paint0_linear_1010_21176)"/>
</g>
<defs>
<linearGradient id="paint0_linear_1010_21176" x1="163.5" y1="116" x2="162.958" y2="188.996" gradientUnits="userSpaceOnUse">
<stop stop-color="white" stop-opacity="0.82"/>
<stop offset="0.948367" stop-color="white" stop-opacity="0"/>
</linearGradient>
<clipPath id="clip0_1010_21176">
<rect width="327" height="190" rx="16" fill="white"/>
</clipPath>
</defs>
</svg>
