<svg width="268" height="200" viewBox="0 0 268 200" fill="none" xmlns="http://www.w3.org/2000/svg">
<path d="M133.64 199.997C190.883 199.997 237.287 197.277 237.287 193.921C237.287 190.564 190.883 187.844 133.64 187.844C76.3982 187.844 29.9941 190.564 29.9941 193.921C29.9941 197.277 76.3982 199.997 133.64 199.997Z" fill="#68CF00" fill-opacity="0.1"/>
<path d="M175.53 43.485C173.488 42.202 167.623 43.485 168.58 49.9269C169.537 56.3688 162 54.7208 163.646 62.2149C165.293 69.709 178.651 80.8428 186.878 73.2842C195.105 65.7257 188.172 62.392 188.327 53.4217C188.434 48.091 186.028 38.5462 175.53 43.485Z" fill="#263238"/>
<path d="M187.631 72.9601C187.593 72.9598 187.557 72.9444 187.53 72.9171C187.517 72.9046 187.507 72.8896 187.499 72.873C187.492 72.8564 187.489 72.8385 187.489 72.8205C187.489 72.8025 187.492 72.7846 187.499 72.768C187.507 72.7514 187.517 72.7364 187.53 72.7239C192.597 67.667 191.427 64.5856 189.946 60.6882C189.123 58.5409 188.198 56.093 188.118 52.9203C188.038 49.4954 186.792 44.8196 183.547 42.8924C181.249 41.5289 178.298 41.7651 174.78 43.5957C174.748 43.611 174.712 43.6135 174.678 43.6025C174.644 43.5915 174.616 43.5679 174.599 43.5366C174.59 43.5206 174.584 43.5028 174.582 43.4844C174.58 43.466 174.582 43.4474 174.587 43.4298C174.593 43.4121 174.602 43.3958 174.614 43.3819C174.626 43.3679 174.641 43.3566 174.657 43.3487C178.266 41.4698 181.302 41.239 183.692 42.6562C187.027 44.6425 188.31 49.4202 188.396 52.9096C188.471 56.0393 189.39 58.455 190.203 60.5862C191.715 64.5802 192.918 67.7368 187.722 72.9332C187.696 72.9522 187.664 72.9617 187.631 72.9601Z" fill="#263238"/>
<path d="M188.818 72.2247C188.818 72.2247 188.904 72.3482 188.963 72.4287L189.176 72.7186C189.333 72.919 189.499 73.1177 189.674 73.3145C190.032 73.7199 190.414 74.1035 190.817 74.4633C191.645 75.2246 192.54 75.9091 193.49 76.5086C194.455 77.1255 195.459 77.6796 196.495 78.1674C197.029 78.4305 197.564 78.6398 198.098 78.876C198.2 78.9243 198.098 78.876 198.029 78.919C197.959 78.9619 197.9 78.9995 197.959 78.9673C198.221 78.743 198.43 78.4623 198.569 78.1459C198.805 77.6727 199.007 77.1829 199.173 76.6804C199.532 75.5592 199.823 74.4173 200.044 73.2608C200.285 72.0798 200.472 70.8719 200.637 69.6533C200.803 68.4348 200.953 67.2 201.086 65.9922H203.262C203.44 68.5595 203.421 71.1368 203.203 73.701C203.103 75.0299 202.902 76.3491 202.599 77.6467C202.437 78.3515 202.215 79.0411 201.936 79.7081C201.599 80.5575 201.076 81.3205 200.408 81.9413C199.915 82.3745 199.314 82.6657 198.67 82.7841C198.032 82.8915 197.377 82.8343 196.767 82.6177C196.142 82.3922 195.506 82.2043 194.885 81.9467C193.627 81.4531 192.408 80.8626 191.24 80.1805C190.054 79.4724 188.932 78.6605 187.888 77.7541C187.359 77.2825 186.859 76.7787 186.391 76.2456C186.151 75.9772 185.916 75.7087 185.691 75.3974L185.36 74.925C185.242 74.7478 185.162 74.6244 184.996 74.3345L188.818 72.2247Z" fill="#FFC3BD"/>
<path d="M188.086 70.24C193.085 73.461 192.678 75.415 192.678 75.415L189.535 79.9888C189.535 79.9888 181.517 76.7678 181.019 74.2394C180.496 71.6035 185.659 68.6832 188.086 70.24Z" fill="#263238"/>
<path opacity="0.1" d="M188.086 70.24C193.085 73.461 192.678 75.415 192.678 75.415L189.535 79.9888C189.535 79.9888 181.517 76.7678 181.019 74.2394C180.496 71.6035 185.659 68.6832 188.086 70.24Z" fill="white"/>
<path d="M192.977 74.9646C193.07 75.0306 193.134 75.1307 193.154 75.2432C193.174 75.3557 193.149 75.4716 193.084 75.5658L189.877 80.1879C189.845 80.2353 189.805 80.2758 189.757 80.3069C189.709 80.3381 189.656 80.3594 189.6 80.3694C189.544 80.3794 189.487 80.378 189.432 80.3653C189.376 80.3525 189.324 80.3287 189.278 80.2953C189.232 80.2626 189.193 80.2212 189.163 80.1732C189.133 80.1253 189.112 80.0718 189.103 80.0159C189.093 79.96 189.095 79.9028 189.108 79.8475C189.12 79.7923 189.144 79.7401 189.177 79.694L192.384 75.072C192.45 74.9801 192.548 74.9176 192.659 74.8975C192.77 74.8775 192.884 74.9015 192.977 74.9646Z" fill="#102572"/>
<path d="M201.439 67.042L198.959 63.7137L203.717 62.4844C203.717 62.4844 204.684 65.4477 203.102 67.6218L201.439 67.042Z" fill="#FFC3BD"/>
<path d="M199.093 59.6242L203.054 58.9531L203.717 62.4854L198.959 63.7148L199.093 59.6242Z" fill="#FFC3BD"/>
<path d="M158.787 189.282L163.32 189.723L166.56 179.018L162.027 178.578L158.787 189.282Z" fill="#FFC3BD"/>
<path d="M129.947 173.463L133.31 176.63L140.569 168.62L137.207 165.453L129.947 173.463Z" fill="#FFC3BD"/>
<path d="M134.865 175.117L132.336 170.548C132.295 170.468 132.226 170.407 132.142 170.375C132.058 170.343 131.966 170.344 131.882 170.376L127.991 171.863C127.891 171.904 127.802 171.966 127.729 172.044C127.655 172.122 127.6 172.216 127.566 172.318C127.532 172.42 127.52 172.528 127.532 172.635C127.543 172.742 127.577 172.845 127.632 172.937C128.541 174.515 129.06 175.235 130.166 177.232C130.85 178.466 132.181 181.306 133.128 183.013C134.074 184.72 135.8 183.878 135.565 183.078C134.496 179.508 134.689 177.522 134.993 175.949C135.048 175.665 135.003 175.37 134.865 175.117Z" fill="#263238"/>
<path d="M163.86 188.336H158.359C158.261 188.338 158.166 188.371 158.088 188.431C158.01 188.491 157.953 188.575 157.926 188.669L156.728 193.039C156.7 193.142 156.697 193.251 156.717 193.356C156.738 193.461 156.783 193.56 156.848 193.645C156.913 193.73 156.997 193.798 157.094 193.845C157.19 193.892 157.295 193.915 157.402 193.914C159.337 193.914 160.257 193.914 162.673 193.914H170.066C172.076 193.914 172.493 191.874 171.67 191.692C167.928 190.865 165.789 189.721 164.64 188.632C164.428 188.434 164.148 188.328 163.86 188.336Z" fill="#263238"/>
<path opacity="0.2" d="M166.56 179.026L164.892 184.539H160.22L162.027 178.586L166.56 179.026Z" fill="black"/>
<path opacity="0.2" d="M137.207 165.453L140.569 168.626L136.827 172.754L133.465 169.581L137.207 165.453Z" fill="black"/>
<path d="M188.086 70.2406C188.086 70.2406 189.904 71.4806 178.384 96.6149L160.246 91.5741C162.593 84.241 163.865 79.6726 164.523 63.4766C167.208 63.6555 169.877 64.0305 172.509 64.5985C175.304 65.1653 178.055 65.9313 180.741 66.8908C183.246 67.879 185.697 68.9971 188.086 70.2406Z" fill="#263238"/>
<path opacity="0.1" d="M188.086 70.2406C188.086 70.2406 189.904 71.4806 178.384 96.6149L160.246 91.5741C162.593 84.241 163.865 79.6726 164.523 63.4766C167.208 63.6555 169.877 64.0305 172.509 64.5985C175.304 65.1653 178.055 65.9313 180.741 66.8908C183.246 67.879 185.697 68.9971 188.086 70.2406Z" fill="white"/>
<path d="M175.898 55.5078C175.685 58.3154 174.856 63.3347 172.515 64.5963C172.515 64.5963 171.152 69.2506 177.064 70.963C182.073 72.4071 180.747 66.8885 180.747 66.8885C177.989 65.3586 179.678 62.6476 180.212 59.6092L175.898 55.5078Z" fill="#FFC3BD"/>
<path opacity="0.2" d="M175.871 55.5156C175.7 57.7649 175.139 61.4583 173.701 63.466C175.369 63.6324 177.978 63.1225 178.747 61.8555C179.128 60.9674 179.437 60.0501 179.672 59.1124L175.871 55.5156Z" fill="black"/>
<path d="M183.232 51.4469C183.232 56.0636 183.312 58.023 181.136 60.5192C177.86 64.277 172.215 63.2517 170.851 58.7209C169.627 54.6464 169.852 47.7804 174.235 45.6814C175.198 45.2142 176.264 45.0023 177.332 45.0657C178.4 45.129 179.434 45.4656 180.335 46.0434C181.237 46.6213 181.976 47.4211 182.483 48.3668C182.99 49.3126 183.248 50.3729 183.232 51.4469Z" fill="#FFC3BD"/>
<path d="M173.733 48.8806C176.315 52.5042 185.001 57.5396 185.584 52.6867C186.167 47.8338 181.73 43.0239 177.336 43.5016C172.942 43.9794 171.525 45.7992 173.733 48.8806Z" fill="#263238"/>
<path d="M185.136 55.7576C184.941 56.1547 184.671 56.5094 184.339 56.8014C184.008 57.0934 183.623 57.317 183.206 57.4593C182.089 57.8297 181.474 56.842 181.736 55.7522C181.976 54.7698 182.842 53.3956 183.992 53.4976C184.241 53.5234 184.481 53.6117 184.688 53.7544C184.895 53.8972 185.063 54.0897 185.177 54.3146C185.291 54.5394 185.346 54.7893 185.339 55.0413C185.332 55.2934 185.262 55.5397 185.136 55.7576Z" fill="#FFC3BD"/>
<path d="M178.383 96.6309C178.383 96.6309 184.841 122.898 180.607 142.766C177.768 156.074 167.537 182.958 167.537 182.958L159.519 182.754C159.519 182.754 167.264 154.544 168.863 143.447C171.605 124.465 165.078 92.9375 165.078 92.9375L178.383 96.6309Z" fill="#A5A5A5"/>
<path opacity="0.2" d="M171.183 100.383L167.185 106.717C168.382 114.229 169.14 121.804 169.456 129.404C175.096 119.295 172.434 105.751 171.183 100.383Z" fill="black"/>
<path d="M168.971 183.361L158.787 183.108L159.471 179.469L169.714 180.242L168.971 183.361Z" fill="#263238"/>
<path d="M174.407 95.5516C174.407 95.5516 170.665 124.272 162.609 140.591C156.093 153.77 138.703 172.533 138.703 172.533L134.256 167.932C134.256 167.932 146.016 147.533 150.827 138.788C162.705 117.315 152.18 98.0693 160.23 91.5469L174.407 95.5516Z" fill="#A5A5A5"/>
<path d="M139.152 173.164L133.416 167.544L135.319 164.945L141.573 171.436L139.152 173.164Z" fill="#263238"/>
<path d="M160.267 90.4268L159 91.8332C158.904 91.9406 159 92.1124 159.225 92.1715L178.25 97.4592C178.41 97.5021 178.57 97.4592 178.608 97.3626L179.223 95.7521C179.265 95.6447 179.148 95.5105 178.971 95.4568L160.604 90.3516C160.546 90.3336 160.484 90.3311 160.425 90.3442C160.366 90.3574 160.312 90.3859 160.267 90.4268Z" fill="#102572"/>
<path opacity="0.5" d="M160.267 90.4268L159 91.8332C158.904 91.9406 159 92.1124 159.225 92.1715L178.25 97.4592C178.41 97.5021 178.57 97.4592 178.608 97.3626L179.223 95.7521C179.265 95.6447 179.148 95.5105 178.971 95.4568L160.604 90.3516C160.546 90.3336 160.484 90.3311 160.425 90.3442C160.366 90.3574 160.312 90.3859 160.267 90.4268Z" fill="white"/>
<path d="M162.165 93.1707L161.673 93.0365C161.577 93.0096 161.518 92.9345 161.54 92.8754L162.352 90.8247C162.379 90.7603 162.48 90.7335 162.577 90.7603L163.068 90.8999C163.165 90.8999 163.229 90.9965 163.202 91.061L162.389 93.1116C162.364 93.1447 162.328 93.1683 162.287 93.179C162.247 93.1896 162.204 93.1867 162.165 93.1707Z" fill="#102572"/>
<path d="M176.817 97.2453L176.325 97.111C176.229 97.0842 176.165 97.0091 176.192 96.95L177.004 94.894C177.03 94.8609 177.066 94.8373 177.107 94.8266C177.147 94.816 177.19 94.8189 177.229 94.8349L177.72 94.9745C177.817 95.0013 177.876 95.0711 177.854 95.1302L177.042 97.1647C177.015 97.2453 176.94 97.2721 176.817 97.2453Z" fill="#102572"/>
<path d="M169.494 95.2098L169.002 95.0703C168.9 95.0703 168.841 94.9736 168.863 94.9146L169.681 92.8585C169.681 92.7995 169.804 92.7727 169.9 92.7995L170.392 92.9337C170.493 92.9337 170.552 93.0357 170.531 93.0947L169.713 95.1508C169.691 95.2098 169.59 95.2367 169.494 95.2098Z" fill="#102572"/>
<path d="M176.358 53.1478C176.358 53.5235 176.197 53.8403 175.957 53.851C175.716 53.8617 175.497 53.5772 175.47 53.2014C175.444 52.8257 175.631 52.5089 175.877 52.4928C176.122 52.4767 176.336 52.7666 176.358 53.1478Z" fill="#263238"/>
<path d="M172.129 53.3842C172.129 53.76 171.969 54.0767 171.723 54.0928C171.477 54.1089 171.269 53.8137 171.242 53.4379C171.215 53.0621 171.402 52.7454 171.648 52.7347C171.894 52.7239 172.129 53.0138 172.129 53.3842Z" fill="#263238"/>
<path d="M171.766 52.7509L170.857 52.5469C170.857 52.5469 171.355 53.2233 171.766 52.7509Z" fill="#263238"/>
<path d="M173.289 53.9688C173.006 54.8418 172.607 55.6724 172.103 56.4382C172.3 56.5632 172.523 56.6434 172.754 56.6731C172.986 56.7027 173.222 56.6812 173.444 56.6099L173.289 53.9688Z" fill="#ED847E"/>
<path d="M175.523 57.8851C175.301 57.9428 175.074 57.977 174.844 57.9871C174.832 57.9887 174.82 57.9876 174.808 57.984C174.797 57.9803 174.786 57.9742 174.777 57.9661C174.768 57.958 174.761 57.948 174.756 57.9368C174.751 57.9256 174.748 57.9135 174.748 57.9012C174.747 57.8893 174.749 57.8772 174.753 57.8659C174.757 57.8545 174.763 57.8441 174.771 57.8351C174.779 57.8261 174.789 57.8188 174.799 57.8136C174.81 57.8083 174.822 57.8053 174.834 57.8046C175.301 57.7856 175.758 57.6574 176.167 57.43C176.576 57.2025 176.927 56.8823 177.191 56.4948C177.205 56.4778 177.224 56.4663 177.246 56.4624C177.267 56.4585 177.289 56.4624 177.308 56.4735C177.326 56.4845 177.341 56.5019 177.348 56.5226C177.355 56.5432 177.354 56.5657 177.346 56.586C176.925 57.2361 176.273 57.7006 175.523 57.8851Z" fill="#263238"/>
<path d="M177.752 50.4016C177.722 50.4094 177.69 50.4091 177.66 50.4006C177.63 50.3921 177.603 50.3758 177.581 50.3533C177.387 50.1472 177.146 49.991 176.879 49.8976C176.612 49.8042 176.327 49.7763 176.047 49.8164C176 49.8248 175.951 49.8152 175.911 49.7893C175.87 49.7635 175.841 49.7234 175.828 49.6769C175.818 49.6292 175.827 49.5797 175.853 49.5387C175.879 49.4976 175.92 49.4683 175.967 49.4568C176.306 49.4022 176.653 49.4303 176.978 49.5387C177.304 49.6471 177.599 49.8326 177.838 50.0795C177.871 50.1152 177.889 50.1622 177.889 50.211C177.889 50.2598 177.871 50.3068 177.838 50.3425C177.814 50.3686 177.785 50.3889 177.752 50.4016Z" fill="#263238"/>
<path d="M170.301 50.9462C170.273 50.9632 170.24 50.9722 170.207 50.9722C170.174 50.9722 170.142 50.9632 170.114 50.9462C170.076 50.9173 170.051 50.8748 170.044 50.8277C170.037 50.7805 170.049 50.7325 170.076 50.6939C170.274 50.4121 170.535 50.1822 170.84 50.0233C171.144 49.8645 171.482 49.7815 171.824 49.7812C171.848 49.7826 171.872 49.7887 171.893 49.7992C171.915 49.8096 171.934 49.8243 171.95 49.8422C171.966 49.8602 171.978 49.8811 171.986 49.9038C171.994 49.9265 171.997 49.9505 171.996 49.9745C171.994 49.9985 171.988 50.022 171.978 50.0436C171.967 50.0652 171.953 50.0846 171.935 50.1005C171.917 50.1165 171.896 50.1287 171.873 50.1366C171.851 50.1445 171.827 50.1477 171.803 50.1463C171.521 50.1508 171.245 50.2222 170.996 50.3547C170.747 50.4872 170.532 50.677 170.37 50.9086C170.35 50.9262 170.327 50.9391 170.301 50.9462Z" fill="#263238"/>
<path d="M164.95 70.3972C164.485 71.1058 164.063 71.6748 163.587 72.2761C163.111 72.8773 162.646 73.441 162.154 73.9993C161.168 75.1214 160.119 76.1861 159.011 77.188C157.91 78.2101 156.742 79.157 155.515 80.0225C154.911 80.4734 154.264 80.8653 153.634 81.2733L152.645 81.8423L152.153 82.1215C151.971 82.2181 151.736 82.3469 151.511 82.4382C150.521 82.8882 149.42 83.0339 148.347 82.8569C147.334 82.6649 146.388 82.2137 145.599 81.5471C144.933 80.9894 144.347 80.3428 143.856 79.6252C143.404 78.9736 143.002 78.288 142.654 77.5745C141.385 74.8707 140.511 71.998 140.056 69.0444L142.194 68.5505C142.638 69.8281 143.135 71.1541 143.696 72.3942C144.222 73.6338 144.842 74.8309 145.551 75.9748C146.142 77.01 146.926 77.9212 147.86 78.6589C148.171 78.8981 148.54 79.0483 148.929 79.0938C149.269 79.1083 149.607 79.0265 149.902 78.8576C150.006 78.8047 150.106 78.7455 150.202 78.6804L150.619 78.412L151.447 77.8752C151.982 77.4779 152.516 77.1075 153.051 76.6834C154.104 75.8554 155.113 74.9739 156.076 74.0422C157.055 73.1135 157.969 72.1204 158.851 71.1004C159.295 70.5904 159.728 70.0751 160.145 69.549C160.561 69.0229 160.978 68.4753 161.315 67.9922L164.95 70.3972Z" fill="#FFC3BD"/>
<path d="M142.605 70.532L143.076 65.5234L138.591 67.3647C138.591 67.3647 139.125 69.8825 140.836 70.7843L142.605 70.532Z" fill="#FFC3BD"/>
<path d="M141.643 62.8116L138.174 62.0547L138.591 67.3585L143.076 65.5172L141.643 62.8116Z" fill="#FFC3BD"/>
<path d="M164.528 63.4766C162.192 63.4766 156.568 72.4308 156.568 72.4308L160.54 76.5644C160.54 76.5644 168.024 71.4967 168.318 68.512C168.575 65.946 167.5 63.5034 164.528 63.4766Z" fill="#263238"/>
<path opacity="0.1" d="M164.528 63.4766C162.192 63.4766 156.568 72.4308 156.568 72.4308L160.54 76.5644C160.54 76.5644 168.024 71.4967 168.318 68.512C168.575 65.946 167.5 63.5034 164.528 63.4766Z" fill="white"/>
<path d="M160.904 76.7695C160.823 76.8498 160.715 76.8949 160.602 76.8949C160.488 76.8949 160.38 76.8498 160.3 76.7695L156.285 72.8184C156.205 72.7379 156.16 72.6288 156.16 72.5151C156.16 72.4014 156.205 72.2923 156.285 72.2118C156.366 72.1312 156.476 72.0859 156.59 72.0859C156.704 72.0859 156.813 72.1312 156.894 72.2118L160.904 76.1575C160.984 76.2389 161.029 76.3489 161.029 76.4635C161.029 76.5781 160.984 76.6881 160.904 76.7695Z" fill="#102572"/>
<path d="M135.779 177.569C135.926 177.565 136.067 177.512 136.18 177.419C136.234 177.384 136.276 177.335 136.304 177.277C136.331 177.219 136.342 177.155 136.335 177.091C136.287 176.511 134.822 175.722 134.651 175.631C134.637 175.622 134.62 175.617 134.603 175.617C134.586 175.617 134.569 175.622 134.555 175.631C134.54 175.642 134.529 175.657 134.523 175.674C134.517 175.691 134.517 175.71 134.523 175.728C134.688 176.318 135.057 177.338 135.592 177.526C135.651 177.552 135.714 177.566 135.779 177.569ZM134.71 175.899C135.244 176.189 136.078 176.748 136.105 177.107C136.109 177.14 136.102 177.172 136.087 177.201C136.072 177.23 136.048 177.253 136.019 177.268C135.965 177.319 135.899 177.355 135.827 177.372C135.754 177.389 135.679 177.387 135.608 177.365C135.319 177.258 134.988 176.715 134.71 175.899Z" fill="#102572"/>
<path d="M135.977 176.131C136.209 176.149 136.439 176.091 136.635 175.965C136.699 175.912 136.743 175.837 136.759 175.755C136.774 175.673 136.761 175.588 136.72 175.514C136.692 175.437 136.647 175.367 136.587 175.31C136.528 175.254 136.456 175.211 136.378 175.187C135.753 174.967 134.587 175.605 134.539 175.632C134.525 175.641 134.514 175.653 134.505 175.667C134.497 175.681 134.492 175.696 134.491 175.713C134.491 175.729 134.495 175.744 134.503 175.758C134.51 175.772 134.521 175.784 134.534 175.793C134.984 176.013 135.477 176.129 135.977 176.131ZM136.068 175.321C136.154 175.321 136.239 175.335 136.319 175.364C136.372 175.38 136.421 175.408 136.461 175.446C136.501 175.484 136.531 175.532 136.549 175.584C136.608 175.724 136.549 175.788 136.517 175.826C136.245 176.056 135.282 175.928 134.785 175.713C135.183 175.499 135.619 175.366 136.068 175.321Z" fill="#102572"/>
<path d="M166.298 189.223C166.671 189.251 167.045 189.162 167.367 188.97C167.45 188.908 167.517 188.827 167.564 188.734C167.61 188.64 167.634 188.538 167.634 188.433C167.641 188.38 167.632 188.325 167.61 188.275C167.587 188.226 167.551 188.184 167.506 188.154C167.009 187.811 165.009 188.734 164.785 188.841C164.767 188.849 164.752 188.863 164.742 188.881C164.732 188.898 164.729 188.918 164.731 188.938C164.733 188.956 164.741 188.974 164.754 188.987C164.766 189.001 164.783 189.01 164.801 189.013C165.291 189.136 165.793 189.206 166.298 189.223ZM167.174 188.272C167.252 188.267 167.33 188.284 167.399 188.321C167.426 188.321 167.452 188.369 167.447 188.444C167.446 188.518 167.428 188.591 167.393 188.656C167.359 188.721 167.309 188.778 167.249 188.82C166.8 189.164 165.704 189.019 165.111 188.911C165.761 188.59 166.457 188.375 167.174 188.272Z" fill="#102572"/>
<path d="M164.816 189.038H164.848C165.452 188.791 166.709 187.776 166.639 187.272C166.639 187.164 166.553 187.03 166.281 186.998C165.212 186.874 164.747 188.844 164.725 188.93C164.722 188.947 164.723 188.964 164.729 188.98C164.735 188.996 164.744 189.011 164.757 189.022C164.775 189.032 164.795 189.038 164.816 189.038ZM166.185 187.17H166.249C166.436 187.17 166.447 187.261 166.452 187.288C166.495 187.61 165.597 188.431 164.944 188.775C165.089 188.318 165.495 187.17 166.185 187.17Z" fill="#102572"/>
<path d="M175.984 52.5009L175.075 52.2969C175.075 52.2969 175.572 52.9733 175.984 52.5009Z" fill="#263238"/>
<path d="M81.5279 191.484L141.987 186.183C146.092 185.823 149.13 182.189 148.772 178.066L136.179 33.2332C135.821 29.11 132.202 26.0594 128.096 26.4194L67.6373 31.7206C63.5315 32.0806 60.4937 35.7149 60.8522 39.8381L73.4446 184.67C73.803 188.794 77.4221 191.844 81.5279 191.484Z" fill="#102572"/>
<path d="M65.3779 82.6141C65.938 82.5609 66.4546 82.2882 66.8158 81.8551C67.1771 81.422 67.3538 80.8634 67.3077 80.3004L65.6452 61.2001C65.5935 60.6377 65.3233 60.1184 64.8931 59.7546C64.4628 59.3909 63.9072 59.212 63.3466 59.2568C62.7855 59.3086 62.2676 59.5807 61.9052 60.014C61.5429 60.4472 61.3654 61.0066 61.4115 61.5705L63.0793 80.6708C63.1309 81.2332 63.4012 81.7525 63.8314 82.1162C64.2616 82.4799 64.8173 82.6588 65.3779 82.6141Z" fill="#102572"/>
<path d="M139.22 67.5073L139.96 67.4424C140.828 67.3664 141.47 66.5983 141.394 65.727L140.38 54.0579C140.304 53.1866 139.539 52.5419 138.671 52.618L137.931 52.6829C137.064 52.759 136.422 53.527 136.497 54.3983L137.512 66.0674C137.588 66.9388 138.352 67.5834 139.22 67.5073Z" fill="#263238"/>
<path d="M140.087 87.1472L140.83 87.08C141.701 87.0013 142.344 86.2285 142.265 85.3539L141.216 73.6403C141.137 72.7657 140.368 72.1205 139.497 72.1992L138.754 72.2664C137.883 72.3451 137.24 73.1179 137.319 73.9925L138.368 85.7061C138.447 86.5807 139.216 87.2259 140.087 87.1472Z" fill="#263238"/>
<path d="M82.7984 191.367L143.257 186.066C147.363 185.706 150.401 182.072 150.042 177.948L137.45 33.116C137.091 28.9928 133.472 25.9422 129.367 26.3022L68.9078 31.6034C64.802 31.9634 61.7642 35.5977 62.1227 39.7209L74.7151 184.553C75.0735 188.676 78.6926 191.727 82.7984 191.367Z" fill="#263238"/>
<path d="M76.843 182.351L147.539 176.15C147.908 176.116 148.249 175.937 148.488 175.651C148.726 175.366 148.842 174.997 148.811 174.626L136.848 36.876C136.814 36.5059 136.636 36.1643 136.353 35.9251C136.069 35.6859 135.704 35.5685 135.335 35.5983L64.6122 41.804C64.4297 41.8202 64.2521 41.8724 64.0897 41.9575C63.9272 42.0426 63.783 42.159 63.6654 42.3001C63.5477 42.4412 63.4589 42.6042 63.404 42.7797C63.3491 42.9553 63.3291 43.1399 63.3453 43.3232L75.3302 181.078C75.3456 181.262 75.3971 181.44 75.4816 181.604C75.5662 181.767 75.6821 181.913 75.8227 182.031C75.9634 182.149 76.1259 182.238 76.301 182.293C76.4761 182.348 76.6603 182.367 76.843 182.351Z" fill="white"/>
<path opacity="0.2" d="M106.977 31.8472L91.8798 33.171C91.5298 33.2017 91.2709 33.5115 91.3014 33.863L91.3549 34.478C91.3855 34.8294 91.694 35.0895 92.0439 35.0588L107.141 33.735C107.491 33.7043 107.75 33.3945 107.72 33.0431L107.666 32.4281C107.636 32.0766 107.327 31.8165 106.977 31.8472Z" fill="white"/>
<path d="M93.2175 87H166.788C168.699 87.0065 170.53 87.8809 171.881 89.4322C173.233 90.9835 173.994 93.0857 174 95.2797V136.709C173.994 138.903 173.233 141.006 171.882 142.558C170.531 144.111 168.699 144.986 166.788 144.994H141.329L130 158L118.671 144.994H93.2175C91.305 144.988 89.4725 144.113 88.1202 142.56C86.7679 141.008 86.0056 138.904 86 136.709V95.2797C86.0056 93.0847 86.768 90.9816 88.1205 89.4301C89.473 87.8785 91.3055 87.0049 93.2175 87Z" fill="#102572"/>
<path d="M98.0001 100.454V130.546C97.9916 131.713 98.374 132.836 99.0637 133.671C99.7535 134.506 100.695 134.983 101.681 135H158.319C159.305 134.983 160.247 134.506 160.936 133.671C161.626 132.836 162.008 131.713 162 130.546V100.454C161.999 99.8839 161.909 99.3191 161.733 98.7884C161.465 97.9735 160.996 97.2724 160.387 96.7754C159.779 96.2785 159.058 96.0084 158.319 96H101.681C100.942 96.0079 100.222 96.2779 99.6146 96.775C99.0068 97.2722 98.5392 97.9735 98.2722 98.7884C98.0914 99.3176 97.999 99.8832 98.0001 100.454Z" fill="white"/>
<path opacity="0.1" d="M98 98.7943L125.181 112.924C126.543 113.634 128.014 114 129.5 114C130.986 114 132.457 113.634 133.819 112.924L161 98.7943C160.733 97.9777 160.268 97.2751 159.664 96.7771C159.06 96.279 158.345 96.0084 157.61 96H101.384C100.651 96.0079 99.936 96.2785 99.3326 96.7767C98.7292 97.2748 98.265 97.9777 98 98.7943Z" fill="black"/>
<path d="M99.1247 98.0393C103.408 93.7374 103.408 86.7626 99.1247 82.4607C94.8409 78.1588 87.8956 78.1588 83.6119 82.4607C79.3281 86.7626 79.3281 93.7374 83.6119 98.0393C87.8956 102.341 94.8409 102.341 99.1247 98.0393Z" fill="#FF0700"/>
<path d="M93.4843 96.9578H90.9291V87.2949C89.9845 88.1772 88.8586 88.8406 87.6309 89.2382V86.9137C88.4193 86.6226 89.1531 86.1997 89.8012 85.6629C90.531 85.1177 91.088 84.3719 91.4049 83.5156H93.479L93.4843 96.9578Z" fill="white"/>
<path d="M153.083 21.9668C152.702 21.9637 152.335 21.8248 152.047 21.575C151.759 21.3253 151.569 20.9808 151.511 20.6033C150.778 15.7637 148.163 11.4135 144.241 8.50633C140.319 5.59916 135.41 4.37219 130.588 5.09436C130.197 5.10468 129.815 4.97088 129.515 4.71816C129.215 4.46544 129.018 4.11127 128.96 3.72241C128.902 3.33355 128.988 2.93687 129.201 2.60715C129.414 2.27744 129.74 2.03745 130.118 1.93245C135.773 1.08575 141.533 2.52611 146.132 5.93765C150.732 9.34918 153.797 14.4534 154.654 20.1309C154.713 20.5488 154.605 20.9732 154.355 21.3125C154.105 21.6518 153.733 21.8791 153.318 21.9453C153.24 21.9602 153.161 21.9674 153.083 21.9668Z" fill="#6CCF00"/>
<path d="M145.177 23.1604C144.797 23.1575 144.431 23.0194 144.143 22.7707C143.855 22.522 143.665 22.1789 143.605 21.8023C143.192 19.0659 141.715 16.6058 139.499 14.9614C137.282 13.317 134.506 12.6226 131.781 13.0305C131.389 13.0423 131.006 12.9096 130.705 12.6573C130.404 12.405 130.205 12.0507 130.147 11.6614C130.088 11.2721 130.174 10.8747 130.387 10.5444C130.601 10.214 130.927 9.97363 131.305 9.86863C134.866 9.33444 138.492 10.2406 141.388 12.3883C144.285 14.536 146.214 17.7498 146.754 21.3245C146.814 21.7433 146.707 22.169 146.457 22.5096C146.207 22.8501 145.834 23.0781 145.417 23.1443C145.338 23.1551 145.257 23.1604 145.177 23.1604Z" fill="#6CCF00"/>
<path d="M137.276 24.3542C136.895 24.3511 136.529 24.2122 136.241 23.9624C135.953 23.7126 135.763 23.3682 135.704 22.9906C135.658 22.6766 135.55 22.3749 135.388 22.1028C135.225 21.8307 135.01 21.5935 134.756 21.405C134.501 21.2164 134.212 21.0802 133.906 21.0041C133.599 20.9279 133.28 20.9135 132.967 20.9614C132.579 20.9668 132.203 20.8307 131.907 20.5784C131.611 20.3261 131.417 19.9748 131.359 19.5895C131.302 19.2042 131.386 18.811 131.595 18.4829C131.804 18.1547 132.124 17.9139 132.497 17.8049C133.225 17.6947 133.967 17.73 134.681 17.9089C135.394 18.0878 136.066 18.4067 136.657 18.8472C137.248 19.2878 137.746 19.8413 138.123 20.4759C138.499 21.1105 138.748 21.8137 138.853 22.5451C138.911 22.963 138.804 23.3874 138.554 23.7267C138.304 24.0661 137.932 24.2933 137.517 24.3595C137.436 24.3657 137.356 24.3639 137.276 24.3542Z" fill="#6CCF00"/>
</svg>
